<svg id="Слой_1" xmlns="http://www.w3.org/2000/svg" width="30" height="935.7" viewBox="0 0 30 935.7"><style>.st0{fill:#efeeee}.st1{fill:#fdfeff}</style><g id="XMLID_3_"><path id="XMLID_620_" class="st0" d="M24.8 808.5c.1 0 .2-.1.3-.2l-.2-.2c-.1.1-.2.1-.3.2l.2.2z"/><path id="XMLID_594_" class="st0" d="M27.4 808.9l.1-.2c0-.1-.1-.2-.2-.3l-.2.2c.2.1.3.2.3.3z"/><path id="XMLID_593_" class="st0" d="M25.7 812.3l.1-.2s-.1 0-.1.2z"/><path id="XMLID_592_" class="st0" d="M22.2 783.6c0-.1.1-.2.1-.3l-.2-.2c-.1.1-.1.2-.2.3l.3.2z"/><path id="XMLID_591_" class="st0" d="M21.7 782.7c.1-.1.1-.2.2-.3l-.2-.2c0 .1-.1.2-.1.3l.1.2z"/><path id="XMLID_590_" class="st0" d="M23.4 808.1l.2-.2c-.1-.1-.1-.2-.2-.3l-.1.2c0 .1 0 .2.1.3z"/><path id="XMLID_589_" class="st0" d="M29.8 775.4l.2-.2c-.1-.1-.1-.2-.2-.3l-.1.2c-.1.1 0 .2.1.3z"/><path id="XMLID_588_" class="st0" d="M22.3 817l.6-.9c-.1 0-.3-.1-.6-.2-.1.2-.2.5-.2.7s.1.3.2.4z"/><path id="XMLID_587_" class="st0" d="M24.4 814.6l.2.2c.5 0 1.1 0 1.4-.5v-.4c-.1 0-.2-.1-.3-.1-.4.2-.8.3-1.2.5 0 0-.1.2-.1.3z"/><path id="XMLID_586_" class="st0" d="M20.6 812.7c0 .1-.1.2-.1.3l.2.2c.1-.1.1-.2.2-.3l-.3-.2z"/><path id="XMLID_585_" class="st0" d="M24.7 812.2c0-.1-.1-.1-.2-.1-.2-.1-.5.2-.7.3l.2.6c.3 0 .5 0 .9-.3l-.3-.3c.1-.1.1-.1.1-.2z"/><path id="XMLID_584_" class="st0" d="M25.6 812.4l-.2-.2-.1.2c.1.1.2.2.3.2 0-.1.1-.2 0-.2z"/><path id="XMLID_583_" class="st0" d="M21.2 717.9l-.7.7c.2.1.5.3.6.2.2-.2.3-.5.3-.7l-.2-.2z"/><path id="XMLID_582_" class="st0" d="M22.7 718.7c.1-.1.2-.3.2-.4 0-.2-.2-.4-.3-.6-.1.1-.2.3-.3.4.2.2.3.4.4.6z"/><path id="XMLID_581_" class="st0" d="M23.5 722.8l-.2-.2c-.1 0-.3 0 .2.2z"/><path id="XMLID_580_" class="st0" d="M25.5 816.9c.2 0 .3-.2.4-.3-.1 0-.3-.1-.7-.2 0 .1-.1.3-.2.4.3 0 .4.1.5.1z"/><path id="XMLID_579_" class="st0" d="M23.8 711.1s.1 0 .1-.1v-.2c-.1 0-.2.1-.3.2l.2.1z"/><path id="XMLID_578_" class="st0" d="M22.8 703.2c.1-.1.1-.2.2-.3l-.2-.2c0 .1-.1.2-.1.3l.1.2z"/><path id="XMLID_577_" class="st0" d="M24 723v-.2c-.2 0-.4-.1-.5-.1l.1.2c.2.1.3.1.4.1z"/><path id="XMLID_576_" class="st0" d="M19.6 728.8l.2-.2c-.1-.1-.2-.1-.3-.2l-.2.2c.1.1.2.2.3.2z"/><path id="XMLID_575_" class="st0" d="M22.5 722.8c.4.1.5.2.7.3h.5v-.1c-.3-.1-.7-.1-1.2-.2z"/><path id="XMLID_574_" class="st0" d="M19.3 724.9c.1-.1.2-.1.3-.2l-.2-.1c-.1 0-.2.1-.3.2l.2.1z"/><path id="XMLID_573_" class="st0" d="M21.2 742.5l.2-.2c-.1 0-.2-.1-.3-.1l-.2.2c.1 0 .2.1.3.1z"/><path id="XMLID_572_" class="st0" d="M24 723.5v-.4c-.1.1-.2.1-.3.2.1 0 .2.1.3.2z"/><path id="XMLID_571_" class="st0" d="M23.9 708.1c0-.1.1-.1.1-.2v-.3l-.3-.3c-.1.1-.1.3-.2.7 0 0 .2.1.4.1z"/><path id="XMLID_570_" class="st0" d="M20.4 837.2c.4.2.6.3.7.3h.5v-.1c.1 0 .2.1.3.1v-.2c-.2 0-.4-.1-.5-.1l.1.2c-.3-.1-.7-.1-1.1-.2z"/><path id="XMLID_569_" class="st0" d="M21.2 875.4l.2-.2c-.1 0-.2-.1-.3-.1l-.2.2c.1 0 .2.1.3.1z"/><path id="XMLID_568_" class="st0" d="M19.6 861.7l.2-.2c-.1-.1-.2-.1-.3-.2l-.2.2c.1.1.2.2.3.2z"/><path id="XMLID_567_" class="st0" d="M21.9 838v-.4c-.1.1-.2.1-.3.2.1 0 .2.1.3.2z"/><path id="XMLID_566_" class="st0" d="M22.8 836.1c.1-.1.1-.2.2-.3l-.2-.2c0 .1-.1.2-.1.3l.1.2z"/><path id="XMLID_565_" class="st0" d="M21.4 837.3l-.2-.2c-.1-.1-.3 0 .2.2z"/><path id="XMLID_564_" class="st0" d="M20.7 921.8c-.1 0-.2-.1-.4-.1l-.2.3c.3-.1.5-.2.6-.2z"/><path id="XMLID_563_" class="st0" d="M22 832.9l.2-.2c-.1 0-.2-.1-.3-.1l-.2.2c.1 0 .2.1.3.1z"/><path id="XMLID_562_" class="st0" d="M23.5 820.4c.1-.1.2-.3.3-.5-.2-.2-.4-.4-.6-.5-.1 0-.3.1-.4.2.2.3.5.5.7.8z"/><path id="XMLID_561_" class="st0" d="M29.8 908.3l.2-.2c-.1-.1-.1-.2-.2-.3l-.1.2c-.1.1 0 .2.1.3z"/><path id="XMLID_560_" class="st0" d="M22.2 916.5c0-.1.1-.2.1-.3l-.2-.2c-.1.1-.1.2-.2.3l.3.2z"/><path id="XMLID_559_" class="st0" d="M21.7 915.6c.1-.1.1-.2.2-.3l-.2-.2c0 .1-.1.2-.1.3l.1.2z"/><path id="XMLID_558_" class="st0" d="M19.3 857.8c.1-.1.2-.1.3-.2l-.2-.1c-.1 0-.2.1-.3.2l.2.1z"/><path id="XMLID_557_" class="st0" d="M24.8 819.4z"/><path id="XMLID_556_" class="st0" d="M21 822.4c.1 0 .2-.1.3-.2l-.2-.2c-.1.1-.2.1-.3.2l.2.2z"/><path id="XMLID_555_" class="st0" d="M25.4 820.2s.2-.1.3-.1c-.1-.1-.1-.1-.4-.3h-.1c.1.2.1.3.2.4z"/><path id="XMLID_554_" class="st0" d="M25 819.7c-.1 0-.2-.1-.3-.2l.3.2.3.1h.1c-.1-.1-.2-.1-.4-.1 0-.1-.1-.1-.2-.2.1 0 .1 0 .2.2z"/><path id="XMLID_553_" class="st0" d="M20.8 832.5c.1 0 .2-.1.3-.2l-.2-.2c-.1.1-.2.1-.3.2l.2.2z"/><path id="XMLID_552_" class="st0" d="M24.7 823.7l.2-.2c-.1 0-.2-.1-.3-.1l-.2.2c.1 0 .2.1.3.1z"/><path id="XMLID_551_" class="st0" d="M19.7 829.1l.3.3.1-.1.2.1h.1c-.1-.1-.2-.1-.3-.2l-.1.1c-.1-.1-.2-.1-.3-.2z"/><path id="XMLID_550_" class="st0" d="M23.7 824.3l.1-.2c0-.1-.1-.2-.2-.3l-.1.2c0 .1.1.2.2.3z"/><path id="XMLID_549_" class="st0" d="M20.1 829.2c-.1-.1-.1-.2-.3-.3.1.1 0 .1.3.3z"/><path id="XMLID_548_" class="st0" d="M21.7 828.1c.1-.1.1-.2.2-.3l-.2-.2c0 .1-.1.2-.1.3l.1.2z"/><path id="XMLID_547_" class="st0" d="M20.4 829.8s.2-.1.3-.1c-.1-.1-.1-.1-.4-.3h-.1c0 .1.1.3.2.4z"/><path id="XMLID_546_" class="st0" d="M23.4 574.5l.2-.2c-.1-.1-.1-.2-.2-.3l-.1.2c0 .1 0 .2.1.3z"/><path id="XMLID_545_" class="st0" d="M24.8 574.9c.1 0 .2-.1.3-.2l-.2-.2c-.1.1-.2.1-.3.2l.2.2z"/><path id="XMLID_544_" class="st0" d="M22.2 550c0-.1.1-.2.1-.3l-.2-.2c-.1.1-.1.2-.2.3l.3.2z"/><path id="XMLID_543_" class="st0" d="M27.4 575.3l.1-.2c0-.1-.1-.2-.2-.3l-.2.2c.2.1.3.2.3.3z"/><path id="XMLID_542_" class="st0" d="M29.8 541.8l.2-.2c-.1-.1-.1-.2-.2-.3l-.1.2c-.1.1 0 .2.1.3z"/><path id="XMLID_541_" class="st0" d="M21.7 549.1c.1-.1.1-.2.2-.3l-.2-.2c0 .1-.1.2-.1.3l.1.2z"/><path id="XMLID_540_" class="st0" d="M25.7 578.7l.1-.2s-.1 0-.1.2z"/><path id="XMLID_539_" class="st0" d="M22.3 583.4l.6-.9c-.1 0-.3-.1-.6-.2-.1.2-.2.5-.2.7s.1.3.2.4z"/><path id="XMLID_538_" class="st0" d="M24.4 581l.2.2c.5 0 1.1 0 1.4-.5v-.4c-.1 0-.2-.1-.3-.1-.4.2-.8.3-1.2.5 0 0-.1.2-.1.3z"/><path id="XMLID_537_" class="st0" d="M20.6 579.1c0 .1-.1.2-.1.3l.2.2c.1-.1.1-.2.2-.3l-.3-.2z"/><path id="XMLID_536_" class="st0" d="M22.8 469.6c.1-.1.1-.2.2-.3l-.2-.2c0 .1-.1.2-.1.3l.1.2z"/><path id="XMLID_535_" class="st0" d="M24.7 578.6c0-.1-.1-.1-.2-.1-.2-.1-.5.2-.7.3l.2.6c.3 0 .5 0 .9-.3l-.3-.3c.1-.1.1-.1.1-.2z"/><path id="XMLID_534_" class="st0" d="M21.2 484.3l-.7.7c.2.1.5.3.6.2.2-.2.3-.5.3-.7l-.2-.2z"/><path id="XMLID_533_" class="st0" d="M23.8 477.5s.1 0 .1-.1v-.2c-.1 0-.2.1-.3.2l.2.1z"/><path id="XMLID_532_" class="st0" d="M22.7 485.1c.1-.1.2-.3.2-.4 0-.2-.2-.4-.3-.6-.1.1-.2.3-.3.4.2.2.3.4.4.6z"/><path id="XMLID_531_" class="st0" d="M23.9 474.5c0-.1.1-.1.1-.2v-.3l-.3-.3c-.1.1-.1.3-.2.7 0 0 .2.1.4.1z"/><path id="XMLID_530_" class="st0" d="M25.5 583.3c.2 0 .3-.2.4-.3-.1 0-.3-.1-.7-.2 0 .1-.1.3-.2.4.3 0 .4.1.5.1z"/><path id="XMLID_529_" class="st0" d="M19.3 491.3c.1-.1.2-.1.3-.2l-.2-.1c-.1 0-.2.1-.3.2l.2.1z"/><path id="XMLID_528_" class="st0" d="M21.2 508.9l.2-.2c-.1 0-.2-.1-.3-.1l-.2.2c.1 0 .2.1.3.1z"/><path id="XMLID_527_" class="st0" d="M19.6 495.2l.2-.2c-.1-.1-.2-.1-.3-.2l-.2.2c.1.1.2.2.3.2z"/><path id="XMLID_526_" class="st0" d="M22.5 489.2c.4.1.5.2.7.3h.5v-.1c-.3-.1-.7-.1-1.2-.2z"/><path id="XMLID_525_" class="st0" d="M24 489.9v-.4c-.1.1-.2.1-.3.2.1 0 .2.1.3.2z"/><path id="XMLID_524_" class="st0" d="M24 489.4v-.2c-.2 0-.4-.1-.5-.1l.1.2c.2.1.3.1.4.1z"/><path id="XMLID_523_" class="st0" d="M23.5 489.2l-.2-.2c-.1 0-.3 0 .2.2z"/><path id="XMLID_522_" class="st0" d="M20.4 603.6c.4.2.6.3.7.3h.5v-.1c.1 0 .2.1.3.1v-.2c-.2 0-.4-.1-.5-.1l.1.2c-.3-.1-.7-.1-1.1-.2z"/><path id="XMLID_521_" class="st0" d="M21.9 604.4v-.4c-.1.1-.2.1-.3.2.1 0 .2.1.3.2z"/><path id="XMLID_520_" class="st0" d="M19.3 624.2c.1-.1.2-.1.3-.2l-.2-.1c-.1 0-.2.1-.3.2l.2.1z"/><path id="XMLID_519_" class="st0" d="M22.8 602.5c.1-.1.1-.2.2-.3l-.2-.2c0 .1-.1.2-.1.3l.1.2z"/><path id="XMLID_518_" class="st0" d="M21.4 603.7l-.2-.2c-.1-.1-.3 0 .2.2z"/><path id="XMLID_517_" class="st0" d="M19.6 628.1l.2-.2c-.1-.1-.2-.1-.3-.2l-.2.2c.1.1.2.2.3.2z"/><path id="XMLID_516_" class="st0" d="M22 599.3l.2-.2c-.1 0-.2-.1-.3-.1l-.2.2c.1 0 .2.1.3.1z"/><path id="XMLID_515_" class="st0" d="M22.2 682.9c0-.1.1-.2.1-.3l-.2-.2c-.1.1-.1.2-.2.3l.3.2z"/><path id="XMLID_514_" class="st0" d="M20.7 688.2c-.1 0-.2-.1-.4-.1l-.2.3c.3-.1.5-.2.6-.2z"/><path id="XMLID_513_" class="st0" d="M21.7 682c.1-.1.1-.2.2-.3l-.2-.2c0 .1-.1.2-.1.3l.1.2z"/><path id="XMLID_512_" class="st0" d="M21.2 641.8l.2-.2c-.1 0-.2-.1-.3-.1l-.2.2c.1 0 .2.1.3.1z"/><path id="XMLID_511_" class="st0" d="M29.8 674.7l.2-.2c-.1-.1-.1-.2-.2-.3l-.1.2c-.1.1 0 .2.1.3z"/><path id="XMLID_510_" class="st0" d="M24.8 585.8z"/><path id="XMLID_509_" class="st0" d="M23.5 586.8c.1-.1.2-.3.3-.5-.2-.2-.4-.4-.6-.5-.1 0-.3.1-.4.2.2.3.5.5.7.8z"/><path id="XMLID_508_" class="st0" d="M21 588.8c.1 0 .2-.1.3-.2l-.2-.2c-.1.1-.2.1-.3.2l.2.2z"/><path id="XMLID_507_" class="st0" d="M25.4 586.6s.2-.1.3-.1c-.1-.1-.1-.1-.4-.3h-.1c.1.2.1.3.2.4z"/><path id="XMLID_506_" class="st0" d="M25 586c-.1 0-.2-.1-.3-.2l.3.2.3.1h.1c-.1 0-.2 0-.4-.1 0-.1-.1-.1-.2-.2l.2.2z"/><path id="XMLID_505_" class="st0" d="M20.8 598.9c.1 0 .2-.1.3-.2l-.2-.2c-.1.1-.2.1-.3.2l.2.2z"/><path id="XMLID_504_" class="st0" d="M24.7 590.1l.2-.2c-.1 0-.2-.1-.3-.1l-.2.2c.1 0 .2.1.3.1z"/><path id="XMLID_503_" class="st0" d="M19.7 595.5l.3.3.1-.1.2.1h.1c-.1-.1-.2-.1-.3-.2l-.1.1c-.1-.1-.2-.1-.3-.2z"/><path id="XMLID_502_" class="st0" d="M20.4 596.2s.2-.1.3-.1c-.1-.1-.1-.1-.4-.3h-.1c0 .1.1.3.2.4z"/><path id="XMLID_501_" class="st0" d="M21.7 594.5c.1-.1.1-.2.2-.3l-.2-.2c0 .1-.1.2-.1.3l.1.2z"/><path id="XMLID_500_" class="st0" d="M23.7 590.7l.1-.2c0-.1-.1-.2-.2-.3l-.1.2c0 .1.1.2.2.3z"/><path id="XMLID_499_" class="st0" d="M20.1 595.6c-.1-.1-.1-.2-.3-.3.1.1 0 .1.3.3z"/><path id="XMLID_498_" class="st0" d="M25.4 578.6l-.1.2c.1.1.2.2.3.2 0-.1.1-.2.1-.3l-.1.1-.2-.2z"/><path id="XMLID_497_" class="st0" d="M23.4 340.9l.2-.2c-.1-.1-.1-.2-.2-.3l-.1.2c0 .1 0 .2.1.3z"/><path id="XMLID_496_" class="st0" d="M21.2 275.3l.2-.2c-.1 0-.2-.1-.3-.1l-.2.2c.1 0 .2.1.3.1z"/><path id="XMLID_495_" class="st0" d="M27.4 341.7l.1-.2c0-.1-.1-.2-.2-.3l-.2.2c.2.1.3.2.3.3z"/><path id="XMLID_494_" class="st0" d="M24.8 341.3c.1 0 .2-.1.3-.2l-.2-.2c-.1.1-.2.1-.3.2l.2.2z"/><path id="XMLID_493_" class="st0" d="M29.8 308.2l.2-.2c-.1-.1-.1-.2-.2-.3l-.1.2c-.1.1 0 .2.1.3z"/><path id="XMLID_492_" class="st0" d="M21.7 315.5c.1-.1.1-.2.2-.3l-.2-.2c0 .1-.1.2-.1.3l.1.2z"/><path id="XMLID_491_" class="st0" d="M22.2 316.4c0-.1.1-.2.1-.3l-.2-.2c-.1.1-.1.2-.2.3l.3.2z"/><path id="XMLID_490_" class="st0" d="M24.7 345c0-.1-.1-.1-.2-.1-.2-.1-.5.2-.7.3l.2.6c.3 0 .5 0 .9-.3l-.3-.3c.1-.1.1-.1.1-.2z"/><path id="XMLID_489_" class="st0" d="M24.4 347.4l.2.2c.5 0 1.1 0 1.4-.5v-.4c-.1 0-.2-.1-.3-.1-.4.2-.8.3-1.2.5 0 0-.1.2-.1.3z"/><path id="XMLID_488_" class="st0" d="M22.3 349.8l.6-.9c-.1 0-.3-.1-.6-.2-.1.2-.2.5-.2.7 0 .2.1.3.2.4z"/><path id="XMLID_487_" class="st0" d="M25.6 345.2l-.2-.2-.1.2c.1.1.2.2.3.2 0-.1.1-.2.1-.3l-.1.1z"/><path id="XMLID_486_" class="st0" d="M20.6 345.5c0 .1-.1.2-.1.3l.2.2c.1-.1.1-.2.2-.3l-.3-.2z"/><path id="XMLID_485_" class="st0" d="M25.7 345.1l.1-.2s-.1 0-.1.2z"/><path id="XMLID_484_" class="st0" d="M23.8 243.9s.1 0 .1-.1v-.2c-.1 0-.2.1-.3.2l.2.1z"/><path id="XMLID_483_" class="st0" d="M21.2 250.7l-.7.7c.2.1.5.3.6.2.2-.2.3-.5.3-.7l-.2-.2z"/><path id="XMLID_482_" class="st0" d="M22.7 251.5c.1-.1.2-.3.2-.4 0-.2-.2-.4-.3-.6-.1.1-.2.3-.3.4.2.2.3.4.4.6z"/><path id="XMLID_481_" class="st0" d="M23.9 240.9c0-.1.1-.1.1-.2v-.3l-.3-.3c-.1.1-.1.3-.2.7 0 0 .2.1.4.1z"/><path id="XMLID_480_" class="st0" d="M22.8 236c.1-.1.1-.2.2-.3l-.2-.2c0 .1-.1.2-.1.3l.1.2z"/><path id="XMLID_479_" class="st0" d="M22.2 449.3c0-.1.1-.2.1-.3l-.2-.2c-.1.1-.1.2-.2.3l.3.2z"/><path id="XMLID_478_" class="st0" d="M19.6 261.6l.2-.2c-.1-.1-.2-.1-.3-.2l-.2.2c.1.1.2.2.3.2z"/><path id="XMLID_477_" class="st0" d="M19.3 257.7c.1-.1.2-.1.3-.2l-.2-.1c-.1 0-.2.1-.3.2l.2.1z"/><path id="XMLID_476_" class="st0" d="M24 256.3v-.4c-.1.1-.2.1-.3.2.1 0 .2.1.3.2z"/><path id="XMLID_475_" class="st0" d="M22.5 255.6c.4.1.5.2.7.3h.5v-.1c-.3-.1-.7-.1-1.2-.2z"/><path id="XMLID_474_" class="st0" d="M24 255.8v-.2c-.2 0-.4-.1-.5-.1l.1.2c.2.1.3.1.4.1z"/><path id="XMLID_473_" class="st0" d="M23.5 255.6l-.2-.2c-.1 0-.3 0 .2.2z"/><path id="XMLID_472_" class="st0" d="M20.1 362c-.1-.1-.1-.2-.3-.3.1.1 0 .1.3.3z"/><path id="XMLID_471_" class="st0" d="M21.4 370.1l-.2-.2c-.1-.1-.3 0 .2.2z"/><path id="XMLID_470_" class="st0" d="M20.7 454.6c-.1 0-.2-.1-.4-.1l-.2.3c.3-.1.5-.2.6-.2z"/><path id="XMLID_469_" class="st0" d="M22.8 368.9c.1-.1.1-.2.2-.3l-.2-.2c0 .1-.1.2-.1.3l.1.2z"/><path id="XMLID_468_" class="st0" d="M21.9 370.8v-.4c-.1.1-.2.1-.3.2.1 0 .2.1.3.2z"/><path id="XMLID_467_" class="st0" d="M22 365.7l.2-.2c-.1 0-.2-.1-.3-.1l-.2.2c.1 0 .2.1.3.1z"/><path id="XMLID_466_" class="st0" d="M20.8 365.3c.1 0 .2-.1.3-.2l-.2-.2c-.1.1-.2.1-.3.2l.2.2z"/><path id="XMLID_465_" class="st0" d="M29.8 441.1l.2-.2c-.1-.1-.1-.2-.2-.3l-.1.2c-.1.1 0 .2.1.3z"/><path id="XMLID_464_" class="st0" d="M21.7 448.4c.1-.1.1-.2.2-.3l-.2-.2c0 .1-.1.2-.1.3l.1.2z"/><path id="XMLID_463_" class="st0" d="M19.3 390.6c.1-.1.2-.1.3-.2l-.2-.1c-.1 0-.2.1-.3.2l.2.1z"/><path id="XMLID_462_" class="st0" d="M21.2 408.2l.2-.2c-.1 0-.2-.1-.3-.1l-.2.2c.1 0 .2.1.3.1z"/><path id="XMLID_461_" class="st0" d="M19.6 394.5l.2-.2c-.1-.1-.2-.1-.3-.2l-.2.2c.1.1.2.2.3.2z"/><path id="XMLID_460_" class="st0" d="M20.4 370c.4.2.6.3.7.3h.5v-.1c.1 0 .2.1.3.1v-.2c-.2 0-.4-.1-.5-.1l.1.2c-.3-.1-.7-.1-1.1-.2z"/><path id="XMLID_459_" class="st0" d="M24.8 352.2z"/><path id="XMLID_458_" class="st0" d="M21 355.2c.1 0 .2-.1.3-.2l-.2-.2c-.1.1-.2.1-.3.2l.2.2z"/><path id="XMLID_457_" class="st0" d="M25.4 353s.2-.1.3-.1c-.1-.1-.1-.1-.4-.3h-.1c.1.2.1.3.2.4z"/><path id="XMLID_456_" class="st0" d="M23.5 353.2c.1-.1.2-.3.3-.5-.2-.2-.4-.4-.6-.5-.1 0-.3.1-.4.2.2.3.5.5.7.8z"/><path id="XMLID_455_" class="st0" d="M25 352.5c-.1 0-.2-.1-.3-.2l.3.3v-.1l.3.1h.1c-.1-.1-.2-.1-.4-.1 0-.1-.1-.1-.2-.2.1 0 .1.1.2.2z"/><path id="XMLID_454_" class="st0" d="M25.5 349.7c.2 0 .3-.2.4-.3-.1 0-.3-.1-.7-.2 0 .1-.1.3-.2.4.3 0 .4.1.5.1z"/><path id="XMLID_453_" class="st0" d="M20.4 362.6s.2-.1.3-.1c-.1-.1-.1-.1-.4-.3h-.1c0 .1.1.3.2.4z"/><path id="XMLID_452_" class="st0" d="M19.7 361.9l.3.3.1-.1.2.1h.1c-.1-.1-.2-.1-.3-.2l-.1.1c-.1 0-.2-.1-.3-.2z"/><path id="XMLID_451_" class="st0" d="M24.7 356.5l.2-.2c-.1 0-.2-.1-.3-.1l-.2.2c.1 0 .2.1.3.1z"/><path id="XMLID_450_" class="st0" d="M23.7 357.1l.1-.2c0-.1-.1-.2-.2-.3l-.1.2c0 .1.1.2.2.3z"/><path id="XMLID_449_" class="st0" d="M21.7 360.9c.1-.1.1-.2.2-.3l-.2-.2c0 .1-.1.2-.1.3l.1.2z"/><path id="XMLID_448_" class="st0" d="M21.2 41.7l.2-.2c-.1 0-.2-.1-.3-.1l-.2.2c.1 0 .2.1.3.1z"/><path id="XMLID_447_" class="st0" d="M23.4 107.3l.2-.2c-.1-.1-.1-.2-.2-.3l-.1.2c0 .1 0 .2.1.3z"/><path id="XMLID_446_" class="st0" d="M29.8 74.6l.2-.2c-.1-.1-.1-.2-.2-.3l-.1.2c-.1.1 0 .2.1.3z"/><path id="XMLID_445_" class="st0" d="M21.7 81.9c.1-.1.1-.2.2-.3l-.2-.2c0 .1-.1.2-.1.3l.1.2z"/><path id="XMLID_444_" class="st0" d="M22.2 82.8c0-.1.1-.2.1-.3l-.2-.2c-.1.1-.1.2-.2.3l.3.2z"/><path id="XMLID_443_" class="st0" d="M24.8 107.7c.1 0 .2-.1.3-.2l-.2-.2c-.1.1-.2.1-.3.2l.2.2z"/><path id="XMLID_442_" class="st0" d="M24.7 111.4c0-.1-.1-.1-.2-.1-.2-.1-.5.2-.7.3l.2.6c.3 0 .5 0 .9-.3l-.3-.3c.1-.1.1-.1.1-.2z"/><path id="XMLID_441_" class="st0" d="M20.6 111.9c0 .1-.1.2-.1.3l.2.2c.1-.1.1-.2.2-.3l-.3-.2z"/><path id="XMLID_440_" class="st0" d="M24.4 113.8l.2.2c.5 0 1.1 0 1.4-.5v-.4c-.1 0-.2-.1-.3-.1-.4.2-.8.3-1.2.5 0 0-.1.2-.1.3z"/><path id="XMLID_439_" class="st0" d="M25.4 111.4l-.1.2c.1.1.2.2.3.2 0-.1.1-.2.1-.3l-.1.1-.2-.2z"/><path id="XMLID_438_" class="st0" d="M25.7 111.5l.1-.2s-.1 0-.1.2z"/><path id="XMLID_437_" class="st0" d="M27.4 108.1l.1-.2c0-.1-.1-.2-.2-.3l-.2.2c.2.1.3.2.3.3z"/><path id="XMLID_436_" class="st0" d="M21.2 17.1l-.7.7c.2.1.5.3.6.2.2-.2.3-.5.3-.7l-.2-.2z"/><path id="XMLID_435_" class="st0" d="M22.8 2.4c.1-.1.1-.2.2-.3l-.2-.2c0 .1-.1.2-.1.3l.1.2z"/><path id="XMLID_434_" class="st0" d="M23.9 7.3c0-.1.1-.1.1-.2v-.3l-.3-.3c-.1.1-.1.3-.2.7 0 0 .2.1.4.1z"/><path id="XMLID_433_" class="st0" d="M13.1.6c.1 0 .1-.1.1-.1-.1 0-.1 0-.1.1z"/><path id="XMLID_432_" class="st0" d="M22.3 116.2l.6-.9c-.1 0-.3-.1-.6-.2-.1.2-.2.5-.2.7s.1.3.2.4z"/><path id="XMLID_431_" class="st0" d="M23.8 10.3s.1 0 .1-.1V10c-.1 0-.2.1-.3.2l.2.1z"/><path id="XMLID_36_" class="st1" d="M13.1.6H0v64.5l.2-.2h.1c0 .1-.1.1-.2.2 0 .1-.1 0-.1 0v25.7l.2.2c-.1 0-.1.1-.2.1V298.7l.2-.2h.1c0 .1-.1.1-.2.2 0 .1-.1 0-.1 0v25.7l.2.2c-.1 0-.1.1-.2.1V532.3l.2-.2h.1c0 .1-.1.1-.2.2 0 .1-.1 0-.1 0V558l.2.2c-.1 0-.1.1-.2.1V765.9l.2-.2h.1c0 .1-.1.1-.2.2 0 .1-.1 0-.1 0v25.7l.2.2c-.1 0-.1.1-.2.1v143.3h8.2c0-.2 0-.3.1-.3 0 .1 0 .2-.1.3h11.7c0-.4-.3-.9-.4-1.3.7 0 .7-.6 1-1 .2-.3.3-.5-.2-.5-.8 0-1.6 0-1.7 1.1h-.2c-.5-1.3.6-1.6 1.3-2 .2-.1.3-.2.5-.3-.3-.2-.5-.3-.8-.3h-.1l.1.4c-.1 0-.2-.1-.3-.1 0-.1.1-.2.1-.3-.5 0-.7-.2-.5-.8s.4-1.1.6-1.7c.1-.2.2-.6.2-.6-1-.6-.2-1.2-.1-1.8.1-.3 0-.7 0-1-.1-.5 0-.8.4-1.1.4-.4.9-.9-.2-.9l-.2-.6c-.2 0 .1-.1 0-.2-.2-.2.4-.4.4-.8h-.5c.5-.2.9-.4 1.5-.5 0-.1-.1-.1-.1-.3-.7-1-.7-1.4.1-2.2.1-.2.4-.2.6-.3l.3-.3c-.1-.1-.3-.2-.4-.2-1.2-.3-1.2-.3-.7-1.1.3-.5.3-.4-.6-.9-.4-.2-.7-.9-.6-1.3.2-.7.2-1.3-.1-2-.3-.6-.5-3.4-.5-4.1 0-.5 1.5-1.3 1.2-1.6-.6-.6.5-.8.2-1.2-.8-1-.5-2.1-.7-3.2-.1-.7-.3-1.6-.5-2.1h.1c.5-.5.2-1.7.1-2.4-.2-1.1.6-2.1-.1-3.2-.1-.1.1-.5.2-.6.8-.7.3-1.2-.5-1.9-.7-.6.1-.5.3-.5.8 0 1.1-.3.5-1-.1-.1-.2-.3-.2-.3.2-.5.7-1.4.6-1.5-.6-.6-1.5-1-1.4-1.4.2-.6-.3-1.3.3-1.8.1-.1-.2-.6-.3-1-.2-.4-.2-.8.4-.8.5-.1.4-.3.1-.6-.4-.3-.4-.7.1-.9l.6-.3c-.1-.1-.3-.2-.4-.2-.4-.2-.9-.3-1.3-.4-.1 0-.2-.2-.2-.3.1-.1.3-.2.4-.2.7 0 1.5 0 .7-1.1-.1-.1.1-.5.2-.7.2-.3.9-.5-.2-.8-.7-.2-.5-1.6.2-2.4.2-.2-.7-.6-.8-.8-.4-.8-.4-.7.1-1.2.3-.2.6-.5.9-.8.2-.2.3-.4.4-.5-.2-.1-.4-.1-.7-.2-.3 0-.7.1-1 0-.1 0-.3-.4-.3-.6 0-.1.1-.4.2-.4.3-.1.7 0 1-.1.4-.1.8-.1 1.2-.2-.3-.6-.8-.1-1.2-.3-.3-.1-.5-.2-.7-.4-.1-.1.1-.4.3-.6s.5-.3.8-.5c.2-.1.4-.5.3-.5-.2-.2-.4-.3-.7-.4-.1-.1-.4.1-.5 0-.2-.1-.3-.3-.3-.5s.3-.4.4-.4c.7-.1 1.4 0 .4-.9-.3-.3-.3-.8-.5-1.3.2 0 .3-.1.5-.1h.5c-.1-.2-.1-.5-.2-.6-.6-.5-.9-1.7-.6-2.5.2-.6.3-.9-.4-.9-.5-.1-.5-.3-.1-.5.3-.1.6-.3.8-.5.3-.3.3-.5-.2-.5-.3-.1-.6-.3-.8-.5v-.4c1-.1.6-.4.2-.8.8-.3-.2-1 .3-1.5.2-.2-.3-.9-.4-1.4 0-.4.1-.9.2-1.4.2-.7.2-1.6.1-2.5-.1-.5-.2-1 .6-1v-.4c-.4-.3-.3-.6-.1-1 .2-.3 1.5-.9-.1-1-.1-.8-.3-1.6-.2-2.4 0-.4.5-.7.8-1 .4-.4.4-.3.1-.5-.3-.1-.5-.3-.8-.4-.6-.3-.6-.5-.1-.9.3-.2.5-.4.8-.6.3-.1.9.2.9-.4 0-.2-.3-.4-.5-.6-.4-.2-.9-.3-1.3-.4-.2-.1-.4-.1-.7-.2l.6-.3c.2-.1.5 0 .7 0 1.2-.1.2-.5.1-.8-.2-.4-.3-.9-.5-1.3-.3-.6-.1-.9.6-.9.3 0 .7.1 1-.1.3-.1.5-.4.7-.7-.2-.1-.5-.2-.7-.3h-.7c-.5 0-1 .2-1-.6 0-.6.2-.9.8-.9.2 0 .4-.2.6-.2-.2-.1-.4-.2-.6-.2h-1c-.1 0-.3-.1-.4-.2.1-.1.2-.2.4-.3.7-.1 1.5-.1 2.2-.1.1 0 .2-.2.3-.3l-.2-.2c-.5.4-.8-.9-1.4-.2-.4.4-.7.2-1-.1-.1-.1-.2-.2-.4-.3.1-.1.2-.3.3-.3.4-.1.8 0 1.2-.1.1 0 .3-.2.4-.2-.2-.1-.4-.2-.6-.2-.5-.2-.5-.5-.2-.9.5-.6.5-1-.4-1l-.1-.4c.3-.2.6-.5 1-.5.6-.1 1.3-.1 2-.1l.2-.2c-.1-.1-.2-.3-.2-.3-1.2.4-1.9-.6-2.9-.9-.1 0-.2-.2-.4-.2.1-.1.2-.2.4-.2s.5 0 .7-.1c.4-.1.8-.2 1.3-.3l-1.2-.6c-.2-.1-.4-.2-.7-.3.9-.6-.6-.9-.1-1.3s1.1-.7 1.5.1c-.6 0-.6.5-.4.8.4.4.8.4.9-.3h.5c.1 0 .3-.1.4-.2-.1-.1-.3-.2-.4-.3h-.5c-.5-.2 1.4-1-.2-1-.5 0-1 .1-1.5.1-.1 0-.2-.2-.4-.2.1-.1.2-.2.4-.2.4-.1.7-.2 1.1-.3.2-.1.3-.3.4-.5-.2-.1-.4-.1-.7-.2-.3-.1-.5-.2-.7-.3.2-.2.4-.7.7-.7.6 0 .1-.6-.6-.6v-.3c.1-.1.3-.1.5-.1.4 0 .9 0 .8-.6 0-.2-.5-.3-.7-.4-.2-.1-.5-.1-.7-.1.6-.9-.3-1.1-.7-1.5.2-.1.5-.3.6-.3.5.3 1 .6 1.6.4.3-.1.5-.4.7-.7-.2-.1-.5-.3-.7-.3-.4 0-.8.1-1.2 0-.3 0-1 .3-.8-.3.2-.3-.1-1.3.8-1.2h.7c.2.1.5.6.7.1s-.1-.7-.7-.7c-.2 0-.4.1-.5 0-.3-.3-.6-.7-.8-1.1 0-.1.5-.4.8-.5l.6-.3c.1-.1.3-.2.4-.2-.2-.1-.4-.2-.6-.2s-.5.1-.7-.1c-.2-.1-.2-.4-.2-.6h.5c.3-.1.6-.3.9-.4-.1-.1-.3-.2-.4-.3h-.2c-1.7-.7-1.7-.8-.2-1.9l.3-.3c-.1-.1-.3-.2-.4-.2-.2 0-.4.1-.5 0-.2-.1-.4-.3-.6-.5l.4-.4c.1-.1.3 0 .5 0 .2-.1.5-.2.5-.4s-.1-.5-.3-.6-.4-.1-.7-.2c.2-.1.3-.3.5-.3.2-.1.6 0 .7-.1.2-.2.4-.6.5-.9-.3.1-.6.2-.8.2s-.3 0-.5-.1c.1-.2.1-.6.2-.6.3-.1.6-.1 1-.1v-.5c-.8.1-.7-.1-.4-.7.2-.4-.2-1.1-.3-1.6.7 0 .7-.6 1-1 .2-.3.3-.5-.2-.5-.8 0-1.6 0-1.7 1.1h-.2c-.5-1.3.6-1.6 1.3-2 .2-.1.3-.2.5-.3-.2-.1-.5-.2-.7-.1-.6.1-.9-.1-.7-.8.2-.6.4-1.1.6-1.7.1-.2.2-.6.2-.6-1-.6-.2-1.2-.1-1.8.1-.3 0-.7 0-1-.1-.5 0-.8.4-1.1.4-.4.9-.9-.2-.9l-.2-.6c.2-.2.5-.2.8-.4l.6-.3c-.2-.1-.4-.1-.6-.2-.5-.2-.4-.4 0-.5.1-.1.1-.2-.3-.3 0-.1-.1-.2 0-.4.3.2.6.3.8.5 0-.1-.1-.1-.1-.2-.7-1-.7-1.4.1-2.2.1-.2.4-.2.6-.3l.3-.3c-.1-.1-.3-.2-.4-.2-1.2-.3-1.2-.3-.7-1.1.3-.5.3-.4-.6-.9-.4-.2-.7-.9-.6-1.3.2-.7.2-1.3-.1-2-.3-.6-.5-3.4-.5-4.1 0-.5 1.5-1.3 1.2-1.6-.6-.6.5-.8.2-1.2-.8-1-.5-2.1-.7-3.2-.1-.7-.3-1.6-.5-2.1h.1c.5-.5.2-1.7.1-2.4-.2-1.1.6-2.1-.1-3.2-.1-.1.1-.5.2-.6.8-.7.3-1.2-.5-1.9-.7-.6.1-.5.3-.5.8 0 1.1-.3.5-1-.1-.1-.2-.3-.2-.3.2-.5.7-1.4.6-1.5-.6-.6-1.5-1-1.4-1.4.2-.6-.3-1.3.3-1.8.1-.1-.2-.6-.3-1-.2-.4-.2-.8.4-.8.5-.1.4-.3.1-.6-.4-.3-.4-.7.1-.9l.6-.3c-.1-.1-.3-.2-.4-.2-.4-.2-.9-.3-1.3-.4-.1 0-.2-.2-.2-.3.1-.1.3-.2.4-.2.7 0 1.5 0 .7-1.1-.1-.1.1-.5.2-.7.2-.3.9-.5-.2-.8-.7-.2-.5-1.6.2-2.4.2-.2-.7-.6-.8-.8-.4-.8-.4-.7.1-1.2.3-.2.6-.5.9-.8.2-.2.3-.4.4-.5-.2-.1-.4-.1-.7-.2-.3 0-.7.1-1 0-.1 0-.3-.4-.3-.6 0-.1.1-.4.2-.4.3-.1.7 0 1-.1.4-.1.8-.1 1.2-.2-.3-.6-.8-.1-1.2-.3-.3-.1-.5-.2-.7-.4-.1-.1.1-.4.3-.6s.5-.3.8-.5c.2-.1.4-.5.3-.5-.2-.2-.4-.3-.7-.4-.1-.1-.4.1-.5 0-.2-.1-.3-.3-.3-.5s.3-.4.4-.4c.7-.1 1.4 0 .4-.9-.3-.3-.3-.8-.5-1.3.2 0 .3-.1.5-.1h.5c-.1-.2-.1-.5-.2-.6-.6-.5-.9-1.7-.6-2.5.2-.6.3-.9-.4-.9-.5-.1-.5-.3-.1-.5.3-.1.6-.3.8-.5.3-.3.3-.5-.2-.5-.3-.1-.6-.3-.8-.5v-.4c1-.1.6-.4.2-.8.8-.3-.2-1 .3-1.5.2-.2-.3-.9-.4-1.4 0-.4.1-.9.2-1.4.2-.7.2-1.6.1-2.5-.1-.5-.2-1 .6-1v-.4c-.4-.3-.3-.6-.1-1 .2-.3 1.5-.9-.1-1-.1-.8-.3-1.6-.2-2.4 0-.4.5-.7.8-1 .4-.4.4-.3.1-.5-.3-.1-.5-.3-.8-.4-.6-.3-.6-.5-.1-.9.3-.2.5-.4.8-.6.3-.1.9.2.9-.4 0-.2-.3-.4-.5-.6-.4-.2-.9-.3-1.3-.4-.2-.1-.4-.1-.7-.2l.6-.3c.2-.1.5 0 .7 0 1.2-.1.2-.5.1-.8-.2-.4-.3-.9-.5-1.3-.3-.6-.1-.9.6-.9.3 0 .7.1 1-.1.3-.1.5-.4.7-.7-.2-.1-.5-.2-.7-.3h-.7c-.5 0-1 .2-1-.6 0-.6.2-.9.8-.9.2 0 .4-.2.6-.2-.2-.1-.4-.2-.6-.2h-1c-.1 0-.3-.1-.4-.2h1.7c0-.4-.3-.9-.4-1.3.7 0 .7-.6 1-1 .2-.3.3-.5-.2-.5-.8 0-1.6 0-1.7 1.1h-.2c-.5-1.3.6-1.6 1.3-2 .2-.1.3-.2.5-.3-.3-.2-.5-.3-.8-.3h-.1l.1.4c-.1 0-.2-.1-.3-.1 0-.1.1-.2.1-.3-.5 0-.7-.2-.5-.8s.4-1.1.6-1.7c.1-.2.2-.6.2-.6-1-.6-.2-1.2-.1-1.8.1-.3 0-.7 0-1-.1-.5 0-.8.4-1.1.4-.4.9-.9-.2-.9l-.2-.6c-.2 0 .1-.1 0-.2-.2-.2.4-.4.4-.8h-.5c.5-.2.9-.4 1.5-.5 0-.1-.1-.1-.1-.3-.7-1-.7-1.4.1-2.2.1-.2.4-.2.6-.3l.3-.3c-.1-.1-.3-.2-.4-.2-1.2-.3-1.2-.3-.7-1.1.3-.5.3-.4-.6-.9-.4-.2-.7-.9-.6-1.3.2-.7.2-1.3-.1-2-.3-.6-.5-3.4-.5-4.1 0-.5 1.5-1.3 1.2-1.6-.6-.6.5-.8.2-1.2-.8-1-.5-2.1-.7-3.2-.1-.7-.3-1.6-.5-2.1h.1c.5-.5.2-1.7.1-2.4-.2-1.1.6-2.1-.1-3.2-.1-.1.1-.5.2-.6.8-.7.3-1.2-.5-1.9-.7-.6.1-.5.3-.5.8 0 1.1-.3.5-1-.1-.1-.2-.3-.2-.3.2-.5.7-1.4.6-1.5-.6-.6-1.5-1-1.4-1.4.2-.6-.3-1.3.3-1.8.1-.1-.2-.6-.3-1-.2-.4-.2-.8.4-.8.5-.1.4-.3.1-.6-.4-.3-.4-.7.1-.9l.6-.3c-.1-.1-.3-.2-.4-.2-.4-.2-.9-.3-1.3-.4-.1 0-.2-.2-.2-.3.1-.1.3-.2.4-.2.7 0 1.5 0 .7-1.1-.1-.1.1-.5.2-.7.2-.3.9-.5-.2-.8-.7-.2-.5-1.6.2-2.4.2-.2-.7-.6-.8-.8-.4-.8-.4-.7.1-1.2.3-.2.6-.5.9-.8.2-.2.3-.4.4-.5-.2-.1-.4-.1-.7-.2-.3 0-.7.1-1 0-.1 0-.3-.4-.3-.6 0-.1.1-.4.2-.4.3-.1.7 0 1-.1.4-.1.8-.1 1.2-.2-.3-.6-.8-.1-1.2-.3-.3-.1-.5-.2-.7-.4-.1-.1.1-.4.3-.6s.5-.3.8-.5c.2-.1.4-.5.3-.5-.2-.2-.4-.3-.7-.4-.1-.1-.4.1-.5 0-.2-.1-.3-.3-.3-.5s.3-.4.4-.4c.7-.1 1.4 0 .4-.9-.3-.3-.3-.8-.5-1.3.2 0 .3-.1.5-.1h.5c-.1-.2-.1-.5-.2-.6-.6-.5-.9-1.7-.6-2.5.2-.6.3-.9-.4-.9-.5-.1-.5-.3-.1-.5.3-.1.6-.3.8-.5.3-.3.3-.5-.2-.5-.3-.1-.6-.3-.8-.5v-.4c1-.1.6-.4.2-.8.8-.3-.2-1 .3-1.5.2-.2-.3-.9-.4-1.4 0-.4.1-.9.2-1.4.2-.7.2-1.6.1-2.5-.1-.5-.2-1 .6-1v-.4c-.4-.3-.3-.6-.1-1 .2-.3 1.5-.9-.1-1-.1-.8-.3-1.6-.2-2.4 0-.4.5-.7.8-1 .4-.4.4-.3.1-.5-.3-.1-.5-.3-.8-.4-.6-.3-.6-.5-.1-.9.3-.2.5-.4.8-.6.3-.1.9.2.9-.4 0-.2-.3-.4-.5-.6-.4-.2-.9-.3-1.3-.4-.2-.1-.4-.1-.7-.2l.6-.3c.2-.1.5 0 .7 0 1.2-.1.2-.5.1-.8-.2-.4-.3-.9-.5-1.3-.3-.6-.1-.9.6-.9.3 0 .7.1 1-.1.3-.1.5-.4.7-.7-.2-.1-.5-.2-.7-.3h-.7c-.5 0-1 .2-1-.6 0-.6.2-.9.8-.9.2 0 .4-.2.6-.2-.2-.1-.4-.2-.6-.2h-1c-.1 0-.3-.1-.4-.2.1-.1.2-.2.4-.3.7-.1 1.5-.1 2.2-.1.1 0 .2-.2.3-.3l-.2-.2c-.5.4-.8-.9-1.4-.2-.4.4-.7.2-1-.1-.1-.1-.2-.2-.4-.3.1-.1.2-.3.3-.3.4-.1.8 0 1.2-.1.1 0 .3-.2.4-.2-.2-.1-.4-.2-.6-.2-.5-.2-.5-.5-.2-.9.5-.6.5-1-.4-1l-.1-.4c.3-.2.6-.5 1-.5.6-.1 1.3-.1 2-.1l.2-.2c-.1-.1-.2-.3-.2-.3-1.2.4-1.9-.6-2.9-.9-.1 0-.2-.2-.4-.2.1-.1.2-.2.4-.2s.5 0 .7-.1c.4-.1.8-.2 1.3-.3l-1.2-.6c-.2-.1-.4-.2-.7-.3.9-.6-.6-.9-.1-1.3s1.1-.7 1.5.1c-.6 0-.6.5-.4.8.4.4.8.4.9-.3h.5c.1 0 .3-.1.4-.2-.1-.1-.3-.2-.4-.3h-.5c-.5-.2 1.4-1-.2-1-.5 0-1 .1-1.5.1-.1 0-.2-.2-.4-.2.1-.1.2-.2.4-.2.4-.1.7-.2 1.1-.3.2-.1.3-.3.4-.5-.2-.1-.4-.1-.7-.2-.3-.1-.5-.2-.7-.3.2-.2.4-.7.7-.7.6 0 .1-.6-.6-.6v-.3c.1-.1.3-.1.5-.1.4 0 .9 0 .8-.6 0-.2-.5-.3-.7-.4-.2-.1-.5-.1-.7-.1.6-.9-.3-1.1-.7-1.5.2-.1.5-.3.6-.3.5.3 1 .6 1.6.4.3-.1.5-.4.7-.7-.2-.1-.5-.3-.7-.3-.4 0-.8.1-1.2 0-.3 0-1 .3-.8-.3.2-.3-.1-1.3.8-1.2h.7c.2.1.5.6.7.1s-.1-.7-.7-.7c-.2 0-.4.1-.5 0-.3-.3-.6-.7-.8-1.1 0-.1.5-.4.8-.5l.6-.3c.1-.1.3-.2.4-.2-.2-.1-.4-.2-.6-.2-.2 0-.5.1-.7-.1-.2-.1-.2-.4-.2-.6h.5c.3-.1.6-.3.9-.4-.1-.1-.3-.2-.4-.3h-.2c-1.7-.7-1.7-.8-.2-1.9l.3-.3c-.1-.1-.3-.2-.4-.2-.2 0-.4.1-.5 0-.2-.1-.4-.3-.6-.5l.4-.4c.1-.1.3 0 .5 0 .2-.1.5-.2.5-.4s-.1-.5-.3-.6c-.2-.1-.4-.1-.7-.2.2-.1.3-.3.5-.3.2-.1.6 0 .7-.1.2-.2.4-.6.5-.9-.3.1-.6.2-.8.2s-.3 0-.5-.1c.1-.2.1-.6.2-.6.3-.1.6-.1 1-.1v-.5c-.8.1-.7-.1-.4-.7.2-.4-.2-1.1-.3-1.6.7 0 .7-.6 1-1 .2-.3.3-.5-.2-.5-.8 0-1.6 0-1.7 1.1h-.2c-.5-1.3.6-1.6 1.3-2 .2-.1.3-.2.5-.3-.2-.1-.5-.2-.7-.1-.6.1-.9-.1-.7-.8.2-.6.4-1.1.6-1.7.1-.2.2-.6.2-.6-1-.6-.2-1.2-.1-1.8.1-.3 0-.7 0-1-.1-.5 0-.8.4-1.1.4-.4.9-.9-.2-.9l-.2-.6c.2-.2.5-.2.8-.4l.6-.3c-.2-.1-.4-.1-.6-.2-.5-.2-.4-.4 0-.5.1-.1.1-.2-.3-.3 0-.1-.1-.2 0-.4.3.2.6.3.8.5 0-.1-.1-.1-.1-.2-.7-1-.7-1.4.1-2.2.1-.2.4-.2.6-.3l.3-.3c-.1-.1-.3-.2-.4-.2-1.2-.3-1.2-.3-.7-1.1.3-.5.3-.4-.6-.9-.4-.2-.7-.9-.6-1.3.2-.7.2-1.3-.1-2-.3-.6-.5-3.4-.5-4.1 0-.5 1.5-1.3 1.2-1.6-.6-.6.5-.8.2-1.2-.8-1-.5-2.1-.7-3.2-.1-.7-.3-1.6-.5-2.1h.1c.5-.5.2-1.7.1-2.4-.2-1.1.6-2.1-.1-3.2-.1-.1.1-.5.2-.6.8-.7.3-1.2-.5-1.9-.7-.6.1-.5.3-.5.8 0 1.1-.3.5-1-.1-.1-.2-.3-.2-.3.2-.5.7-1.4.6-1.5-.6-.6-1.5-1-1.4-1.4.2-.6-.3-1.3.3-1.8.1-.1-.2-.6-.3-1-.2-.4-.2-.8.4-.8.5-.1.4-.3.1-.6-.4-.3-.4-.7.1-.9l.6-.3c-.1-.1-.3-.2-.4-.2-.4-.2-.9-.3-1.3-.4-.1 0-.2-.2-.2-.3.1-.1.3-.2.4-.2.7 0 1.5 0 .7-1.1-.1-.1.1-.5.2-.7.2-.3.9-.5-.2-.8-.7-.2-.5-1.6.2-2.4.2-.2-.7-.6-.8-.8-.4-.8-.4-.7.1-1.2.3-.2.6-.5.9-.8.2-.2.3-.4.4-.5-.2-.1-.4-.1-.7-.2-.3 0-.7.1-1 0-.1 0-.3-.4-.3-.6 0-.1.1-.4.2-.4.3-.1.7 0 1-.1.4-.1.8-.1 1.2-.2-.3-.6-.8-.1-1.2-.3-.3-.1-.5-.2-.7-.4-.1-.1.1-.4.3-.6s.5-.3.8-.5c.2-.1.4-.5.3-.5-.2-.2-.4-.3-.7-.4-.1-.1-.4.1-.5 0-.2-.1-.3-.3-.3-.5s.3-.4.4-.4c.7-.1 1.4 0 .4-.9-.3-.3-.3-.8-.5-1.3.2 0 .3-.1.5-.1h.5c-.1-.2-.1-.5-.2-.6-.6-.5-.9-1.7-.6-2.5.2-.6.3-.9-.4-.9-.5-.1-.5-.3-.1-.5.3-.1.6-.3.8-.5.3-.3.3-.5-.2-.5-.3-.1-.6-.3-.8-.5v-.4c1-.1.6-.4.2-.8.8-.3-.2-1 .3-1.5.2-.2-.3-.9-.4-1.4 0-.4.1-.9.2-1.4.2-.7.2-1.6.1-2.5-.1-.5-.2-1 .6-1v-.4c-.4-.3-.3-.6-.1-1 .2-.3 1.5-.9-.1-1-.1-.8-.3-1.6-.2-2.4 0-.4.5-.7.8-1 .4-.4.4-.3.1-.5-.3-.1-.5-.3-.8-.4-.6-.3-.6-.5-.1-.9.3-.2.5-.4.8-.6.3-.1.9.2.9-.4 0-.2-.3-.4-.5-.6-.4-.2-.9-.3-1.3-.4-.2-.1-.4-.1-.7-.2l.6-.3c.2-.1.5 0 .7 0 1.2-.1.2-.5.1-.8-.2-.4-.3-.9-.5-1.3-.3-.6-.1-.9.6-.9.3 0 .7.1 1-.1.3-.1.5-.4.7-.7-.2-.1-.5-.2-.7-.3h-.7c-.5 0-1 .2-1-.6 0-.6.2-.9.8-.9.2 0 .4-.2.6-.2-.2-.1-.4-.2-.6-.2h-1c-.1 0-.3-.1-.4-.2h1.7c0-.4-.3-.9-.4-1.3.7 0 .7-.6 1-1 .2-.3.3-.5-.2-.5-.8 0-1.6 0-1.7 1.1h-.2c-.5-1.3.6-1.6 1.3-2 .2-.1.3-.2.5-.3-.3-.2-.5-.3-.8-.3h-.1l.1.4c-.1 0-.2-.1-.3-.1 0-.1.1-.2.1-.3-.5 0-.7-.2-.5-.8s.4-1.1.6-1.7c.1-.2.2-.6.2-.6-1-.6-.2-1.2-.1-1.8.1-.3 0-.7 0-1-.1-.5 0-.8.4-1.1.4-.4.9-.9-.2-.9l-.2-.6c-.2 0 .1-.1 0-.2-.2-.2.4-.4.4-.8h-.5c.5-.2.9-.4 1.5-.5 0-.1-.1-.1-.1-.3-.7-1-.7-1.4.1-2.2.1-.2.4-.2.6-.3l.3-.3c-.1-.1-.3-.2-.4-.2-1.2-.3-1.2-.3-.7-1.1.3-.5.3-.4-.6-.9-.4-.2-.7-.9-.6-1.3.2-.7.2-1.3-.1-2-.3-.6-.5-3.4-.5-4.1 0-.5 1.5-1.3 1.2-1.6-.6-.6.5-.8.2-1.2-.8-1-.5-2.1-.7-3.2-.1-.7-.3-1.6-.5-2.1h.1c.5-.5.2-1.7.1-2.4-.2-1.1.6-2.1-.1-3.2-.1-.1.1-.5.2-.6.8-.7.3-1.2-.5-1.9-.7-.6.1-.5.3-.5.8 0 1.1-.3.5-1-.1-.1-.2-.3-.2-.3.2-.5.7-1.4.6-1.5-.6-.6-1.5-1-1.4-1.4.2-.6-.3-1.3.3-1.8.1-.1-.2-.6-.3-1-.2-.4-.2-.8.4-.8.5-.1.4-.3.1-.6-.4-.3-.4-.7.1-.9l.6-.3c-.1-.1-.3-.2-.4-.2-.4-.2-.9-.3-1.3-.4-.1 0-.2-.2-.2-.3.1-.1.3-.2.4-.2.7 0 1.5 0 .7-1.1-.1-.1.1-.5.2-.7.2-.3.9-.5-.2-.8-.7-.2-.5-1.6.2-2.4.2-.2-.7-.6-.8-.8-.4-.8-.4-.7.1-1.2.3-.2.6-.5.9-.8.2-.2.3-.4.4-.5-.2-.1-.4-.1-.7-.2-.3 0-.7.1-1 0-.1 0-.3-.4-.3-.6 0-.1.1-.4.2-.4.3-.1.7 0 1-.1.4-.1.8-.1 1.2-.2-.3-.6-.8-.1-1.2-.3-.3-.1-.5-.2-.7-.4-.1-.1.1-.4.3-.6s.5-.3.8-.5c.2-.1.4-.5.3-.5-.2-.2-.4-.3-.7-.4-.1-.1-.4.1-.5 0-.2-.1-.3-.3-.3-.5s.3-.4.4-.4c.7-.1 1.4 0 .4-.9-.3-.3-.3-.8-.5-1.3.2 0 .3-.1.5-.1h.5c-.1-.2-.1-.5-.2-.6-.6-.5-.9-1.7-.6-2.5.2-.6.3-.9-.4-.9-.5-.1-.5-.3-.1-.5.3-.1.6-.3.8-.5.3-.3.3-.5-.2-.5-.3-.1-.6-.3-.8-.5v-.4c1-.1.6-.4.2-.8.8-.3-.2-1 .3-1.5.2-.2-.3-.9-.4-1.4 0-.4.1-.9.2-1.4.2-.7.2-1.6.1-2.5-.1-.5-.2-1 .6-1v-.4c-.4-.3-.3-.6-.1-1 .2-.3 1.5-.9-.1-1-.1-.8-.3-1.6-.2-2.4 0-.4.5-.7.8-1 .4-.4.4-.3.1-.5-.3-.1-.5-.3-.8-.4-.6-.3-.6-.5-.1-.9.3-.2.5-.4.8-.6.3-.1.9.2.9-.4 0-.2-.3-.4-.5-.6-.4-.2-.9-.3-1.3-.4-.2-.1-.4-.1-.7-.2l.6-.3c.2-.1.5 0 .7 0 1.2-.1.2-.5.1-.8-.2-.4-.3-.9-.5-1.3-.3-.6-.1-.9.6-.9.3 0 .7.1 1-.1.3-.1.5-.4.7-.7-.2-.1-.5-.2-.7-.3h-.7c-.5 0-1 .2-1-.6 0-.6.2-.9.8-.9.2 0 .4-.2.6-.2-.2-.1-.4-.2-.6-.2h-1c-.1 0-.3-.1-.4-.2.1-.1.2-.2.4-.3.7-.1 1.5-.1 2.2-.1.1 0 .2-.2.3-.3l-.2-.2c-.5.4-.8-.9-1.4-.2-.4.4-.7.2-1-.1-.1-.1-.2-.2-.4-.3.1-.1.2-.3.3-.3.4-.1.8 0 1.2-.1.1 0 .3-.2.4-.2-.2-.1-.4-.2-.6-.2-.5-.2-.5-.5-.2-.9.5-.6.5-1-.4-1l-.1-.4c.3-.2.6-.5 1-.5.6-.1 1.3-.1 2-.1l.2-.2c-.1-.1-.2-.3-.2-.3-1.2.4-1.9-.6-2.9-.9-.1 0-.2-.2-.4-.2.1-.1.2-.2.4-.2s.5 0 .7-.1c.4-.1.8-.2 1.3-.3l-1.2-.6c-.2-.1-.4-.2-.7-.3.9-.6-.6-.9-.1-1.3s1.1-.7 1.5.1c-.6 0-.6.5-.4.8.4.4.8.4.9-.3h.5c.1 0 .3-.1.4-.2-.1-.1-.3-.2-.4-.3h-.5c-.5-.2 1.4-1-.2-1-.5 0-1 .1-1.5.1-.1 0-.2-.2-.4-.2.1-.1.2-.2.4-.2.4-.1.7-.2 1.1-.3.2-.1.3-.3.4-.5-.2-.1-.4-.1-.7-.2-.3-.1-.5-.2-.7-.3.2-.2.4-.7.7-.7.6 0 .1-.6-.6-.6v-.3c.1-.1.3-.1.5-.1.4 0 .9 0 .8-.6 0-.2-.5-.3-.7-.4-.2-.1-.5-.1-.7-.1.6-.9-.3-1.1-.7-1.5.2-.1.5-.3.6-.3.5.3 1 .6 1.6.4.3-.1.5-.4.7-.7-.2-.1-.5-.3-.7-.3-.4 0-.8.1-1.2 0-.3 0-1 .3-.8-.3.2-.3-.1-1.3.8-1.2h.7c.2.1.5.6.7.1s-.1-.7-.7-.7c-.2 0-.4.1-.5 0-.3-.3-.6-.7-.8-1.1 0-.1.5-.4.8-.5l.6-.3c.1-.1.3-.2.4-.2-.2-.1-.4-.2-.6-.2-.2 0-.5.1-.7-.1-.2-.1-.2-.4-.2-.6h.5c.3-.1.6-.3.9-.4-.1-.1-.3-.2-.4-.3h-.2c-1.7-.7-1.7-.8-.2-1.9l.3-.3c-.1-.1-.3-.2-.4-.2-.2 0-.4.1-.5 0-.2-.1-.4-.3-.6-.5l.4-.4c.1-.1.3 0 .5 0 .2-.1.5-.2.5-.4s-.1-.5-.3-.6c-.2-.1-.4-.1-.7-.2.2-.1.3-.3.5-.3.2-.1.6 0 .7-.1.2-.2.4-.6.5-.9-.3.1-.6.2-.8.2s-.3 0-.5-.1c.1-.2.1-.6.2-.6.3-.1.6-.1 1-.1v-.5c-.8.1-.7-.1-.4-.7.2-.4-.2-1.1-.3-1.6.7 0 .7-.6 1-1 .2-.3.3-.5-.2-.5-.8 0-1.6 0-1.7 1.1h-.2c-.5-1.3.6-1.6 1.3-2 .2-.1.3-.2.5-.3-.2-.1-.5-.2-.7-.1-.6.1-.9-.1-.7-.8.2-.6.4-1.1.6-1.7.1-.2.2-.6.2-.6-1-.6-.2-1.2-.1-1.8.1-.3 0-.7 0-1-.1-.5 0-.8.4-1.1.4-.4.9-.9-.2-.9l-.2-.6c.2-.2.5-.2.8-.4l.6-.3c-.2-.1-.4-.1-.6-.2-.5-.2-.4-.4 0-.5.1-.1.1-.2-.3-.3 0-.1-.1-.2 0-.4.3.2.6.3.8.5 0-.1-.1-.1-.1-.2-.7-1-.7-1.4.1-2.2.1-.2.4-.2.6-.3l.3-.3c-.1-.1-.3-.2-.4-.2-1.2-.3-1.2-.3-.7-1.1.3-.5.3-.4-.6-.9-.4-.2-.7-.9-.6-1.3.2-.7.2-1.3-.1-2-.3-.6-.5-3.4-.5-4.1 0-.5 1.5-1.3 1.2-1.6-.6-.6.5-.8.2-1.2-.8-1-.5-2.1-.7-3.2-.1-.7-.3-1.6-.5-2.1h.1c.5-.5.2-1.7.1-2.4-.2-1.1.6-2.1-.1-3.2-.1-.1.1-.5.2-.6.8-.7.3-1.2-.5-1.9-.7-.6.1-.5.3-.5.8 0 1.1-.3.5-1-.1-.1-.2-.3-.2-.3.2-.5.7-1.4.6-1.5-.6-.6-1.5-1-1.4-1.4.2-.6-.3-1.3.3-1.8.1-.1-.2-.6-.3-1-.2-.4-.2-.8.4-.8.5-.1.4-.3.1-.6-.4-.3-.4-.7.1-.9l.6-.3c-.1-.1-.3-.2-.4-.2-.4-.2-.9-.3-1.3-.4-.1 0-.2-.2-.2-.3.1-.1.3-.2.4-.2.7 0 1.5 0 .7-1.1-.1-.1.1-.5.2-.7.2-.3.9-.5-.2-.8-.7-.2-.5-1.6.2-2.4.2-.2-.7-.6-.8-.8-.4-.8-.4-.7.1-1.2.3-.2.6-.5.9-.8.2-.2.3-.4.4-.5-.2-.1-.4-.1-.7-.2-.3 0-.7.1-1 0-.1 0-.3-.4-.3-.6 0-.1.1-.4.2-.4.3-.1.7 0 1-.1.4-.1.8-.1 1.2-.2-.3-.6-.8-.1-1.2-.3-.3-.1-.5-.2-.7-.4-.1-.1.1-.4.3-.6.2-.2.5-.3.8-.5.2-.1.4-.5.3-.5-.2-.2-.4-.3-.7-.4-.1-.1-.4.1-.5 0-.2-.1-.3-.3-.3-.5s.3-.4.4-.4c.7-.1 1.4 0 .4-.9-.3-.3-.3-.8-.5-1.3.2 0 .3-.1.5-.1h.5c-.1-.2-.1-.5-.2-.6-.6-.5-.9-1.7-.6-2.5.2-.6.3-.9-.4-.9-.5-.1-.5-.3-.1-.5.3-.1.6-.3.8-.5.3-.3.3-.5-.2-.5-.3-.1-.6-.3-.8-.5v-.4c1-.1.6-.4.2-.8.8-.3-.2-1 .3-1.5.2-.2-.3-.9-.4-1.4 0-.4.1-.9.2-1.4.2-.7.2-1.6.1-2.5-.1-.5-.2-1 .6-1v-.4c-.4-.3-.3-.6-.1-1 .2-.3 1.5-.9-.1-1-.1-.8-.3-1.6-.2-2.4 0-.4.5-.7.8-1 .4-.4.4-.3.1-.5-.3-.1-.5-.3-.8-.4-.6-.3-.6-.5-.1-.9.3-.2.5-.4.8-.6.3-.1.9.2.9-.4 0-.2-.3-.4-.5-.6-.4-.2-.9-.3-1.3-.4-.2-.1-.4-.1-.7-.2l.6-.3c.2-.1.5 0 .7 0 1.2-.1.2-.5.1-.8-.2-.4-.3-.9-.5-1.3-.3-.6-.1-.9.6-.9.3 0 .7.1 1-.1.3-.1.5-.4.7-.7-.2-.1-.5-.2-.7-.3h-.7c-.5 0-1 .2-1-.6 0-.6.2-.9.8-.9.2 0 .4-.2.6-.2-.2-.1-.4-.2-.6-.2h-1c-.1 0-.3-.1-.4-.2h1.7c0-.4-.3-.9-.4-1.3.7 0 .7-.6 1-1 .2-.3.3-.5-.2-.5-.8 0-1.6 0-1.7 1.1h-.2c-.5-1.3.6-1.6 1.3-2 .2-.1.3-.2.5-.3-.3-.2-.5-.3-.8-.3h-.1l.1.4c-.1 0-.2-.1-.3-.1 0-.1.1-.2.1-.3-.5 0-.7-.2-.5-.8.2-.6.4-1.1.6-1.7.1-.2.2-.6.2-.6-1-.6-.2-1.2-.1-1.8.1-.3 0-.7 0-1-.1-.5 0-.8.4-1.1.4-.4.9-.9-.2-.9l-.2-.6c-.2 0 .1-.1 0-.2-.2-.2.4-.4.4-.8h-.5c.5-.2.9-.4 1.5-.5 0-.1-.1-.1-.1-.3-.7-1-.7-1.4.1-2.2.1-.2.4-.2.6-.3l.3-.3c-.1-.1-.3-.2-.4-.2-1.2-.3-1.2-.3-.7-1.1.3-.5.3-.4-.6-.9-.4-.2-.7-.9-.6-1.3.2-.7.2-1.3-.1-2-.3-.6-.5-3.4-.5-4.1 0-.5 1.5-1.3 1.2-1.6-.6-.6.5-.8.2-1.2-.8-1-.5-2.1-.7-3.2-.1-.7-.3-1.6-.5-2.1h.1c.5-.5.2-1.7.1-2.4-.2-1.1.6-2.1-.1-3.2-.1-.1.1-.5.2-.6.8-.7.3-1.2-.5-1.9-.7-.6.1-.5.3-.5.8 0 1.1-.3.5-1-.1-.1-.2-.3-.2-.3.2-.5.7-1.4.6-1.5-.6-.6-1.5-1-1.4-1.4.2-.6-.3-1.3.3-1.8.1-.1-.2-.6-.3-1-.2-.4-.2-.8.4-.8.5-.1.4-.3.1-.6-.4-.3-.4-.7.1-.9l.6-.3c-.1-.1-.3-.2-.4-.2-.4-.2-.9-.3-1.3-.4-.1 0-.2-.2-.2-.3.1-.1.3-.2.4-.2.7 0 1.5 0 .7-1.1-.1-.1.1-.5.2-.7.2-.3.9-.5-.2-.8-.7-.2-.5-1.6.2-2.4.2-.2-.7-.6-.8-.8-.4-.8-.4-.7.1-1.2.3-.2.6-.5.9-.8.2-.2.3-.4.4-.5-.2-.1-.4-.1-.7-.2-.3 0-.7.1-1 0-.1 0-.3-.4-.3-.6 0-.1.1-.4.2-.4.3-.1.7 0 1-.1.4-.1.8-.1 1.2-.2-.3-.6-.8-.1-1.2-.3-.3-.1-.5-.2-.7-.4-.1-.1.1-.4.3-.6s.5-.3.8-.5c.2-.1.4-.5.3-.5-.2-.2-.4-.3-.7-.4-.1-.1-.4.1-.5 0-.2-.1-.3-.3-.3-.5s.3-.4.4-.4c.7-.1 1.4 0 .4-.9-.3-.3-.3-.8-.5-1.3.2 0 .3-.1.5-.1h.5c-.1-.2-.1-.5-.2-.6-.6-.5-.9-1.7-.6-2.5.2-.6.3-.9-.4-.9-.5-.1-.5-.3-.1-.5.3-.1.6-.3.8-.5.3-.3.3-.5-.2-.5-.3-.1-.6-.3-.8-.5v-.4c1-.1.6-.4.2-.8.8-.3-.2-1 .3-1.5.2-.2-.3-.9-.4-1.4 0-.4.1-.9.2-1.4.2-.7.2-1.6.1-2.5-.1-.5-.2-1 .6-1v-.4c-.4-.3-.3-.6-.1-1 .2-.3 1.5-.9-.1-1-.1-.8-.3-1.6-.2-2.4 0-.4.5-.7.8-1 .4-.4.4-.3.1-.5-.3-.1-.5-.3-.8-.4-.6-.3-.6-.5-.1-.9.3-.2.5-.4.8-.6.3-.1.9.2.9-.4 0-.2-.3-.4-.5-.6-.4-.2-.9-.3-1.3-.4-.2-.1-.4-.1-.7-.2l.6-.3c.2-.1.5 0 .7 0 1.2-.1.2-.5.1-.8-.2-.4-.3-.9-.5-1.3-.3-.6-.1-.9.6-.9.3 0 .7.1 1-.1.3-.1.5-.4.7-.7-.2-.1-.5-.2-.7-.3h-.7c-.5 0-1 .2-1-.6 0-.6.2-.9.8-.9.2 0 .4-.2.6-.2-.2-.1-.4-.2-.6-.2h-1c-.1 0-.3-.1-.4-.2.1-.1.2-.2.4-.3.7-.1 1.5-.1 2.2-.1.1 0 .2-.2.3-.3l-.2-.2c-.5.4-.8-.9-1.4-.2-.4.4-.7.2-1-.1-.1-.1-.2-.2-.4-.3.1-.1.2-.3.3-.3.4-.1.8 0 1.2-.1.1 0 .3-.2.4-.2-.2-.1-.4-.2-.6-.2-.5-.2-.5-.5-.2-.9.5-.6.5-1-.4-1l-.1-.4c.3-.2.6-.5 1-.5.6-.1 1.3-.1 2-.1l.2-.2c-.1-.1-.2-.3-.2-.3-1.2.4-1.9-.6-2.9-.9-.1 0-.2-.2-.4-.2.1-.1.2-.2.4-.2s.5 0 .7-.1c.4-.1.8-.2 1.3-.3l-1.2-.6c-.2-.1-.4-.2-.7-.3.9-.6-.6-.9-.1-1.3s1.1-.7 1.5.1c-.6 0-.6.5-.4.8.4.4.8.4.9-.3h.5c.1 0 .3-.1.4-.2-.1-.1-.3-.2-.4-.3h-.5c-.5-.2 1.4-1-.2-1-.5 0-1 .1-1.5.1-.1 0-.2-.2-.4-.2.1-.1.2-.2.4-.2.4-.1.7-.2 1.1-.3.2-.1.3-.3.4-.5-.2-.1-.4-.1-.7-.2s-.5-.2-.7-.3c.2-.2.4-.7.7-.7.6 0 .1-.6-.6-.6v-.3c.1-.1.3-.1.5-.1.4 0 .9 0 .8-.6 0-.2-.5-.3-.7-.4s-.5-.1-.7-.1c.6-.9-.3-1.1-.7-1.5.2-.1.5-.3.6-.3.5.3 1 .6 1.6.4.3-.1.5-.4.7-.7-.2-.1-.5-.3-.7-.3-.4 0-.8.1-1.2 0-.3 0-1 .3-.8-.3.2-.3-.1-1.3.8-1.2h.7c.2.1.5.6.7.1s-.1-.7-.7-.7c-.2 0-.4.1-.5 0-.3-.3-.6-.7-.8-1.1 0-.1.5-.4.8-.5l.6-.3c.1-.1.3-.2.4-.2-.2-.1-.4-.2-.6-.2-.2 0-.5.1-.7-.1-.2-.1-.2-.4-.2-.6h.5c.3-.1.6-.3.9-.4-.1-.1-.3-.2-.4-.3h-.2c-1.7-.7-1.7-.8-.2-1.9l.3-.3c-.1-.1-.3-.2-.4-.2-.2 0-.4.1-.5 0-.2-.1-.4-.3-.6-.5l.4-.4c.1-.1.3 0 .5 0 .2-.1.5-.2.5-.4s-.1-.5-.3-.6-.4-.1-.7-.2c.2-.1.3-.3.5-.3.2-.1.6 0 .7-.1.2-.2.4-.6.5-.9-.3.1-.6.2-.8.2s-.3 0-.5-.1c.1-.2.1-.6.2-.6.3-.1.6-.1 1-.1v-.5c-.8.1-.7-.1-.4-.7.2-.4-.2-1.1-.3-1.6.7 0 .7-.6 1-1 .2-.3.3-.5-.2-.5-.8 0-1.6 0-1.7 1.1h-.2c-.5-1.3.6-1.6 1.3-2 .2-.1.3-.2.5-.3-.2-.1-.5-.2-.7-.1-.6.1-.9-.1-.7-.8.2-.6.4-1.1.6-1.7.1-.2.2-.6.2-.6-1-.6-.2-1.2-.1-1.8.1-.3 0-.7 0-1-.1-.5 0-.8.4-1.1.4-.4.9-.9-.2-.9l-.2-.6c.2-.2.5-.2.8-.4l.6-.3c-.2-.1-.4-.1-.6-.2-.5-.2-.4-.4 0-.5.1-.1.1-.2-.3-.3 0-.1-.1-.2 0-.4.3.2.6.3.8.5 0-.1-.1-.1-.1-.2-.7-1-.7-1.4.1-2.2.1-.2.4-.2.6-.3l.3-.3c-.1-.1-.3-.2-.4-.2-1.2-.3-1.2-.3-.7-1.1.3-.5.3-.4-.6-.9-.4-.2-.7-.9-.6-1.3.2-.7.2-1.3-.1-2-.3-.6-.5-3.4-.5-4.1 0-.5 1.5-1.3 1.2-1.6-.6-.6.5-.8.2-1.2-.8-1-.5-2.1-.7-3.2-.1-.7-.3-1.6-.5-2.1h.1c.5-.5.2-1.7.1-2.4-.2-1.1.6-2.1-.1-3.2-.1-.1.1-.5.2-.6.8-.7.3-1.2-.5-1.9-.7-.6.1-.5.3-.5.8 0 1.1-.3.5-1-.1-.1-.2-.3-.2-.3.2-.5.7-1.4.6-1.5-.6-.6-1.5-1-1.4-1.4.2-.6-.3-1.3.3-1.8.1-.1-.2-.6-.3-1-.2-.4-.2-.8.4-.8.5-.1.4-.3.1-.6-.4-.3-.4-.7.1-.9l.6-.3c-.1-.1-.3-.2-.4-.2-.4-.2-.9-.3-1.3-.4-.1 0-.2-.2-.2-.3.1-.1.3-.2.4-.2.7 0 1.5 0 .7-1.1-.1-.1.1-.5.2-.7.2-.3.9-.5-.2-.8-.7-.2-.5-1.6.2-2.4.2-.2-.7-.6-.8-.8-.4-.8-.4-.7.1-1.2.3-.2.6-.5.9-.8.2-.2.3-.4.4-.5-.2-.1-.4-.1-.7-.2-.3 0-.7.1-1 0-.1 0-.3-.4-.3-.6 0-.1.1-.4.2-.4.3-.1.7 0 1-.1.4-.1.8-.1 1.2-.2-.3-.6-.8-.1-1.2-.3-.3-.1-.5-.2-.7-.4-.1-.1.1-.4.3-.6s.5-.3.8-.5c.2-.1.4-.5.3-.5-.2-.2-.4-.3-.7-.4-.1-.1-.4.1-.5 0-.2-.1-.3-.3-.3-.5s.3-.4.4-.4c.7-.1 1.4 0 .4-.9-.3-.3-.3-.8-.5-1.3.2 0 .3-.1.5-.1h.5c-.1-.2-.1-.5-.2-.6-.6-.5-.9-1.7-.6-2.5.2-.6.3-.9-.4-.9-.5-.1-.5-.3-.1-.5.3-.1.6-.3.8-.5.3-.3.3-.5-.2-.5-.3-.1-.6-.3-.8-.5v-.4c1-.1.6-.4.2-.8.8-.3-.2-1 .3-1.5.2-.2-.3-.9-.4-1.4 0-.4.1-.9.2-1.4.2-.7.2-1.6.1-2.5-.1-.5-.2-1 .6-1v-.4c-.4-.3-.3-.6-.1-1 .2-.3 1.5-.9-.1-1-.1-.8-.3-1.6-.2-2.4 0-.4.5-.7.8-1 .4-.4.4-.3.1-.5-.3-.1-.5-.3-.8-.4-.6-.3-.6-.5-.1-.9.3-.2.5-.4.8-.6.3-.1.9.2.9-.4 0-.2-.3-.4-.5-.6-.4-.2-.9-.3-1.3-.4-.2-.1-.4-.1-.7-.2l.6-.3c.2-.1.5 0 .7 0 1.2-.1.2-.5.1-.8-.2-.4-.3-.9-.5-1.3-.3-.6-.1-.9.6-.9.3 0 .7.1 1-.1.3-.1.5-.4.7-.7-.2-.1-.5-.2-.7-.3h-.7c-.5 0-1 .2-1-.6 0-.6.2-.9.8-.9.2 0 .4-.2.6-.2-.2-.1-.4-.2-.6-.2h-1c-.1 0-.3-.1-.4-.2.1-.1.2-.1.3-.2h-5.4s0 .1 0 0c0 .1 0 0 0 0zM2.9 931.4c0-.1.1-.2.1-.2s0 .1-.1.2zm9.1-.7c-.1-.1 0-.2.1-.2 0 .1-.1.1-.1.2zm-10.5-.8c-.1-.1-.1-.1-.1-.2.1 0 .1.1.1.2zm8.8-.8c.1-.1.2-.1.3-.1-.1 0-.2.1-.3.1zm-2.1-2.9c0-.1 0-.2.1-.3 0 .1 0 .2-.1.3zM3 922.3c0 .1-.1.1-.2.1.1 0 .1-.1.2-.1zm9.9 1.5h.2c-.2.6-.2 1.1-.3 1.6 0 0-.2.1-.3.1s-.2 0-.3.1V925c.1-.4.3-.8.5-1.2h.2zm-5.4-.8c-.4.4-.8.7-1.2 1-.1 0-.2-.1-.3-.2l-.2-.1c.2-.5.5-1 .8-1.6.4.3.7.6.9.9zm11.2-1.7h-.2c0-.1-.7-.3-.6-.5l.1-.1c.1.1.3.3.7.6zm-17.9-.4c-.1 0-.1-.1-.1-.2.1 0 .1.1.1.2zm1.5-1.4c-.1-.1-.1-.1-.1-.2 0 0 .1.1.1.2zm8.6-3c-.2.3-.4.7-.5 1-.3-.5-.7-1-.7-1.5v-.1c.1-.2.4-.4.7-.6.1.3.3.7.5 1.2zm2.3-5.8c.1.1.2.3.3.4-.3.1-.7.2-1 .4-.3-.1-.5-.2-.7-.4.4-.3.8-.6 1.1-.7 0 0 .2.1.3.3zm-7.8-.6c-.1.2-.3.3-.4.5-.3-.2-.6-.4-.7-.6 0-.1.2-.4.5-.8.3.4.6.7.6.9zm10.4-1.9c-.1 0-.2.1-.2.1.1-.1.1-.2.2-.1zm2.1-1.4c0-.1.1-.1.2-.1-.1 0-.1.1-.2.1zm-6.6-.1c-.2 0-.2-.1-.2-.2l.2.2zm-1-3.8c.1 0 .2 0 .3.1-.1 0-.2 0-.3-.1zm5.5 0c0 .1-.1.1-.2.1.1 0 .1-.1.2-.1zm-4.7 2.2c.1 0 .2.1.3.2l-.6.9c-.1 0-.2-.1-.3-.2-.1-.1-.3-.2-.4-.2.3-.4.6-.7.8-.7 0-.1.1 0 .2 0zm-2.8-.6c-.1.4-.2.7-.4.9 0 0-.2-.1-.3-.1s-.2-.1-.3-.1l.8-.8c.1 0 .2 0 .2.1zm10.5-.7c-.1 0-.1.1-.2.1s-.2.1-.2.1c-.5-.3-.9-.6-1.4-.9l.9-.9c.3.5.6 1 .9 1.6zm-12-6.7c-.1 0-.1-.1-.1-.2 0 .1.1.1.1.2zM3 893.4c-.1-.1 0-.2.1-.2 0 .1-.1.1-.1.2zm0-1.5c-.1-.1-.2-.3-.3-.5.3-.2.5-.4.8-.6 0 0 .1 0 .2.1 0 0 .1 0 .1.1-.3.3-.6.6-.8.9zm14.9-.8c-.3.1-.6.2-.9.2-.2 0-.3-.1-.6-.2.2-.1.5-.2.8-.4.2.1.5.2.7.4zm-2-.7c-.2 0-.2 0-.3-.1v-.1c.1 0 .2.1.3.2zm-9.7-2.7c0 .1 0 .2-.1.3 0 .1-.1.1-.1.2-.2-.2-.4-.3-.6-.5-.2-.2-.3-.3-.3-.4 0-.1.1-.2.3-.4.1-.1.3-.2.4-.4.2.5.3.8.4 1.2zm-.4-3.3c.1 0 .1.1.2.1-.5.2-.8.3-1.1.5 0-.1-.1-.1-.1-.2s-.1-.2-.1-.2c0-.1.1-.2.1-.2H5c.2-.1.3-.1.5-.1.1 0 .1 0 .3.1zm10.9-.3c0-.1-.1-.1-.1-.2.1 0 .2-.1.3-.1l-.2.3zm-4.3-6.1c-.6.3-1.1.6-1.6.9 0 0-.1 0-.2-.1l-.1-.1c.5-.3 1-.6 1.6-.9.1.1.2.1.3.2zm3.5-8.8c0-.1 0-.2.1-.3 0 .1 0 .2-.1.3zm0-2.3c0-.1 0-.2.2-.1-.1 0-.2.1-.2.1zm-2.9-.8c-.1 0-.2 0-.3-.1.2 0 .3.1.3.1zm1.6-1.7s0 .1-.1.2c0 0 0 .1-.1.1l-.3-.6c.1-.1.2-.3.2-.4.2.3.3.5.3.7zm-1.8-10.9c.1-.1.2-.1.3-.1-.1 0-.2.1-.3.1zm-9.6-2.2c0-.1-.1-.2-.1-.2.1 0 .1.1.1.2zm11.6-.8c-.1.3-.2.5-.3.6-.1-.1-.2-.3-.3-.4 0 0 0-.1.1-.2 0 0 .1-.1.1-.2.1.1.2.2.4.2zm-9.5-4.7s.1.1.2.1c-.1.1-.1.3-.2.4-.3-.1-.5-.2-.6-.3.2-.1.3-.2.4-.3.1 0 .1.1.2.1zm11.5-4.5l-.2.3c-.3-.3-.5-.5-.7-.8.1-.1.2-.1.2-.2l.1-.1c.3.3.5.5.6.8zm-4.1-1c-.1-.3-.2-.6-.3-1 .1 0 .2-.1.3-.2.1.5.1.8 0 1.2zM1 838.5c-.2.1-.4.2-.6.2H.3s0-.1-.1-.1v-.1c.3-.1.5-.1.7-.2 0 0 0 .1.1.2zm8.2-4.4c-.1.1-.3.1-.6.2-.1-.3-.3-.6-.3-.9 0 0 0-.1.1-.2l.1-.1.7 1zm-3.7-.8c-.1 0-.2 0-.3-.1l.1-.1.2.2zm-.8-.9c0 .2-.2.3-.3.4-.2-.1-.3-.2-.5-.4.2-.1.4-.2.6-.2 0 .1.1.2.2.2zm6.1-2.8c-.1 0-.2 0-.3-.1.1 0 .2 0 .3.1zm-2.3-2.9c-.1 0-.1-.1-.1-.2 0 0 .1.1.1.2zm-3.7-1.5c-.1 0-.1-.1-.1-.2 0 0 0 .1.1.2zm9-3c-.1 0-.1-.1-.1-.2 0 0 0 .1.1.2zm-5.1-.5c-.2.2-.5.4-.8.6 0 0-.1 0-.2-.1 0 0-.1 0-.1-.1l.7-1c.2.3.3.4.4.6zm4.4-1.4c.1.1.3.2.5.2-.2.1-.4.3-.6.4-.3-.1-.5-.2-.7-.3.2-.1.5-.3.8-.3zM5 818.2c.1.2.3.3.5.5-.5.1-.9.3-1.4.4-.3-.1-.6-.2-1-.4.5-.4.9-.8 1.4-.9.1.1.3.2.5.4zm-2.7-7.7c.1 0 .1.1.1.2 0-.1-.1-.1-.1-.2zm1.5 1.5c-.2.1-.5.3-.7.3H3c-.2 0-.4-.1-.6-.1.2-.1.4-.3.6-.4.3 0 .6.1.8.2zm4.5-1.6s.1 0 0 0l-.6 1.1c-.1-.1-.2-.3-.3-.5.2-.2.5-.4.9-.6-.2-.1-.1 0 0 0zm3.1-2.7c-.1 0-.1-.1-.1-.2.1 0 .1.1.1.2zm-3.7-1.5c-.1 0-.1-.1-.1-.2 0 0 .1.1.1.2zm-2.2-3c-.1 0-.2 0-.3-.1.2 0 .2 0 .3.1zm6.6-3.1c-.2.1-.4.2-.6.2 0 0-.1 0-.1-.1l-.1-.1c.1-.1.3-.2.4-.3.2.1.3.2.4.3zm-1.3-.7c-.2 0-.2 0-.3-.1v-.1c.1.1.2.2.3.2zm-3-.2s0 .1-.1.2l-.1.1-.7-1c.1-.1.3-.1.6-.2.1.3.3.6.3.9zm8.1-5.1c-.3.2-.5.2-.7.3 0 0-.1-.1-.1-.2l-.1-.1c.3-.1.5-.1.9 0-.1-.1-.1 0 0 0zm-12.3-.8c-.1 0-.2.1-.3.2-.1-.4 0-.8 0-1.2.1.3.2.6.3 1zm-.3-1.2c-.1-.1 0 0 0 0zm8.1-5.5c-.1.1-.3.2-.4.3 0 0-.1 0-.2-.1 0 0-.1-.1-.2-.1.1-.1.1-.3.2-.4.2.2.4.3.6.3zm-9.7-4.5s-.1.1-.1.2c-.1-.1-.3-.1-.4-.2.1-.3.2-.5.3-.6.2.2.3.3.3.4 0 0 0 .1-.1.2zm11.2-.5c-.1 0-.1-.1-.1-.2.1.1.1.1.1.2zm-11-13.1c-.1.1-.2.3-.2.4-.1-.2-.2-.4-.2-.6 0 0 0-.1.1-.2l.1-.1c0 .2.1.4.2.5zm-1.8-4.8s0-.1.1-.2c0 .1-.1.1-.1.2zm18.2-6c-.1 0-.2 0-.3-.1.1 0 .2.1.3.1zm-12.9-3.9l.1.1c-.5.3-1 .7-1.5.9-.1-.1-.2-.1-.3-.2.6-.3 1.1-.6 1.7-.8-.1-.1-.1 0 0 0zm13.1-6.2c-.1 0-.2 0-.3-.1.1 0 .2.1.3.1zm-7.2.2c0 .1.1.2.1.2 0 .1-.1.2-.1.2H10.5s-.1 0-.2-.1c-.1 0-.1-.1-.2-.1.5-.2.8-.3 1.1-.5 0 .2.1.3.1.3zm-.6-2.9c.2.2.3.3.3.4 0 .1-.1.2-.3.4-.1.1-.3.2-.4.4-.1-.4-.3-.8-.4-1.1 0-.1 0-.1.1-.3 0-.1.1-.1.1-.2.2.1.4.3.6.4zm-6.6-1.7c-.1 0-.1-.1-.1-.2.1.1.1.1.1.2zm-3.7-.8c-.1 0-.2 0-.3-.1l.1-.1c.1.1.2.1.2.2zm13-1.1c-.3.2-.5.4-.8.6 0 0-.1 0-.2-.1 0 0-.1 0-.1-.1.3-.3.5-.6.8-.9.1.1.2.2.3.5zm-.4-1.8c0-.1.1-.2.1-.3 0 .1 0 .2-.1.3zm-3.6-3.8c-.1 0-.1-.1-.1-.2 0 .1.1.2.1.2zm-3.7-6c-.1 0-.2 0-.3-.1.1 0 .2.1.3.1zm-5.5 0c.1 0 .2-.1.2-.1 0 .1-.1.1-.2.1zm15-.7c.1-.1.2-.1.3-.1-.1 0-.2.1-.3.1zm-6.8-1.6c.1 0 .2.1.3.1l-.8.8c-.1 0-.1-.1-.2-.1h-.1c.1-.3.3-.7.5-.9.1 0 .2 0 .3.1zm-2.8-.7c.1.1.3.2.4.2-.3.4-.6.7-.8.7 0 0-.2 0-.3-.1-.1 0-.2-.1-.3-.2l.6-.9c.1.1.3.2.4.3zm-.7-.7s.1.1.1.2c-.1-.1-.2-.1-.1-.2zm-4.6-1.5s.1-.1.2-.1c-.1 0-.1.1-.2.1zm11.5-1.8c0 .1-.2.4-.5.8-.3-.4-.6-.7-.7-.9v-.1c.1-.1.2-.3.4-.4.3.2.6.4.8.6zm-7.6-1.2c-.4.3-.7.7-1 .7 0 0-.2-.1-.3-.3-.1-.1-.2-.3-.3-.4.3-.1.7-.2 1-.4.2.2.4.3.6.4zm13.3-.9s.1.1.2.1c-.1.1-.1.3-.2.4-.3-.1-.5-.2-.6-.3.1-.1.3-.2.4-.3 0 0 .1.1.2.1zm-11-3.9c-.2.3-.5.5-.8.7-.2-.4-.3-.8-.5-1.2.2-.3.4-.7.5-1 .3.5.7 1 .8 1.5zm7.4-3.3c-.1-.1-.1-.1-.1-.2 0 0 .1.1.1.2zm1.5-1.5c-.1 0-.1-.1-.1-.2 0 .1.1.1.1.2zm-2.4-1.5c0-.1.1-.1.2-.1-.1 0-.1.1-.2.1zm-9.1-2.9v.2c-.1.4-.3.8-.5 1.2H3c0-.6 0-1.1.2-1.6 0 0 .2-.1.3-.1s.2 0 .3-.1c.1.2.1.3.1.4zm3.9-.8c0-.1 0-.2.1-.2 0 .1-.1.1-.1.2zm-2.4-3c.1-.1.2-.1.3-.1-.1 0-.2.1-.3.1zm9.2-.7c-.1-.1-.1-.1-.1-.2.1 0 .1.1.1.2zM4 702.3c0-.2.1-.2.1-.3 0 .1 0 .2-.1.3zm4.3-.9c-.1-.1 0-.1 0-.1v.1zm-5.4-3.6c0-.1.1-.2.1-.2s0 .1-.1.2zm9.1-.7c-.1-.1 0-.2.1-.2 0 .1-.1.1-.1.2zm-10.5-.8c-.1-.1-.1-.1-.1-.2.1 0 .1.1.1.2zm8.8-.8c.1-.1.2-.1.3-.1-.1 0-.2.1-.3.1zm-2.1-2.9c0-.1 0-.2.1-.3 0 .1 0 .2-.1.3zM3 688.7c0 .1-.1.1-.2.1.1 0 .1-.1.2-.1zm9.9 1.5h.2c-.2.6-.2 1.1-.3 1.6 0 0-.2.1-.3.1s-.2 0-.3.1V691.4c.1-.4.3-.8.5-1.2h.2zm-5.4-.8c-.4.4-.8.7-1.2 1-.1 0-.2-.1-.3-.2l-.2-.1c.2-.5.5-1 .8-1.6.4.3.7.6.9.9zm11.2-1.7h-.2c0-.1-.7-.3-.6-.5l.1-.1c.1.1.3.3.7.6zm-17.9-.4c-.1 0-.1-.1-.1-.2.1 0 .1.1.1.2zm1.5-1.4c-.1-.1-.1-.1-.1-.2 0 0 .1.1.1.2zm8.6-3c-.2.3-.4.7-.5 1-.3-.5-.7-1-.7-1.5v-.1c.1-.2.4-.4.7-.6.1.3.3.7.5 1.2zm2.3-5.8c.1.1.2.3.3.4-.3.1-.7.2-1 .4-.3-.1-.5-.2-.7-.4.4-.3.8-.6 1.1-.7 0 0 .2.1.3.3zm-7.8-.6c-.1.2-.3.3-.4.5-.3-.2-.6-.4-.7-.6 0-.1.2-.4.5-.8.3.4.6.7.6.9zm10.4-1.9c-.1 0-.2.1-.2.1.1-.1.1-.2.2-.1zm2.1-1.4c0-.1.1-.1.2-.1-.1 0-.1.1-.2.1zm-6.6-.1c-.2 0-.2-.1-.2-.2l.2.2zm-1-3.8c.1 0 .2 0 .3.1-.1 0-.2 0-.3-.1zm5.5 0c0 .1-.1.1-.2.1.1 0 .1-.1.2-.1zm-4.7 2.2c.1 0 .2.1.3.2l-.6.9c-.1 0-.2-.1-.3-.2-.1-.1-.3-.2-.4-.2.3-.4.6-.7.8-.7 0-.1.1 0 .2 0zm-2.8-.6c-.1.4-.2.7-.4.9 0 0-.2-.1-.3-.1s-.2-.1-.3-.1l.8-.8c.1 0 .2 0 .2.1zm10.5-.7c-.1 0-.1.1-.2.1s-.2.1-.2.1c-.5-.3-.9-.6-1.4-.9l.9-.9c.3.5.6 1 .9 1.6zm-12-6.7c-.1 0-.1-.1-.1-.2 0 .1.1.1.1.2zM3 659.8c-.1-.1 0-.2.1-.2 0 .1-.1.1-.1.2zm0-1.5c-.1-.1-.2-.3-.3-.5.3-.2.5-.4.8-.6 0 0 .1 0 .2.1 0 0 .1 0 .1.1-.3.3-.6.6-.8.9zm14.9-.8c-.3.1-.6.2-.9.2-.2 0-.3-.1-.6-.2.2-.1.5-.2.8-.4.2.1.5.2.7.4zm-2-.7c-.2 0-.2 0-.3-.1v-.1c.1 0 .2.1.3.2zm-9.7-2.7c0 .1 0 .2-.1.3 0 .1-.1.1-.1.2-.2-.2-.4-.3-.6-.5-.2-.2-.3-.3-.3-.4 0-.1.1-.2.3-.4.1-.1.3-.2.4-.4.2.5.3.8.4 1.2zm-.4-3.3c.1 0 .1.1.2.1-.5.2-.8.3-1.1.5 0-.1-.1-.1-.1-.2s-.1-.2-.1-.2c0-.1.1-.2.1-.2H5c.2-.1.3-.1.5-.1.1 0 .1 0 .3.1zm10.9-.3c0-.1-.1-.1-.1-.2.1 0 .2-.1.3-.1l-.2.3zm-4.3-6.1c-.6.3-1.1.6-1.6.9 0 0-.1 0-.2-.1l-.1-.1c.5-.3 1-.6 1.6-.9.1.1.2.1.3.2zm3.5-8.8c0-.1 0-.2.1-.3 0 .1 0 .2-.1.3zm0-2.3c0-.1 0-.2.2-.1-.1 0-.2.1-.2.1zm-2.9-.8c-.1 0-.2 0-.3-.1.2 0 .3.1.3.1zm1.6-1.7s0 .1-.1.2c0 0 0 .1-.1.1l-.3-.6c.1-.1.2-.3.2-.4.2.3.3.5.3.7zm-1.8-10.9c.1-.1.2-.1.3-.1-.1 0-.2.1-.3.1zm-9.6-2.2c0-.1-.1-.2-.1-.2.1 0 .1.1.1.2zm11.6-.8c-.1.3-.2.5-.3.6-.1-.1-.2-.3-.3-.4 0 0 0-.1.1-.2 0 0 .1-.1.1-.2.1.1.2.2.4.2zm-9.5-4.7s.1.1.2.1c-.1.1-.1.3-.2.4-.3-.1-.5-.2-.6-.3.2-.1.3-.2.4-.3.1 0 .1.1.2.1zm11.5-4.5l-.2.3c-.3-.3-.5-.5-.7-.8.1-.1.2-.1.2-.2l.1-.1c.3.3.5.5.6.8zm-4.1-1c-.1-.3-.2-.6-.3-1 .1 0 .2-.1.3-.2.1.5.1.8 0 1.2zM1 604.9c-.2.1-.4.2-.6.2H.3s0-.1-.1-.1v-.1c.3-.1.5-.1.7-.2 0 0 0 .1.1.2zm4.2-5.3c.2 0 .3.1.3.1-.1 0-.2 0-.3-.1zm4 .9c-.1.1-.3.1-.6.2-.1-.3-.3-.6-.3-.9 0 0 0-.1.1-.2l.1-.1.7 1zm-4.5-1.7c0 .2-.2.3-.3.4-.2-.1-.3-.2-.5-.4.2-.1.4-.2.6-.2 0 .1.1.2.2.2zm6.1-2.8c-.1 0-.2 0-.3-.1.1 0 .2 0 .3.1zm-2.3-2.9c-.1 0-.1-.1-.1-.2 0 0 .1.1.1.2zm-3.7-1.5c-.1 0-.1-.1-.1-.2 0 0 0 .1.1.2zm9-3c-.1 0-.1-.1-.1-.2 0 0 0 .1.1.2zm-5.1-.5c-.2.2-.5.4-.8.6 0 0-.1 0-.2-.1 0 0-.1 0-.1-.1l.7-1c.2.3.3.4.4.6zm4.4-1.4c.1.1.3.2.5.2-.2.1-.4.3-.6.4-.3-.1-.5-.2-.7-.3.2-.1.5-.3.8-.3zM5 584.6c.1.2.3.3.5.5-.5.1-.9.3-1.4.4-.3-.1-.6-.2-1-.4.5-.4.9-.8 1.4-.9.1.1.3.2.5.4zm-2.7-7.7c.1 0 .1.1.1.2 0-.1-.1-.1-.1-.2zm1.5 1.5c-.2.1-.5.3-.7.3H3c-.2 0-.4-.1-.6-.1.2-.1.4-.3.6-.4.3 0 .6.1.8.2zm4.5-1.6s.1 0 .1.1l-.7 1c-.1-.1-.2-.3-.3-.5.2-.2.5-.4.9-.6-.2-.1-.1 0 0 0zm3.1-2.7c-.1 0-.1-.1-.1-.2.1 0 .1.1.1.2zm-3.7-1.5c-.1 0-.1-.1-.1-.2 0 0 .1.1.1.2zm-2.2-3c-.1 0-.2 0-.3-.1.2 0 .2 0 .3.1zm6.6-3.1c-.2.1-.4.2-.6.2 0 0-.1 0-.1-.1l-.1-.1c.1-.1.3-.2.4-.3.2.1.3.2.4.3zm-1.3-.7c-.2 0-.2 0-.3-.1v-.1c.1.1.2.2.3.2zm-3-.2s0 .1-.1.2l-.1.1-.7-1c.1-.1.3-.1.6-.2.1.3.3.6.3.9zm8.1-5.1c-.3.2-.5.2-.7.3 0 0-.1-.1-.1-.2l-.1-.1c.3-.1.5-.1.8-.1 0 0 0 .1.1.1zm-12.3-.8c-.1 0-.2.1-.3.2-.1-.4 0-.8 0-1.2.1.3.2.6.3 1zm7.8-6.7c-.1.1-.3.2-.4.3 0 0-.1 0-.2-.1 0 0-.1-.1-.2-.1.1-.1.1-.3.2-.4.2.2.4.3.6.3zm-9.7-4.5s-.1.1-.1.2c-.1-.1-.3-.1-.4-.2.1-.3.2-.5.3-.6.2.2.3.3.3.4 0 0 0 .1-.1.2zm11.2-.5c-.1 0-.1-.1-.1-.2.1.1.1.1.1.2zm-11-13.1c-.1.1-.2.3-.2.4-.1-.2-.2-.4-.2-.6 0 0 0-.1.1-.2l.1-.1c0 .2.1.4.2.5zm-1.8-4.8s0-.1.1-.2c0 .1-.1.1-.1.2zm18.2-6c-.1 0-.2 0-.3-.1.1 0 .2.1.3.1zm-12.9-3.9c-.4.4-.9.8-1.4 1-.1-.1-.2-.1-.3-.2.6-.3 1.1-.6 1.6-.9 0 0 0 .1.1.1zm13.1-6.2c-.1 0-.2 0-.3-.1.1 0 .2.1.3.1zm-7.2.2c0 .1.1.2.1.2 0 .1-.1.2-.1.2H10.5s-.1 0-.2-.1c-.1 0-.1-.1-.2-.1.5-.2.8-.3 1.1-.5 0 .2.1.3.1.3zm-.6-2.9c.2.2.3.3.3.4s-.1.2-.3.4c-.1.1-.3.2-.4.4-.1-.4-.3-.8-.4-1.1 0-.1 0-.1.1-.3 0-.1.1-.1.1-.2.2.1.4.3.6.4zm-6.6-1.7c-.1 0-.1-.1-.1-.2.1.1.1.1.1.2zm-3.7-.8c-.1 0-.2 0-.3-.1l.1-.1c.1.1.2.1.2.2zm13-1.1c-.3.2-.5.4-.8.6 0 0-.1 0-.2-.1 0 0-.1 0-.1-.1.3-.3.5-.6.8-.9.1.1.2.2.3.5zm-.4-1.8c0-.1.1-.2.1-.3 0 .1 0 .2-.1.3zm-3.6-3.8c-.1 0-.1-.1-.1-.2 0 .1.1.2.1.2zm-3.7-6c-.1 0-.2 0-.3-.1.1 0 .2.1.3.1zm-5.5 0c.1 0 .2-.1.2-.1 0 .1-.1.1-.2.1zm15-.7c.1-.1.2-.1.3-.1-.1 0-.2.1-.3.1zm-6.8-1.6c.1 0 .2.1.3.1l-.8.8c-.1 0-.1-.1-.2-.1h-.1c.1-.3.3-.7.5-.9.1 0 .2 0 .3.1zm-2.8-.7c.1.1.3.2.4.2-.3.4-.6.7-.8.7 0 0-.2 0-.3-.1-.1 0-.2-.1-.3-.2l.6-.9c.1.1.3.2.4.3zm-.7-.7s.1.1.1.2c-.1-.1-.2-.1-.2-.2h.1zm-4.6-1.5s.1-.1.2-.1c-.1 0-.1.1-.2.1zm11.5-1.8c0 .1-.2.4-.5.8-.3-.4-.6-.7-.7-.9v-.1c.1-.1.2-.3.4-.4.3.2.6.4.8.6zm-7.6-1.2c-.4.3-.7.7-1 .7 0 0-.2-.1-.3-.3-.1-.1-.2-.3-.3-.4.3-.1.7-.2 1-.4.2.2.4.3.6.4zm13.3-.9s.1.1.2.1c-.1.1-.1.3-.2.4-.3-.1-.5-.2-.6-.3.1-.1.3-.2.4-.3 0 0 .1.1.2.1zm-11-3.9c-.2.3-.5.5-.8.7-.2-.4-.3-.8-.5-1.2.2-.3.4-.7.5-1 .3.5.7 1 .8 1.5zm7.4-3.3c-.1-.1-.1-.1-.1-.2 0 0 .1.1.1.2zm1.5-1.5c-.1 0-.1-.1-.1-.2 0 .1.1.1.1.2zm-2.4-1.5c0-.1.1-.1.2-.1-.1 0-.1.1-.2.1zm-9.1-2.9v.2c-.1.4-.3.8-.5 1.2H3c0-.6 0-1.1.2-1.6 0 0 .2-.1.3-.1s.2 0 .3-.1c.1.2.1.3.1.4zm3.9-.8c0-.1 0-.2.1-.2 0 .1-.1.1-.1.2zm-2.4-3c.1-.1.2-.1.3-.1-.1 0-.2.1-.3.1zm9.2-.7c-.1-.1-.1-.1-.1-.2.1 0 .1.1.1.2zM4 468.7c0-.2.1-.2.1-.3 0 .1 0 .2-.1.3zm4.3-1s0 .1 0 0c-.1 0-.1 0 0 0zm-5.4-3.5c0-.1.1-.2.1-.2s0 .1-.1.2zm9.1-.7c-.1-.1 0-.2.1-.2 0 .1-.1.1-.1.2zm-10.5-.8c-.1-.1-.1-.1-.1-.2.1 0 .1.1.1.2zm8.8-.8c.1-.1.2-.1.3-.1-.1 0-.2.1-.3.1zM8.2 459c0-.1 0-.2.1-.3 0 .1 0 .2-.1.3zM3 455.1c0 .1-.1.1-.2.1.1 0 .1-.1.2-.1zm9.9 1.5h.2c-.2.6-.2 1.1-.3 1.6 0 0-.2.1-.3.1s-.2 0-.3.1V457.8c.1-.4.3-.8.5-1.2h.2zm-5.4-.8c-.4.4-.8.7-1.2 1-.1 0-.2-.1-.3-.2l-.2-.1c.2-.5.5-1 .8-1.6.4.3.7.6.9.9zm11.2-1.7h-.2c0-.1-.7-.3-.6-.5l.1-.1c.1.1.3.3.7.6zm-17.9-.4c-.1 0-.1-.1-.1-.2.1 0 .1.1.1.2zm1.5-1.4c-.1-.1-.1-.1-.1-.2 0 0 .1.1.1.2zm8.6-3c-.2.3-.4.7-.5 1-.3-.5-.7-1-.7-1.5v-.1c.1-.2.4-.4.7-.6.1.3.3.7.5 1.2zm2.3-5.8c.1.1.2.3.3.4-.3.1-.7.2-1 .4-.3-.1-.5-.2-.7-.4.4-.3.8-.6 1.1-.7 0 0 .2.1.3.3zm-7.8-.6c-.1.2-.3.3-.4.5-.3-.2-.6-.4-.7-.6 0-.1.2-.4.5-.8.3.4.6.7.6.9zm10.4-1.9c-.1 0-.2.1-.2.1.1-.1.1-.2.2-.1zm2.1-1.4c0-.1.1-.1.2-.1-.1 0-.1.1-.2.1zm-6.6-.1c-.2 0-.2-.1-.2-.2l.2.2zm-1-3.8c.1 0 .2 0 .3.1-.1 0-.2 0-.3-.1zm5.5 0c0 .1-.1.1-.2.1.1 0 .1-.1.2-.1zm-4.7 2.2c.1 0 .2.1.3.2l-.6.9c-.1 0-.2-.1-.3-.2s-.3-.2-.4-.2c.3-.4.6-.7.8-.7 0-.1.1 0 .2 0zm-2.8-.6c-.1.4-.2.7-.4.9 0 0-.2-.1-.3-.1s-.2-.1-.3-.1l.8-.8c.1 0 .2 0 .2.1zm10.5-.7c-.1 0-.1.1-.2.1s-.2.1-.2.1c-.5-.3-.9-.6-1.4-.9l.9-.9c.3.5.6 1 .9 1.6zm-12-6.7c-.1 0-.1-.1-.1-.2 0 .1.1.1.1.2zM3 426.2c-.1-.1 0-.2.1-.2 0 .1-.1.1-.1.2zm0-1.5c-.1-.1-.2-.3-.3-.5.3-.2.5-.4.8-.6 0 0 .1 0 .2.1 0 0 .1 0 .1.1-.3.3-.6.6-.8.9zm14.9-.8c-.3.1-.6.2-.9.2-.2 0-.3-.1-.6-.2.2-.1.5-.2.8-.4.2.1.5.2.7.4zm-2-.7c-.2 0-.2 0-.3-.1v-.1c.1 0 .2.1.3.2zm-9.7-2.7c0 .1 0 .2-.1.3 0 .1-.1.1-.1.2-.2-.2-.4-.3-.6-.5-.2-.2-.3-.3-.3-.4s.1-.2.3-.4c.1-.1.3-.2.4-.4.2.5.3.8.4 1.2zm-.4-3.3c.1 0 .1.1.2.1-.5.2-.8.3-1.1.5 0-.1-.1-.1-.1-.2s-.1-.2-.1-.2c0-.1.1-.2.1-.2H5c.2-.1.3-.1.5-.1.1 0 .1 0 .3.1zm10.9-.3c0-.1-.1-.1-.1-.2.1 0 .2-.1.3-.1l-.2.3zm-4.3-6.1c-.6.3-1.1.6-1.6.9 0 0-.1 0-.2-.1l-.1-.1c.5-.3 1-.6 1.6-.9.1.1.2.1.3.2zm3.5-8.8c0-.1 0-.2.1-.3 0 .1 0 .2-.1.3zm0-2.3c0-.1 0-.2.2-.1-.1 0-.2.1-.2.1zm-2.9-.8c-.1 0-.2 0-.3-.1.2 0 .3.1.3.1zm1.6-1.7s0 .1-.1.2c0 0 0 .1-.1.1l-.3-.6c.1-.1.2-.3.2-.4.2.3.3.5.3.7zm-1.8-10.9c.1-.1.2-.1.3-.1-.1 0-.2.1-.3.1zm-9.6-2.2c0-.1-.1-.2-.1-.2.1 0 .1.1.1.2zm11.6-.8c-.1.3-.2.5-.3.6-.1-.1-.2-.3-.3-.4 0 0 0-.1.1-.2 0 0 .1-.1.1-.2.1.1.2.2.4.2zm-9.5-4.7s.1.1.2.1c-.1.1-.1.3-.2.4-.3-.1-.5-.2-.6-.3.2-.1.3-.2.4-.3.1 0 .1.1.2.1zm11.5-4.5l-.2.3c-.3-.3-.5-.5-.7-.8.1-.1.2-.1.2-.2l.1-.1c.3.3.5.5.6.8zm-4.1-1c-.1-.3-.2-.6-.3-1 .1 0 .2-.1.3-.2.1.5.1.8 0 1.2zM1 371.3l.1.1c-.3 0-.5.1-.7.1H.3s0-.1-.1-.1v-.1c.3-.1.5-.1.7-.2 0 0 0 .1.1.2zm8.2-4.4c-.1.1-.3.1-.6.2-.1-.3-.3-.6-.3-.9 0 0 0-.1.1-.2l.1-.1.7 1zm-3.7-.8c-.1 0-.2 0-.3-.1l.1-.1.2.2zm-.8-.9c0 .2-.2.3-.3.4-.2-.1-.3-.2-.5-.4.2-.1.4-.2.6-.2 0 .1.1.2.2.2zm6.1-2.8c-.1 0-.2 0-.3-.1.1 0 .2 0 .3.1zm-2.3-2.9c-.1 0-.1-.1-.1-.2 0 0 .1.1.1.2zM4.8 358c-.1 0-.1-.1-.1-.2 0 0 0 .1.1.2zm9-3c-.1 0-.1-.1-.1-.2 0 0 0 .1.1.2zm-5.1-.5c-.2.2-.5.4-.8.6 0 0-.1 0-.2-.1 0 0-.1 0-.1-.1l.7-1c.2.3.3.4.4.6zm4.4-1.4c.1.1.3.2.5.2-.2.1-.4.3-.6.4-.3-.1-.5-.2-.7-.3.2-.1.5-.3.8-.3zM5 351c.1.2.3.3.5.5-.5.1-.9.3-1.4.4-.3-.1-.6-.2-1-.4.5-.4.9-.8 1.4-.9.1.1.3.2.5.4zm-2.7-7.7c.1 0 .1.1.1.2 0-.1-.1-.1-.1-.2zm1.5 1.5c-.2.1-.5.3-.7.3H3c-.2 0-.4-.1-.6-.1.2-.1.4-.3.6-.4.3 0 .6.1.8.2zm4.5-1.6s.1 0 0 0l-.6 1.1c-.1-.1-.2-.3-.3-.5.2-.2.5-.4.9-.6-.2-.1-.1 0 0 0zm3.1-2.7c-.1 0-.1-.1-.1-.2.1 0 .1.1.1.2zM7.7 339c-.1 0-.1-.1-.1-.2 0 0 .1.1.1.2zm-2.2-3c-.1 0-.2 0-.3-.1.2 0 .2 0 .3.1zm6.6-3.1c-.2.1-.4.2-.6.2 0 0-.1 0-.1-.1l-.1-.1c.1-.1.3-.2.4-.3.2.1.3.2.4.3zm-1.3-.7c-.2 0-.2 0-.3-.1v-.1c.1.1.2.2.3.2zm-3-.2s0 .1-.1.2l-.1.1-.7-1c.1-.1.3-.1.6-.2.1.3.3.6.3.9zm8.1-5.1c-.3.2-.5.2-.7.3 0 0-.1-.1-.1-.2l-.1-.1c.3-.1.5-.1.9 0-.1-.1-.1 0 0 0zm-12.3-.8c-.1 0-.2.1-.3.2-.1-.4 0-.8 0-1.2.1.3.2.6.3 1zm-.3-1.2c-.1 0 0 0 0 0zm8.1-5.5c-.1.1-.3.2-.4.3 0 0-.1 0-.2-.1 0 0-.1-.1-.2-.1.1-.1.1-.3.2-.4.2.2.4.3.6.3zm-9.7-4.5s-.1.1-.1.2c-.1-.1-.3-.1-.4-.2.1-.3.2-.5.3-.6.2.2.3.3.3.4 0 0 0 .1-.1.2zm11.2-.5c-.1 0-.1-.1-.1-.2.1.1.1.1.1.2zm-11-13.1c-.1.1-.2.3-.2.4-.1-.2-.2-.4-.2-.6 0 0 0-.1.1-.2l.1-.1c0 .2.1.4.2.5zm-1.8-4.8s0-.1.1-.2c0 .1-.1.1-.1.2zm18.2-6c-.1 0-.2 0-.3-.1.1 0 .2.1.3.1zm-12.9-3.9l.1.1c-.5.3-1 .7-1.5.9-.1-.1-.2-.1-.3-.2.6-.3 1.1-.6 1.6-.9 0 0 0 .1.1.1zm13.1-6.2c-.1 0-.2 0-.3-.1.1 0 .2.1.3.1zm-7.2.2c0 .1.1.2.1.2 0 .1-.1.2-.1.2H10.5s-.1 0-.2-.1c-.1 0-.1-.1-.2-.1.5-.2.8-.3 1.1-.5 0 .2.1.3.1.3zm-.6-2.9c.2.2.3.3.3.4s-.1.2-.3.4c-.1.1-.3.2-.4.4-.1-.4-.3-.8-.4-1.1 0-.1 0-.1.1-.3 0-.1.1-.1.1-.2.2.1.4.3.6.4zM4.1 276c-.1 0-.1-.1-.1-.2.1.1.1.1.1.2zm-3.7-.8c-.1 0-.2 0-.3-.1l.1-.1c.1.1.2.1.2.2zm13-1.1c-.3.2-.5.4-.8.6 0 0-.1 0-.2-.1 0 0-.1 0-.1-.1.3-.3.5-.6.8-.9.1.1.2.2.3.5zm-.4-1.8c0-.1.1-.2.1-.3 0 .1 0 .2-.1.3zm-3.6-3.8c-.1 0-.1-.1-.1-.2 0 .1.1.2.1.2zm-3.7-6c-.1 0-.2 0-.3-.1.1 0 .2.1.3.1zm-5.5 0c.1 0 .2-.1.2-.1 0 .1-.1.1-.2.1zm15-.7c.1-.1.2-.1.3-.1-.1 0-.2.1-.3.1zm-6.8-1.6c.1 0 .2.1.3.1l-.8.8c-.1 0-.1-.1-.2-.1h-.1c.1-.3.3-.7.5-.9.1 0 .2 0 .3.1zm-2.8-.7c.1.1.3.2.4.2-.3.4-.6.7-.8.7 0 0-.2 0-.3-.1-.1 0-.2-.1-.3-.2l.6-.9c.1.1.3.2.4.3zm-.7-.7s.1.1.1.2c-.1-.1-.2-.1-.2-.2h.1zm-4.6-1.5s.1-.1.2-.1c-.1 0-.1.1-.2.1zm11.5-1.8c0 .1-.2.4-.5.8-.3-.4-.6-.7-.7-.9v-.1c.1-.1.2-.3.4-.4.3.2.6.4.8.6zm-7.6-1.2c-.4.3-.7.7-1 .7 0 0-.2-.1-.3-.3-.1-.1-.2-.3-.3-.4.3-.1.7-.2 1-.4.2.2.4.3.6.4zm13.3-.9s.1.1.2.1c-.1.1-.1.3-.2.4-.3-.1-.5-.2-.6-.3.1-.1.3-.2.4-.3 0 0 .1.1.2.1zm-11-3.9l-.1.1c-.1.2-.4.4-.7.6-.2-.4-.3-.8-.5-1.2.2-.3.4-.7.5-1 .3.5.7 1 .8 1.5zm7.4-3.3c-.1-.1-.1-.1-.1-.2 0 0 .1.1.1.2zm1.5-1.5c-.1 0-.1-.1-.1-.2 0 .1.1.1.1.2zm-2.4-1.5c0-.1.1-.1.2-.1-.1 0-.1.1-.2.1zm-9.1-2.9v.2c-.1.4-.3.8-.5 1.2H3c0-.6 0-1.1.2-1.6 0 0 .2-.1.3-.1s.2 0 .3-.1c.1.2.1.3.1.4zm3.9-.8c0-.1 0-.2.1-.2 0 .1-.1.1-.1.2zm-2.4-3c.1-.1.2-.1.3-.1-.1 0-.2.1-.3.1zm9.2-.7c-.1-.1-.1-.1-.1-.2.1 0 .1.1.1.2zM4 235.1c0-.2.1-.2.1-.3 0 .1 0 .2-.1.3zm4.3-.9c-.1-.1 0-.1 0 0 0-.1 0 0 0 0zm-5.4-3.6c0-.1.1-.2.1-.2s0 .1-.1.2zm9.1-.7c-.1-.1 0-.2.1-.2 0 .1-.1.1-.1.2zm-10.5-.8c-.1-.1-.1-.1-.1-.2.1 0 .1.1.1.2zm8.8-.8c.1-.1.2-.1.3-.1-.1 0-.2.1-.3.1zm-2.1-2.9c0-.1 0-.2.1-.3 0 .1 0 .2-.1.3zM3 221.5c0 .1-.1.1-.2.1.1 0 .1-.1.2-.1zm9.9 1.5h.2c-.2.6-.2 1.1-.3 1.6 0 0-.2.1-.3.1s-.2 0-.3.1V224.2c.1-.4.3-.8.5-1.2h.2zm-5.4-.8c-.4.4-.8.7-1.2 1-.1 0-.2-.1-.3-.2l-.2-.1c.2-.5.5-1 .8-1.6.4.3.7.6.9.9zm11.2-1.7h-.2c0-.1-.7-.3-.6-.5l.1-.1c.1.1.3.3.7.6zm-17.9-.4c-.1 0-.1-.1-.1-.2.1 0 .1.1.1.2zm1.5-1.4c-.1-.1-.1-.1-.1-.2 0 0 .1.1.1.2zm8.6-3c-.2.3-.4.7-.5 1-.3-.5-.7-1-.7-1.5v-.1c.1-.2.4-.4.7-.6.1.3.3.7.5 1.2zm2.3-5.8c.1.1.2.3.3.4-.3.1-.7.2-1 .4-.3-.1-.5-.2-.7-.4.4-.3.8-.6 1.1-.7 0 0 .2.1.3.3zm-7.8-.6c-.1.2-.3.3-.4.5-.3-.2-.6-.4-.7-.6 0-.1.2-.4.5-.8.3.4.6.7.6.9zm10.4-1.9c-.1 0-.2.1-.2.1.1-.1.1-.2.2-.1zm2.1-1.4c0-.1.1-.1.2-.1-.1 0-.1.1-.2.1zm-6.6-.1c-.2 0-.2-.1-.2-.2l.2.2zm-1-3.8c.1 0 .2 0 .3.1-.1 0-.2 0-.3-.1zm5.5 0c0 .1-.1.1-.2.1.1 0 .1-.1.2-.1zm-4.7 2.2c.1 0 .2.1.3.2l-.6.9c-.1 0-.2-.1-.3-.2-.1-.1-.3-.2-.4-.2.3-.4.6-.7.8-.7 0-.1.1 0 .2 0zm-2.8-.6c-.1.4-.2.7-.4.9 0 0-.2-.1-.3-.1s-.2-.1-.3-.1l.8-.8c.1 0 .2 0 .2.1zm10.5-.7c-.1 0-.1.1-.2.1s-.2.1-.2.1c-.5-.3-.9-.6-1.4-.9l.9-.9c.3.5.6 1 .9 1.6zm-12-6.7c-.1 0-.1-.1-.1-.2 0 .1.1.1.1.2zM3 192.6c-.1-.1 0-.2.1-.2 0 .1-.1.1-.1.2zm0-1.5c-.1-.1-.2-.3-.3-.5.3-.2.5-.4.8-.6 0 0 .1 0 .2.1 0 0 .1 0 .1.1-.3.3-.6.6-.8.9zm14.9-.8c-.3.1-.6.2-.9.2-.2 0-.3-.1-.6-.2.2-.1.5-.2.8-.4.2.1.5.2.7.4zm-2-.7c-.2 0-.2 0-.3-.1v-.1c.1 0 .2.1.3.2zm-9.7-2.7c0 .1 0 .2-.1.3 0 .1-.1.1-.1.2-.2-.2-.4-.3-.6-.5-.2-.2-.3-.3-.3-.4 0-.1.1-.2.3-.4.1-.1.3-.2.4-.4.2.5.3.8.4 1.2zm-.4-3.3c.1 0 .1.1.2.1-.5.2-.8.3-1.1.5 0-.1-.1-.1-.1-.2s-.1-.2-.1-.2c0-.1.1-.2.1-.2H5c.2-.1.3-.1.5-.1.1 0 .1 0 .3.1zm10.9-.3c0-.1-.1-.1-.1-.2.1 0 .2-.1.3-.1l-.2.3zm-4.3-6.1c-.6.3-1.1.6-1.6.9 0 0-.1 0-.2-.1l-.1-.1c.5-.3 1-.6 1.6-.9.1.1.2.1.3.2zm3.5-8.8c0-.1 0-.2.1-.3 0 .1 0 .2-.1.3zm0-2.3c0-.1 0-.2.2-.1-.1 0-.2.1-.2.1zm-2.9-.8c-.1 0-.2 0-.3-.1.2 0 .3.1.3.1zm1.6-1.7s0 .1-.1.2c0 0 0 .1-.1.1l-.3-.6c.1-.1.2-.3.2-.4.2.3.3.5.3.7zm-1.8-10.9c.1-.1.2-.1.3-.1-.1 0-.2.1-.3.1zm-9.6-2.2c0-.1-.1-.2-.1-.2.1 0 .1.1.1.2zm11.6-.8c-.1.3-.2.5-.3.6-.1-.1-.2-.3-.3-.4 0 0 0-.1.1-.2 0 0 .1-.1.1-.2.1.1.2.2.4.2zM5.3 145s.1.1.2.1c-.1.1-.1.3-.2.4-.3-.1-.5-.2-.6-.3.2-.1.3-.2.4-.3.1 0 .1.1.2.1zm11.5-4.5l-.2.3c-.3-.3-.5-.5-.7-.8.1-.1.2-.1.2-.2l.1-.1c.3.3.5.5.6.8zm-4.1-1c-.1-.3-.2-.6-.3-1 .1 0 .2-.1.3-.2.1.5.1.8 0 1.2zM1 137.7l.1.1c-.3 0-.5.1-.7.1H.3s0-.1-.1-.1v-.1c.3-.1.5-.1.7-.2 0 0 0 .1.1.2zm4.2-5.3c.2 0 .3.1.3.1-.1 0-.2 0-.3-.1zm4 .9c-.1.1-.3.1-.6.2-.1-.3-.3-.6-.3-.9 0 0 0-.1.1-.2l.1-.1.7 1zm-4.5-1.7c0 .2-.2.3-.3.4-.2-.1-.3-.2-.5-.4.2-.1.4-.2.6-.2 0 .1.1.2.2.2zm6.1-2.8c-.1 0-.2 0-.3-.1.1 0 .2 0 .3.1zm-2.3-2.9c-.1 0-.1-.1-.1-.2 0 0 .1.1.1.2zm-3.7-1.5c-.1 0-.1-.1-.1-.2 0 0 0 .1.1.2zm9-3c-.1 0-.1-.1-.1-.2 0 0 0 .1.1.2zm-5.1-.5c-.2.2-.5.4-.8.6 0 0-.1 0-.2-.1 0 0-.1 0-.1-.1l.7-1c.2.3.3.4.4.6zm4.4-1.4c.1.1.3.2.5.2-.2.1-.4.3-.6.4-.3-.1-.5-.2-.7-.3.2-.1.5-.3.8-.3zM5 117.4c.1.2.3.3.5.5-.5.1-.9.3-1.4.4-.3-.1-.6-.2-1-.4.5-.4.9-.8 1.4-.9.1.1.3.2.5.4zm-2.7-7.7c.1 0 .1.1.1.2 0-.1-.1-.1-.1-.2zm1.5 1.5c-.2.1-.5.3-.7.3H3c-.2 0-.4-.1-.6-.1.2-.1.4-.3.6-.4.3 0 .6.1.8.2zm4.5-1.6s.1 0 .1.1l-.7 1c-.1-.1-.2-.3-.3-.5.2-.2.5-.4.9-.6-.2-.1-.1 0 0 0zm3.1-2.7c-.1 0-.1-.1-.1-.2.1 0 .1.1.1.2zm-3.7-1.5c-.1 0-.1-.1-.1-.2 0 0 .1.1.1.2zm-2.2-3c-.1 0-.2 0-.3-.1.2 0 .2 0 .3.1zm6.6-3.1c-.2.1-.4.2-.6.2 0 0-.1 0-.1-.1l-.1-.1c.1-.1.3-.2.4-.3.2.1.3.2.4.3zm-1.3-.7c-.2 0-.2 0-.3-.1v-.1c.1.1.2.2.3.2zm-3-.2s0 .1-.1.2l-.1.1-.7-1c.1-.1.3-.1.6-.2.1.3.3.6.3.9zm8.1-5.1c-.3.2-.5.2-.7.3 0 0-.1-.1-.1-.2l-.1-.1c.3-.1.5-.1.8-.1 0 0 0 .1.1.1zm-12.3-.8c-.1 0-.2.1-.3.2-.1-.4 0-.8 0-1.2.1.3.2.6.3 1zm7.8-6.7c-.1.1-.3.2-.4.3 0 0-.1 0-.2-.1 0 0-.1-.1-.2-.1.1-.1.1-.3.2-.4.2.2.4.3.6.3zm-9.7-4.5s-.1.1-.1.2c-.1-.1-.3-.1-.4-.2.1-.3.2-.5.3-.6.2.2.3.3.3.4 0 0 0 .1-.1.2zm11.2-.5c-.1 0-.1-.1-.1-.2.1.1.1.1.1.2zm-11-13.1c-.1.1-.2.3-.2.4-.1-.2-.2-.4-.2-.6 0 0 0-.1.1-.2l.1-.1c0 .2.1.4.2.5zM.1 62.9s0-.1.1-.2c0 .1-.1.1-.1.2zm18.2-6c-.1 0-.2 0-.3-.1.1 0 .2.1.3.1zM5.4 53l.1.1c-.5.3-1 .7-1.5.9-.1-.1-.2-.1-.3-.2.6-.3 1.1-.6 1.6-.9 0 0 0 .1.1.1zm13.1-6.2c-.1 0-.2 0-.3-.1.1 0 .2.1.3.1zm-7.2.2c0 .1.1.2.1.2 0 .1-.1.2-.1.2H10.5s-.1 0-.2-.1c-.1 0-.1-.1-.2-.1.5-.2.8-.3 1.1-.5 0 .2.1.3.1.3zm-.6-2.9c.2.2.3.3.3.4 0 .1-.1.2-.3.4-.1.1-.3.2-.4.4-.1-.4-.3-.8-.4-1.1 0-.1 0-.1.1-.3 0-.1.1-.1.1-.2.2.1.4.3.6.4zm-6.6-1.7c-.1 0-.1-.1-.1-.2.1.1.1.1.1.2zm-3.7-.8c-.1 0-.2 0-.3-.1l.1-.1c.1.1.2.1.2.2zm13-1.1c-.3.2-.5.4-.8.6 0 0-.1 0-.2-.1 0 0-.1 0-.1-.1.3-.3.5-.6.8-.9.1.1.2.2.3.5zm-.4-1.8c0-.1.1-.2.1-.3 0 .1 0 .2-.1.3zm-3.6-3.8c-.1 0-.1-.1-.1-.2 0 .1.1.2.1.2zm-3.7-6c-.1 0-.2 0-.3-.1.1 0 .2.1.3.1zm-5.5 0c.1 0 .2-.1.2-.1 0 .1-.1.1-.2.1zm15-.7c.1-.1.2-.1.3-.1-.1 0-.2.1-.3.1zm-6.8-1.6c.1 0 .2.1.3.1l-.8.8c-.1 0-.1-.1-.2-.1h-.1c.1-.3.3-.7.5-.9.1 0 .2 0 .3.1zm-2.8-.7c.1.1.3.2.4.2-.3.4-.6.7-.8.7 0 0-.2 0-.3-.1-.1 0-.2-.1-.3-.2l.6-.9c.1.1.3.2.4.3zm-.7-.7s.1.1.1.2c-.1-.1-.2-.1-.2-.2h.1zM.3 23.7s.1-.1.2-.1c-.1 0-.1.1-.2.1zm11.5-1.8c0 .1-.2.4-.5.8-.3-.4-.6-.7-.7-.9v-.1c.1-.1.2-.3.4-.4.3.2.6.4.8.6zm-7.6-1.2c-.4.3-.7.7-1 .7 0 0-.2-.1-.3-.3-.1-.1-.2-.3-.3-.4.3-.1.7-.2 1-.4.2.2.4.3.6.4zm13.3-.9s.1.1.2.1c-.1.1-.1.3-.2.4-.3-.1-.5-.2-.6-.3.1-.1.3-.2.4-.3 0 0 .1.1.2.1zm-11-3.9c-.2.3-.5.5-.8.7-.2-.4-.3-.8-.5-1.2.2-.3.4-.7.5-1 .3.5.7 1 .8 1.5zm7.4-3.3c-.1-.1-.1-.1-.1-.2 0 0 .1.1.1.2zm1.5-1.5c-.1 0-.1-.1-.1-.2 0 .1.1.1.1.2zM13 9.6c0-.1.1-.1.2-.1-.1 0-.1.1-.2.1zM3.9 6.7v.2c-.1.4-.3.8-.5 1.2H3c0-.6 0-1.1.2-1.6 0 0 .2-.1.3-.1s.2 0 .3-.1c.1.2.1.3.1.4zm3.9-.8c0-.1 0-.2.1-.2 0 .1-.1.1-.1.2zm-2.4-3c.1-.1.2-.1.3-.1-.1 0-.2.1-.3.1zm9.2-.7c-.1-.1-.1-.1-.1-.2.1 0 .1.1.1.2zM4 1.5c0-.2.1-.2.1-.3 0 .1 0 .2-.1.3z"/><path id="XMLID_35_" class="st0" d="M19.6 28l.2-.2c-.1-.1-.2-.1-.3-.2l-.2.2c.1.1.2.2.3.2z"/><path id="XMLID_34_" class="st0" d="M19.3 24.1c.1-.1.2-.1.3-.2l-.2-.1c-.1 0-.2.1-.3.2l.2.1z"/><path id="XMLID_33_" class="st0" d="M22.7 17.9c.1-.1.2-.3.2-.4 0-.2-.2-.4-.3-.6-.1.1-.2.3-.3.4.2.2.3.4.4.6z"/><path id="XMLID_32_" class="st0" d="M24 22.7v-.4c-.1.1-.2.1-.3.2.1 0 .2.1.3.2z"/><path id="XMLID_31_" class="st0" d="M23.5 22l-.2-.2c-.1 0-.3 0 .2.2z"/><path id="XMLID_30_" class="st0" d="M24 22.2V22c-.2 0-.4-.1-.5-.1l.1.2c.2.1.3.1.4.1z"/><path id="XMLID_29_" class="st0" d="M22.5 22c.4.1.5.2.7.3h.5v-.1c-.3-.1-.7-.1-1.2-.2z"/><path id="XMLID_28_" class="st0" d="M20.4 136.4c.4.2.6.3.7.3h.5v-.1c.1 0 .2.1.3.1v-.2c-.2 0-.4-.1-.5-.1l.1.2c-.3-.1-.7-.1-1.1-.2z"/><path id="XMLID_27_" class="st0" d="M21.9 137.2v-.4c-.1.1-.2.1-.3.2.1 0 .2.1.3.2z"/><path id="XMLID_26_" class="st0" d="M19.3 157c.1-.1.2-.1.3-.2l-.2-.1c-.1 0-.2.1-.3.2l.2.1z"/><path id="XMLID_25_" class="st0" d="M22 132.1l.2-.2c-.1 0-.2-.1-.3-.1l-.2.2c.1 0 .2.1.3.1z"/><path id="XMLID_24_" class="st0" d="M22.8 135.3c.1-.1.1-.2.2-.3l-.2-.2c0 .1-.1.2-.1.3l.1.2z"/><path id="XMLID_23_" class="st0" d="M19.6 160.9l.2-.2c-.1-.1-.2-.1-.3-.2l-.2.2c.1.1.2.2.3.2z"/><path id="XMLID_22_" class="st0" d="M25.5 116.1c.2 0 .3-.2.4-.3-.1 0-.3-.1-.7-.2 0 .1-.1.3-.2.4.3 0 .4.1.5.1z"/><path id="XMLID_21_" class="st0" d="M20.7 221c-.1 0-.2-.1-.4-.1l-.2.3c.3-.1.5-.2.6-.2z"/><path id="XMLID_20_" class="st0" d="M22.2 215.7c0-.1.1-.2.1-.3l-.2-.2c-.1.1-.1.2-.2.3l.3.2z"/><path id="XMLID_19_" class="st0" d="M21.2 174.6l.2-.2c-.1 0-.2-.1-.3-.1l-.2.2c.1 0 .2.1.3.1z"/><path id="XMLID_18_" class="st0" d="M21.7 214.8c.1-.1.1-.2.2-.3l-.2-.2c0 .1-.1.2-.1.3l.1.2z"/><path id="XMLID_17_" class="st0" d="M29.8 207.5l.2-.2c-.1-.1-.1-.2-.2-.3l-.1.2c-.1.1 0 .2.1.3z"/><path id="XMLID_16_" class="st0" d="M21.4 136.5l-.2-.2c-.1-.1-.3 0 .2.2z"/><path id="XMLID_15_" class="st0" d="M25.4 119.4s.2-.1.3-.1c-.1-.1-.1-.1-.4-.3h-.1c.1.2.1.3.2.4z"/><path id="XMLID_14_" class="st0" d="M24.7 122.9l.2-.2c-.1 0-.2-.1-.3-.1l-.2.2c.1 0 .2.1.3.1z"/><path id="XMLID_13_" class="st0" d="M21 121.6c.1 0 .2-.1.3-.2l-.2-.2c-.1.1-.2.1-.3.2l.2.2z"/><path id="XMLID_12_" class="st0" d="M24.8 118.6z"/><path id="XMLID_11_" class="st0" d="M25 118.9c-.1 0-.2-.1-.3-.2l.3.3v-.1l.3.1h.1c-.1-.1-.2-.1-.4-.1 0-.1-.1-.1-.2-.2.1 0 .1.1.2.2z"/><path id="XMLID_10_" class="st0" d="M23.5 119.6c.1-.1.2-.3.3-.5-.2-.2-.4-.4-.6-.5-.1 0-.3.1-.4.2.2.3.5.5.7.8z"/><path id="XMLID_9_" class="st0" d="M19.7 128.3l.3.3.1-.1.2.1h.1c-.1-.1-.2-.1-.3-.2l-.1.1c-.1-.1-.2-.1-.3-.2z"/><path id="XMLID_8_" class="st0" d="M20.4 129s.2-.1.3-.1c-.1-.1-.1-.1-.4-.3h-.1c0 .1.1.3.2.4z"/><path id="XMLID_7_" class="st0" d="M23.7 123.5l.1-.2c0-.1-.1-.2-.2-.3l-.1.2c0 .1.1.2.2.3z"/><path id="XMLID_6_" class="st0" d="M20.8 131.7c.1 0 .2-.1.3-.2l-.2-.2c-.1.1-.2.1-.3.2l.2.2z"/><path id="XMLID_5_" class="st0" d="M20.1 128.4c-.1-.1-.1-.2-.3-.3.1.1 0 .1.3.3z"/><path id="XMLID_4_" class="st0" d="M21.7 127.3c.1-.1.1-.2.2-.3l-.2-.2c0 .1-.1.2-.1.3l.1.2z"/></g></svg>