<svg id="Layer_1" xmlns="http://www.w3.org/2000/svg" width="230" height="30" viewBox="-682 905.9 230 30"><style>.st0{fill:#eee}.st1{fill:#fcfcfc}</style><path class="st0" d="M-557.6 930.7c0 .1.1.2.2.3l.2-.2c-.1-.1-.1-.2-.2-.3l-.2.2zM-558 933.3l.2.1c.1 0 .2-.1.3-.2l-.2-.2c-.1.2-.2.3-.3.3zM-561.4 931.6l.2.1s0-.1-.2-.1zM-532.7 928.1c.1 0 .2.1.3.1l.2-.2c-.1-.1-.2-.1-.3-.2l-.2.3zM-531.8 927.6c.1.1.2.1.3.2l.2-.2c-.1 0-.2-.1-.3-.1l-.2.1zM-557.2 929.3l.2.2c.1-.1.2-.1.3-.2l-.2-.1c-.1 0-.2 0-.3.1zM-524.5 935.7l.2.2c.1-.1.2-.1.3-.2l-.2-.1c-.1-.1-.2 0-.3.1zM-566.1 928.2l.9.6c0-.1.1-.3.2-.6-.2-.1-.5-.2-.7-.2s-.3.1-.4.2zM-563.7 930.3l-.2.2c0 .5 0 1.1.5 1.4h.4c0-.1.1-.2.1-.3-.2-.4-.3-.8-.5-1.2 0 0-.2-.1-.3-.1zM-561.8 926.5c-.1 0-.2-.1-.3-.1l-.2.2c.1.1.2.1.3.2l.2-.3zM-561.3 930.6c.1 0 .1-.1.1-.2.1-.2-.2-.5-.3-.7l-.6.2c0 .3 0 .5.3.9l.3-.3c.1.1.1.1.2.1zM-561.5 931.5l.2-.2-.2-.1c-.1.1-.2.2-.2.3.1 0 .2.1.3.1l-.1-.1zM-467 927.1l-.7-.7c-.1.2-.3.5-.2.6.2.2.5.3.7.3l.2-.2zM-467.8 928.6c.1.1.3.2.4.2.2 0 .4-.2.6-.3-.1-.1-.3-.2-.4-.3-.2.2-.4.3-.6.4zM-471.9 929.4l.2-.2c0-.1 0-.3-.2.2zM-566 931.4c0 .2.2.3.3.4 0-.1.1-.3.2-.7-.1 0-.3-.1-.4-.2 0 .3-.1.4-.1.5zM-460.2 929.7s0 .1.1.1h.2c0-.1-.1-.2-.2-.3l-.1.2zM-452.3 928.7c.1.1.2.1.3.2l.2-.2c-.1 0-.2-.1-.3-.1l-.2.1zM-472.1 929.9h.2c0-.2.1-.4.1-.5l-.2.1c-.1.2-.1.3-.1.4zM-477.9 925.5l.2.2c.1-.1.1-.2.2-.3l-.2-.2c-.1.1-.2.2-.2.3zM-471.9 928.4c-.1.4-.2.5-.3.7v.5h.1c.1-.3.1-.7.2-1.2zM-474 925.2c.1.1.1.2.2.3l.1-.2c0-.1-.1-.2-.2-.3l-.1.2zM-491.6 927.1l.2.2c0-.1.1-.2.1-.3l-.2-.2c0 .1-.1.2-.1.3zM-472.6 929.9h.4c-.1-.1-.1-.2-.2-.3 0 .1-.1.2-.2.3zM-457.2 929.8c.1 0 .1.1.2.1h.3l.3-.3c-.1-.1-.3-.1-.7-.2 0 0-.1.2-.1.4zM-586.3 926.3c-.2.4-.3.6-.3.7v.5h.1c0 .1-.1.2-.1.3h.2c0-.2.1-.4.1-.5l-.2.1c.1-.3.1-.7.2-1.1zM-624.5 927.1l.2.2c0-.1.1-.2.1-.3l-.2-.2c0 .1-.1.2-.1.3zM-610.8 925.5l.2.2c.1-.1.1-.2.2-.3l-.2-.2c-.1.1-.2.2-.2.3zM-587.1 927.8h.4c-.1-.1-.1-.2-.2-.3 0 .1-.1.2-.2.3zM-585.2 928.7c.1.1.2.1.3.2l.2-.2c-.1 0-.2-.1-.3-.1l-.2.1z"/><path class="st0" d="M-586.4 927.3l.2-.2c.1-.1 0-.3-.2.2zM-670.9 926.6c0-.1.1-.2.1-.4l-.3-.2c.1.3.2.5.2.6zM-582 927.9l.2.2c0-.1.1-.2.1-.3l-.2-.2c0 .1-.1.2-.1.3zM-569.5 929.4c.1.1.3.2.5.3.2-.2.4-.4.5-.6 0-.1-.1-.3-.2-.4-.3.2-.5.5-.8.7zM-657.4 935.7l.2.2c.1-.1.2-.1.3-.2l-.2-.1c-.1-.1-.2 0-.3.1zM-665.6 928.1c.1 0 .2.1.3.1l.2-.2c-.1-.1-.2-.1-.3-.2l-.2.3zM-664.7 927.6c.1.1.2.1.3.2l.2-.2c-.1 0-.2-.1-.3-.1l-.2.1zM-606.9 925.2c.1.1.1.2.2.3l.1-.2c0-.1-.1-.2-.2-.3l-.1.2zM-568.5 930.7zM-571.5 926.9c0 .1.1.2.2.3l.2-.2c-.1-.1-.1-.2-.2-.3l-.2.2zM-569.3 931.3s.1.2.1.3c.1-.1.1-.1.3-.4v-.1c-.2.1-.3.1-.4.2zM-568.8 930.9c0-.1.1-.2.2-.3l-.3.3h.1l-.1.3v.1c.1-.1.1-.2.1-.4.1 0 .1-.1.2-.2 0 .1 0 .1-.2.2zM-581.6 926.7c0 .1.1.2.2.3l.2-.2c-.1-.1-.1-.2-.2-.3l-.2.2zM-572.8 930.6l.2.2c0-.1.1-.2.1-.3l-.2-.2c0 .1-.1.2-.1.3zM-578.2 925.6l-.3.3.1.1-.1.2v.1c.1-.1.1-.2.2-.3l-.1-.1c.1-.1.1-.2.2-.3zM-573.4 929.6l.2.1c.1 0 .2-.1.3-.2l-.2-.1c-.1 0-.2.1-.3.2z"/><path class="st0" d="M-578.3 926c.1-.1.2-.1.3-.3-.1.1-.1 0-.3.3zM-577.2 927.6c.1.1.2.1.3.2l.2-.2c-.1 0-.2-.1-.3-.1l-.2.1zM-578.9 926.3s.1.2.1.3c.1-.1.1-.1.3-.4v-.1c-.1 0-.3.1-.4.2zM-323.6 929.3l.2.2c.1-.1.2-.1.3-.2l-.2-.1c-.1 0-.2 0-.3.1zM-324 930.7c0 .1.1.2.2.3l.2-.2c-.1-.1-.1-.2-.2-.3l-.2.2zM-299.1 928.1c.1 0 .2.1.3.1l.2-.2c-.1-.1-.2-.1-.3-.2l-.2.3zM-324.4 933.3l.2.1c.1 0 .2-.1.3-.2l-.2-.2c-.1.2-.2.3-.3.3zM-290.9 935.7l.2.2c.1-.1.2-.1.3-.2l-.2-.1c-.1-.1-.2 0-.3.1zM-298.2 927.6c.1.1.2.1.3.2l.2-.2c-.1 0-.2-.1-.3-.1l-.2.1zM-327.8 931.6l.2.1s0-.1-.2-.1zM-332.5 928.2l.9.6c0-.1.1-.3.2-.6-.2-.1-.5-.2-.7-.2-.2 0-.3.1-.4.2zM-330.1 930.3l-.2.2c0 .5 0 1.1.5 1.4h.4c0-.1.1-.2.1-.3-.2-.4-.3-.8-.5-1.2 0 0-.2-.1-.3-.1zM-328.2 926.5c-.1 0-.2-.1-.3-.1l-.2.2c.1.1.2.1.3.2l.2-.3zM-218.7 928.7c.1.1.2.1.3.2l.2-.2c-.1 0-.2-.1-.3-.1l-.2.1zM-327.7 930.6c.1 0 .1-.1.1-.2.1-.2-.2-.5-.3-.7l-.6.2c0 .3 0 .5.3.9l.3-.3c.1.1.1.1.2.1zM-233.4 927.1l-.7-.7c-.1.2-.3.5-.2.6.2.2.5.3.7.3l.2-.2zM-226.6 929.7s0 .1.1.1h.2c0-.1-.1-.2-.2-.3l-.1.2zM-234.2 928.6c.1.1.3.2.4.2.2 0 .4-.2.6-.3-.1-.1-.3-.2-.4-.3-.2.2-.4.3-.6.4zM-223.6 929.8c.1 0 .1.1.2.1h.3l.3-.3c-.1-.1-.3-.1-.7-.2 0 0-.1.2-.1.4zM-332.4 931.4c0 .2.2.3.3.4 0-.1.1-.3.2-.7-.1 0-.3-.1-.4-.2 0 .3-.1.4-.1.5zM-240.4 925.2c.1.1.1.2.2.3l.1-.2c0-.1-.1-.2-.2-.3l-.1.2zM-258 927.1l.2.2c0-.1.1-.2.1-.3l-.2-.2c0 .1-.1.2-.1.3zM-244.3 925.5l.2.2c.1-.1.1-.2.2-.3l-.2-.2c-.1.1-.2.2-.2.3zM-238.3 928.4c-.1.4-.2.5-.3.7v.5h.1c.1-.3.1-.7.2-1.2zM-239 929.9h.4c-.1-.1-.1-.2-.2-.3 0 .1-.1.2-.2.3zM-238.5 929.9h.2c0-.2.1-.4.1-.5l-.2.1c-.1.2-.1.3-.1.4zM-238.3 929.4l.2-.2c0-.1 0-.3-.2.2zM-352.7 926.3c-.2.4-.3.6-.3.7v.5h.1c0 .1-.1.2-.1.3h.2c0-.2.1-.4.1-.5l-.2.1c.1-.3.1-.7.2-1.1zM-353.5 927.8h.4c-.1-.1-.1-.2-.2-.3 0 .1-.1.2-.2.3zM-373.3 925.2c.1.1.1.2.2.3l.1-.2c0-.1-.1-.2-.2-.3l-.1.2zM-351.6 928.7c.1.1.2.1.3.2l.2-.2c-.1 0-.2-.1-.3-.1l-.2.1z"/><path class="st0" d="M-352.8 927.3l.2-.2c.1-.1 0-.3-.2.2zM-377.2 925.5l.2.2c.1-.1.1-.2.2-.3l-.2-.2c-.1.1-.2.2-.2.3zM-348.4 927.9l.2.2c0-.1.1-.2.1-.3l-.2-.2c0 .1-.1.2-.1.3zM-432 928.1c.1 0 .2.1.3.1l.2-.2c-.1-.1-.2-.1-.3-.2l-.2.3zM-437.3 926.6c0-.1.1-.2.1-.4l-.3-.2c.1.3.2.5.2.6zM-431.1 927.6c.1.1.2.1.3.2l.2-.2c-.1 0-.2-.1-.3-.1l-.2.1zM-390.9 927.1l.2.2c0-.1.1-.2.1-.3l-.2-.2c0 .1-.1.2-.1.3zM-423.8 935.7l.2.2c.1-.1.2-.1.3-.2l-.2-.1c-.1-.1-.2 0-.3.1zM-334.9 930.7zM-335.9 929.4c.1.1.3.2.5.3.2-.2.4-.4.5-.6 0-.1-.1-.3-.2-.4-.3.2-.5.5-.8.7zM-337.9 926.9c0 .1.1.2.2.3l.2-.2c-.1-.1-.1-.2-.2-.3l-.2.2zM-335.7 931.3s.1.2.1.3c.1-.1.1-.1.3-.4v-.1c-.2.1-.3.1-.4.2zM-335.1 930.9c0-.1.1-.2.2-.3l-.3.3h.1l-.1.3v.1c0-.1 0-.2.1-.4.1 0 .1-.1.2-.2l-.2.2zM-348 926.7c0 .1.1.2.2.3l.2-.2c-.1-.1-.1-.2-.2-.3l-.2.2zM-339.2 930.6l.2.2c0-.1.1-.2.1-.3l-.2-.2c0 .1-.1.2-.1.3zM-344.6 925.6l-.3.3.1.1-.1.2v.1c.1-.1.1-.2.2-.3l-.1-.1c.1-.1.1-.2.2-.3z"/><path class="st0" d="M-345.3 926.3s.1.2.1.3c.1-.1.1-.1.3-.4v-.1c-.1 0-.3.1-.4.2zM-343.6 927.6c.1.1.2.1.3.2l.2-.2c-.1 0-.2-.1-.3-.1l-.2.1zM-339.8 929.6l.2.1c.1 0 .2-.1.3-.2l-.2-.1c-.1 0-.2.1-.3.2zM-344.7 926c.1-.1.2-.1.3-.3-.1.1-.1 0-.3.3zM-327.7 931.3l-.2-.1c-.1.1-.2.2-.2.3.1 0 .2.1.3.1l-.1-.1.2-.2zM-90 929.3l.2.2c.1-.1.2-.1.3-.2l-.2-.1c-.1 0-.2 0-.3.1zM-24.4 927.1l.2.2c0-.1.1-.2.1-.3l-.2-.2c0 .1-.1.2-.1.3zM-90.8 933.3l.2.1c.1 0 .2-.1.3-.2l-.2-.2c-.1.2-.2.3-.3.3zM-90.4 930.7c0 .1.1.2.2.3l.2-.2c-.1-.1-.1-.2-.2-.3l-.2.2zM-57.3 935.7l.2.2c.1-.1.2-.1.3-.2l-.2-.1c-.1-.1-.2 0-.3.1zM-64.6 927.6c.1.1.2.1.3.2l.2-.2c-.1 0-.2-.1-.3-.1l-.2.1zM-65.5 928.1c.1 0 .2.1.3.1l.2-.2c-.1-.1-.2-.1-.3-.2l-.2.3zM-94.1 930.6c.1 0 .1-.1.1-.2.1-.2-.2-.5-.3-.7l-.6.2c0 .3 0 .5.3.9l.3-.3c.1.1.1.1.2.1zM-96.5 930.3l-.2.2c0 .5 0 1.1.5 1.4h.4c0-.1.1-.2.1-.3-.2-.4-.3-.8-.5-1.2 0 0-.2-.1-.3-.1zM-98.9 928.2l.9.6c0-.1.1-.3.2-.6-.2-.1-.5-.2-.7-.2s-.3.1-.4.2zM-94.3 931.5l.2-.2-.2-.1c-.1.1-.2.2-.2.3.1 0 .2.1.3.1l-.1-.1zM-94.6 926.5c-.1 0-.2-.1-.3-.1l-.2.2c.1.1.2.1.3.2l.2-.3zM-94.2 931.6l.2.1s0-.1-.2-.1zM7 929.7s0 .1.1.1h.2c0-.1-.1-.2-.2-.3l-.1.2zM.2 927.1l-.7-.7c-.1.2-.3.5-.2.6.2.2.5.3.7.3l.2-.2zM-.6 928.6c.1.1.3.2.4.2.2 0 .4-.2.6-.3-.1-.1-.3-.2-.4-.3-.2.2-.4.3-.6.4zM10 929.8c.1 0 .1.1.2.1h.3l.3-.3c-.1-.1-.3-.1-.7-.2 0 0-.1.2-.1.4zM14.9 928.7c.1.1.2.1.3.2l.2-.2c-.1 0-.2-.1-.3-.1l-.2.1zM-198.4 928.1c.1 0 .2.1.3.1l.2-.2c-.1-.1-.2-.1-.3-.2l-.2.3zM-10.7 925.5l.2.2c.1-.1.1-.2.2-.3l-.2-.2c-.1.1-.2.2-.2.3zM-6.8 925.2c.1.1.1.2.2.3l.1-.2c0-.1-.1-.2-.2-.3l-.1.2zM-5.4 929.9h.4c-.1-.1-.1-.2-.2-.3 0 .1-.1.2-.2.3zM-4.7 928.4c-.1.4-.2.5-.3.7v.5h.1c.1-.3.1-.7.2-1.2zM-4.9 929.9h.2c0-.2.1-.4.1-.5l-.2.1c-.1.2-.1.3-.1.4zM-4.7 929.4l.2-.2c0-.1 0-.3-.2.2zM-111.1 926c.1-.1.2-.1.3-.3-.1.1-.1 0-.3.3zM-119.2 927.3l.2-.2c.1-.1 0-.3-.2.2zM-203.7 926.6c0-.1.1-.2.1-.4l-.3-.2c.1.3.2.5.2.6zM-118 928.7c.1.1.2.1.3.2l.2-.2c-.1 0-.2-.1-.3-.1l-.2.1zM-119.9 927.8h.4c-.1-.1-.1-.2-.2-.3 0 .1-.1.2-.2.3zM-114.8 927.9l.2.2c0-.1.1-.2.1-.3l-.2-.2c0 .1-.1.2-.1.3zM-114.4 926.7c0 .1.1.2.2.3l.2-.2c-.1-.1-.1-.2-.2-.3l-.2.2zM-190.2 935.7l.2.2c.1-.1.2-.1.3-.2l-.2-.1c-.1-.1-.2 0-.3.1zM-197.5 927.6c.1.1.2.1.3.2l.2-.2c-.1 0-.2-.1-.3-.1l-.2.1zM-139.7 925.2c.1.1.1.2.2.3l.1-.2c0-.1-.1-.2-.2-.3l-.1.2zM-157.3 927.1l.2.2c0-.1.1-.2.1-.3l-.2-.2c0 .1-.1.2-.1.3zM-143.6 925.5l.2.2c.1-.1.1-.2.2-.3l-.2-.2c-.1.1-.2.2-.2.3z"/><path class="st0" d="M-119.1 926.3c-.2.4-.3.6-.3.7v.5h.1c0 .1-.1.2-.1.3h.2c0-.2.1-.4.1-.5l-.2.1c.1-.3.1-.7.2-1.1zM-101.3 930.7zM-104.3 926.9c0 .1.1.2.2.3l.2-.2c-.1-.1-.1-.2-.2-.3l-.2.2zM-102.1 931.3s.1.2.1.3c.1-.1.1-.1.3-.4v-.1c-.2.1-.3.1-.4.2zM-102.3 929.4c.1.1.3.2.5.3.2-.2.4-.4.5-.6 0-.1-.1-.3-.2-.4-.3.2-.5.5-.8.7zM-101.6 930.9c0-.1.1-.2.2-.3l-.3.3h.1l-.1.3v.1c.1-.1.1-.2.1-.4.1 0 .1-.1.2-.2 0 .1-.1.1-.2.2zM-98.8 931.4c0 .2.2.3.3.4 0-.1.1-.3.2-.7-.1 0-.3-.1-.4-.2 0 .3-.1.4-.1.5zM-111.7 926.3s.1.2.1.3c.1-.1.1-.1.3-.4v-.1c-.1 0-.3.1-.4.2zM-111 925.6l-.3.3.1.1-.1.2v.1c.1-.1.1-.2.2-.3l-.1-.1c0-.1.1-.2.2-.3zM-105.6 930.6l.2.2c0-.1.1-.2.1-.3l-.2-.2c0 .1-.1.2-.1.3zM-106.2 929.6l.2.1c.1 0 .2-.1.3-.2l-.2-.1c-.1 0-.2.1-.3.2zM-110 927.6c.1.1.2.1.3.2l.2-.2c-.1 0-.2-.1-.3-.1l-.2.1zM209.2 927.1l.2.2c0-.1.1-.2.1-.3l-.2-.2c0 .1-.1.2-.1.3zM143.6 929.3l.2.2c.1-.1.2-.1.3-.2l-.2-.1c-.1 0-.2 0-.3.1zM176.3 935.7l.2.2c.1-.1.2-.1.3-.2l-.2-.1c-.1-.1-.2 0-.3.1zM169 927.6c.1.1.2.1.3.2l.2-.2c-.1 0-.2-.1-.3-.1l-.2.1zM168.1 928.1c.1 0 .2.1.3.1l.2-.2c-.1-.1-.2-.1-.3-.2l-.2.3zM143.2 930.7c0 .1.1.2.2.3l.2-.2c-.1-.1-.1-.2-.2-.3l-.2.2zM139.5 930.6c.1 0 .1-.1.1-.2.1-.2-.2-.5-.3-.7l-.6.2c0 .3 0 .5.3.9l.3-.3c.1.1.1.1.2.1zM139 926.5c-.1 0-.2-.1-.3-.1l-.2.2c.1.1.2.1.3.2l.2-.3zM137.1 930.3l-.2.2c0 .5 0 1.1.5 1.4h.4c0-.1.1-.2.1-.3-.2-.4-.3-.8-.5-1.2 0 0-.2-.1-.3-.1zM139.5 931.3l-.2-.1c-.1.1-.2.2-.2.3.1 0 .2.1.3.1l-.1-.1.2-.2zM139.4 931.6l.2.1s0-.1-.2-.1zM142.8 933.3l.2.1c.1 0 .2-.1.3-.2l-.2-.2c-.1.2-.2.3-.3.3zM233.8 927.1l-.7-.7c-.1.2-.3.5-.2.6.2.2.5.3.7.3l.2-.2zM248.5 928.7c.1.1.2.1.3.2l.2-.2c-.1 0-.2-.1-.3-.1l-.2.1zM243.6 929.8c.1 0 .1.1.2.1h.3l.3-.3c-.1-.1-.3-.1-.7-.2 0 0-.1.2-.1.4zM250.3 919c0 .1.1.1.1.1 0-.1 0-.1-.1-.1zM134.7 928.2l.9.6c0-.1.1-.3.2-.6-.2-.1-.5-.2-.7-.2-.2 0-.3.1-.4.2zM240.6 929.7s0 .1.1.1h.2c0-.1-.1-.2-.2-.3l-.1.2z"/><path class="st1" d="M250.3 919v-13.1h-64.5l.2.2v.1c-.1 0-.1-.1-.2-.2-.1 0 0-.1 0-.1h-25.7l-.2.2c0-.1-.1-.1-.1-.2H-47.8l.2.2v.1c-.1 0-.1-.1-.2-.2-.1 0 0-.1 0-.1h-25.7l-.2.2c0-.1-.1-.1-.1-.2H-281.4l.2.2v.1c-.1 0-.1-.1-.2-.2-.1 0 0-.1 0-.1h-25.7l-.2.2c0-.1-.1-.1-.1-.2H-515l.2.2v.1c-.1 0-.1-.1-.2-.2-.1 0 0-.1 0-.1h-25.7l-.2.2c0-.1-.1-.1-.1-.2h-143.3v8.2c.2 0 .3 0 .3.1-.1 0-.2 0-.3-.1v11.7c.4 0 .9-.3 1.3-.4 0 .7.6.7 1 1 .3.2.5.3.5-.2 0-.8 0-1.6-1.1-1.7v-.2c1.3-.5 1.6.6 2 1.3.1.2.2.3.3.5.2-.3.3-.5.3-.8v-.1l-.4.1c0-.1.1-.2.1-.3.1 0 .2.1.3.1 0-.5.2-.7.8-.5.6.2 1.1.4 1.7.6.2.1.6.2.6.2.6-1 1.2-.2 1.8-.1.3.1.7 0 1 0 .5-.1.8 0 1.1.4.4.4.9.9.9-.2l.6-.2c0-.2.1.1.2 0 .2-.2.4.4.8.4v-.5c.2.5.4.9.5 1.5.1 0 .1-.1.3-.1 1-.7 1.4-.7 2.2.1.2.1.2.4.3.6l.3.3c.1-.1.2-.3.2-.4.3-1.2.3-1.2 1.1-.7.5.3.4.3.9-.6.2-.4.9-.7 1.3-.6.7.2 1.3.2 2-.1.6-.3 3.4-.5 4.1-.5.5 0 1.3 1.5 1.6 1.2.6-.6.8.5 1.2.2 1-.8 2.1-.5 3.2-.7.7-.1 1.6-.3 2.1-.5v.1c.5.5 1.7.2 2.4.1 1.1-.2 2.1.6 3.2-.1.1-.1.5.1.6.2.7.8 1.2.3 1.9-.5.6-.7.5.1.5.3 0 .8.3 1.1 1 .5.1-.1.3-.2.3-.2.5.2 1.4.7 1.5.6.6-.6 1-1.5 1.4-1.4.6.2 1.3-.3 1.8.3.1.1.6-.2 1-.3.4-.2.8-.2.8.4.1.5.3.4.6.1.3-.4.7-.4.9.1l.3.6c.1-.1.2-.3.2-.4.2-.4.3-.9.4-1.3 0-.1.2-.2.3-.2.1.1.2.3.2.4 0 .7 0 1.5 1.1.7.1-.1.5.1.7.2.3.2.5.9.8-.2.2-.7 1.6-.5 2.4.2.2.2.6-.7.8-.8.8-.4.7-.4 1.2.1.2.3.5.6.8.9.2.2.4.3.5.4.1-.2.1-.4.2-.7 0-.3-.1-.7 0-1 0-.1.4-.3.6-.3.1 0 .4.1.4.2.1.3 0 .7.1 1 .1.4.1.8.2 1.2.6-.3.1-.8.3-1.2.1-.3.2-.5.4-.7.1-.1.4.1.6.3s.3.5.5.8c.1.2.5.4.5.3.2-.2.3-.4.4-.7.1-.1-.1-.4 0-.5.1-.2.3-.3.5-.3s.4.3.4.4c.1.7 0 1.4.9.4.3-.3.8-.3 1.3-.5 0 .2.1.3.1.5v.5c.2-.1.5-.1.6-.2.5-.6 1.7-.9 2.5-.6.6.2.9.3.9-.4.1-.5.3-.5.5-.1.1.3.3.6.5.8.3.3.5.3.5-.2.1-.3.3-.6.5-.8h.4c.1 1 .4.6.8.2.3.8 1-.2 1.5.3.2.2.9-.3 1.4-.4.4 0 .9.1 1.4.2.7.2 1.6.2 2.5.1.5-.1 1-.2 1 .6h.4c.3-.4.6-.3 1-.1.3.2.9 1.5 1-.1.8-.1 1.6-.3 2.4-.2.4 0 .7.5 1 .8.4.4.3.4.5.1.1-.3.3-.5.4-.8.3-.6.5-.6.9-.1.2.3.4.5.6.8.1.3-.2.9.4.9.2 0 .4-.3.6-.5.2-.4.3-.9.4-1.3.1-.2.1-.4.2-.7l.3.6c.1.2 0 .5 0 .7.1 1.2.5.2.8.1.4-.2.9-.3 1.3-.5.6-.3.9-.1.9.6 0 .3-.1.7.1 1 .1.3.4.5.7.7.1-.2.2-.5.3-.7v-.7c0-.5-.2-1 .6-1 .6 0 .9.2.9.8 0 .2.2.4.2.6.1-.2.2-.4.2-.6v-1c0-.1.1-.3.2-.4.1.1.2.2.3.4.1.7.1 1.5.1 2.2 0 .1.2.2.3.3l.2-.2c-.4-.5.9-.8.2-1.4-.4-.4-.2-.7.1-1 .1-.1.2-.2.3-.4.1.1.3.2.3.3.1.4 0 .8.1 1.2 0 .1.2.3.2.4.1-.2.2-.4.2-.6.2-.5.5-.5.9-.2.6.5 1 .5 1-.4l.4-.1c.2.3.5.6.5 1 .1.6.1 1.3.1 2l.2.2c.1-.1.3-.2.3-.2-.4-1.2.6-1.9.9-2.9 0-.1.2-.2.2-.4.1.1.2.2.2.4s0 .5.1.7c.1.4.2.8.3 1.3l.6-1.2c.1-.2.2-.4.3-.7.6.9.9-.6 1.3-.1s.7 1.1-.1 1.5c0-.6-.5-.6-.8-.4-.4.4-.4.8.3.9v.5c0 .1.1.3.2.4.1-.1.2-.3.3-.4v-.5c.2-.5 1 1.4 1-.2 0-.5-.1-1-.1-1.5 0-.1.2-.2.2-.4.1.1.2.2.2.4.1.4.2.7.3 1.1.1.2.3.3.5.4.1-.2.1-.4.2-.7.1-.3.2-.5.3-.7.2.2.7.4.7.7 0 .6.6.1.6-.6h.3c.1.1.1.3.1.5 0 .4 0 .9.6.8.2 0 .3-.5.4-.7.1-.2.1-.5.1-.7.9.6 1.1-.3 1.5-.7.1.2.3.5.3.6-.3.5-.6 1-.4 1.6.1.3.4.5.7.7.1-.2.3-.5.3-.7 0-.4-.1-.8 0-1.2 0-.3-.3-1 .3-.8.3.2 1.3-.1 1.2.8v.7c-.1.2-.6.5-.1.7.5.2.7-.1.7-.7 0-.2-.1-.4 0-.5.3-.3.7-.6 1.1-.8.1 0 .4.5.5.8l.3.6c.1.1.2.3.2.4.1-.2.2-.4.2-.6s-.1-.5.1-.7c.1-.2.4-.2.6-.2v.5c.1.3.3.6.4.9.1-.1.2-.3.3-.4v-.2c.7-1.7.8-1.7 1.9-.2l.3.3c.1-.1.2-.3.2-.4 0-.2-.1-.4 0-.5.1-.2.3-.4.5-.6l.4.4c.1.1 0 .3 0 .5.1.2.2.5.4.5s.5-.1.6-.3c.1-.2.1-.4.2-.7.1.2.3.3.3.5.1.2 0 .6.1.7.2.2.6.4.9.5-.1-.3-.2-.6-.2-.8 0-.2 0-.3.1-.5.2.1.6.1.6.2.1.3.1.6.1 1h.5c-.1-.8.1-.7.7-.4.4.2 1.1-.2 1.6-.3 0 .7.6.7 1 1 .3.2.5.3.5-.2 0-.8 0-1.6-1.1-1.7v-.2c1.3-.5 1.6.6 2 1.3.1.2.2.3.3.5.1-.2.2-.5.1-.7-.1-.6.1-.9.8-.7.6.2 1.1.4 1.7.6.2.1.6.2.6.2.6-1 1.2-.2 1.8-.1.3.1.7 0 1 0 .5-.1.8 0 1.1.4.4.4.9.9.9-.2l.6-.2c.2.2.2.5.4.8l.3.6c.1-.2.1-.4.2-.6.2-.5.4-.4.5 0 .1.1.2.1.3-.3.1 0 .2-.1.4 0-.2.3-.3.6-.5.8.1 0 .1-.1.2-.1 1-.7 1.4-.7 2.2.1.2.1.2.4.3.6l.3.3c.1-.1.2-.3.2-.4.3-1.2.3-1.2 1.1-.7.5.3.4.3.9-.6.2-.4.9-.7 1.3-.6.7.2 1.3.2 2-.1.6-.3 3.4-.5 4.1-.5.5 0 1.3 1.5 1.6 1.2.6-.6.8.5 1.2.2 1-.8 2.1-.5 3.2-.7.7-.1 1.6-.3 2.1-.5v.1c.5.5 1.7.2 2.4.1 1.1-.2 2.1.6 3.2-.1.1-.1.5.1.6.2.7.8 1.2.3 1.9-.5.6-.7.5.1.5.3 0 .8.3 1.1 1 .5.1-.1.3-.2.3-.2.5.2 1.4.7 1.5.6.6-.6 1-1.5 1.4-1.4.6.2 1.3-.3 1.8.3.1.1.6-.2 1-.3.4-.2.8-.2.8.4.1.5.3.4.6.1.3-.4.7-.4.9.1l.3.6c.1-.1.2-.3.2-.4.2-.4.3-.9.4-1.3 0-.1.2-.2.3-.2.1.1.2.3.2.4 0 .7 0 1.5 1.1.7.1-.1.5.1.7.2.3.2.5.9.8-.2.2-.7 1.6-.5 2.4.2.2.2.6-.7.8-.8.8-.4.7-.4 1.2.1.2.3.5.6.8.9.2.2.4.3.5.4.1-.2.1-.4.2-.7 0-.3-.1-.7 0-1 0-.1.4-.3.6-.3.1 0 .4.1.4.2.1.3 0 .7.1 1 .1.4.1.8.2 1.2.6-.3.1-.8.3-1.2.1-.3.2-.5.4-.7.1-.1.4.1.6.3.2.2.3.5.5.8.1.2.5.4.5.3.2-.2.3-.4.4-.7.1-.1-.1-.4 0-.5.1-.2.3-.3.5-.3s.4.3.4.4c.1.7 0 1.4.9.4.3-.3.8-.3 1.3-.5 0 .2.1.3.1.5v.5c.2-.1.5-.1.6-.2.5-.6 1.7-.9 2.5-.6.6.2.9.3.9-.4.1-.5.3-.5.5-.1.1.3.3.6.5.8.3.3.5.3.5-.2.1-.3.3-.6.5-.8h.4c.1 1 .4.6.8.2.3.8 1-.2 1.5.3.2.2.9-.3 1.4-.4.4 0 .9.1 1.4.2.7.2 1.6.2 2.5.1.5-.1 1-.2 1 .6h.4c.3-.4.6-.3 1-.1.3.2.9 1.5 1-.1.8-.1 1.6-.3 2.4-.2.4 0 .7.5 1 .8.4.4.3.4.5.1.1-.3.3-.5.4-.8.3-.6.5-.6.9-.1.2.3.4.5.6.8.1.3-.2.9.4.9.2 0 .4-.3.6-.5.2-.4.3-.9.4-1.3.1-.2.1-.4.2-.7l.3.6c.1.2 0 .5 0 .7.1 1.2.5.2.8.1.4-.2.9-.3 1.3-.5.6-.3.9-.1.9.6 0 .3-.1.7.1 1 .1.3.4.5.7.7.1-.2.2-.5.3-.7v-.7c0-.5-.2-1 .6-1 .6 0 .9.2.9.8 0 .2.2.4.2.6.1-.2.2-.4.2-.6v-1c0-.1.1-.3.2-.4v1.7c.4 0 .9-.3 1.3-.4 0 .7.6.7 1 1 .3.2.5.3.5-.2 0-.8 0-1.6-1.1-1.7v-.2c1.3-.5 1.6.6 2 1.3.1.2.2.3.3.5.2-.3.3-.5.3-.8v-.1l-.4.1c0-.1.1-.2.1-.3.1 0 .2.1.3.1 0-.5.2-.7.8-.5.6.2 1.1.4 1.7.6.2.1.6.2.6.2.6-1 1.2-.2 1.8-.1.3.1.7 0 1 0 .5-.1.8 0 1.1.4.4.4.9.9.9-.2l.6-.2c0-.2.1.1.2 0 .2-.2.4.4.8.4v-.5c.2.5.4.9.5 1.5.1 0 .1-.1.3-.1 1-.7 1.4-.7 2.2.1.2.1.2.4.3.6l.3.3c.1-.1.2-.3.2-.4.3-1.2.3-1.2 1.1-.7.5.3.4.3.9-.6.2-.4.9-.7 1.3-.6.7.2 1.3.2 2-.1.6-.3 3.4-.5 4.1-.5.5 0 1.3 1.5 1.6 1.2.6-.6.8.5 1.2.2 1-.8 2.1-.5 3.2-.7.7-.1 1.6-.3 2.1-.5v.1c.5.5 1.7.2 2.4.1 1.1-.2 2.1.6 3.2-.1.1-.1.5.1.6.2.7.8 1.2.3 1.9-.5.6-.7.5.1.5.3 0 .8.3 1.1 1 .5.1-.1.3-.2.3-.2.5.2 1.4.7 1.5.6.6-.6 1-1.5 1.4-1.4.6.2 1.3-.3 1.8.3.1.1.6-.2 1-.3.4-.2.8-.2.8.4.1.5.3.4.6.1.3-.4.7-.4.9.1l.3.6c.1-.1.2-.3.2-.4.2-.4.3-.9.4-1.3 0-.1.2-.2.3-.2.1.1.2.3.2.4 0 .7 0 1.5 1.1.7.1-.1.5.1.7.2.3.2.5.9.8-.2.2-.7 1.6-.5 2.4.2.2.2.6-.7.8-.8.8-.4.7-.4 1.2.1.2.3.5.6.8.9.2.2.4.3.5.4.1-.2.1-.4.2-.7 0-.3-.1-.7 0-1 0-.1.4-.3.6-.3.1 0 .4.1.4.2.1.3 0 .7.1 1 .1.4.1.8.2 1.2.6-.3.1-.8.3-1.2.1-.3.2-.5.4-.7.1-.1.4.1.6.3.2.2.3.5.5.8.1.2.5.4.5.3.2-.2.3-.4.4-.7.1-.1-.1-.4 0-.5.1-.2.3-.3.5-.3s.4.3.4.4c.1.7 0 1.4.9.4.3-.3.8-.3 1.3-.5 0 .2.1.3.1.5v.5c.2-.1.5-.1.6-.2.5-.6 1.7-.9 2.5-.6.6.2.9.3.9-.4.1-.5.3-.5.5-.1.1.3.3.6.5.8.3.3.5.3.5-.2.1-.3.3-.6.5-.8h.4c.1 1 .4.6.8.2.3.8 1-.2 1.5.3.2.2.9-.3 1.4-.4.4 0 .9.1 1.4.2.7.2 1.6.2 2.5.1.5-.1 1-.2 1 .6h.4c.3-.4.6-.3 1-.1.3.2.9 1.5 1-.1.8-.1 1.6-.3 2.4-.2.4 0 .7.5 1 .8.4.4.3.4.5.1.1-.3.3-.5.4-.8.3-.6.5-.6.9-.1.2.3.4.5.6.8.1.3-.2.9.4.9.2 0 .4-.3.6-.5.2-.4.3-.9.4-1.3.1-.2.1-.4.2-.7l.3.6c.1.2 0 .5 0 .7.1 1.2.5.2.8.1.4-.2.9-.3 1.3-.5.6-.3.9-.1.9.6 0 .3-.1.7.1 1 .1.3.4.5.7.7.1-.2.2-.5.3-.7v-.7c0-.5-.2-1 .6-1 .6 0 .9.2.9.8 0 .2.2.4.2.6.1-.2.2-.4.2-.6v-1c0-.1.1-.3.2-.4.1.1.2.2.3.4.1.7.1 1.5.1 2.2 0 .1.2.2.3.3l.2-.2c-.4-.5.9-.8.2-1.4-.4-.4-.2-.7.1-1 .1-.1.2-.2.3-.4.1.1.3.2.3.3.1.4 0 .8.1 1.2 0 .1.2.3.2.4.1-.2.2-.4.2-.6.2-.5.5-.5.9-.2.6.5 1 .5 1-.4l.4-.1c.2.3.5.6.5 1 .1.6.1 1.3.1 2l.2.2c.1-.1.3-.2.3-.2-.4-1.2.6-1.9.9-2.9 0-.1.2-.2.2-.4.1.1.2.2.2.4s0 .5.1.7c.1.4.2.8.3 1.3l.6-1.2c.1-.2.2-.4.3-.7.6.9.9-.6 1.3-.1s.7 1.1-.1 1.5c0-.6-.5-.6-.8-.4-.4.4-.4.8.3.9v.5c0 .1.1.3.2.4.1-.1.2-.3.3-.4v-.5c.2-.5 1 1.4 1-.2 0-.5-.1-1-.1-1.5 0-.1.2-.2.2-.4.1.1.2.2.2.4.1.4.2.7.3 1.1.1.2.3.3.5.4.1-.2.1-.4.2-.7.1-.3.2-.5.3-.7.2.2.7.4.7.7 0 .6.6.1.6-.6h.3c.1.1.1.3.1.5 0 .4 0 .9.6.8.2 0 .3-.5.4-.7.1-.2.1-.5.1-.7.9.6 1.1-.3 1.5-.7.1.2.3.5.3.6-.3.5-.6 1-.4 1.6.1.3.4.5.7.7.1-.2.3-.5.3-.7 0-.4-.1-.8 0-1.2 0-.3-.3-1 .3-.8.3.2 1.3-.1 1.2.8v.7c-.1.2-.6.5-.1.7.5.2.7-.1.7-.7 0-.2-.1-.4 0-.5.3-.3.7-.6 1.1-.8.1 0 .4.5.5.8l.3.6c.1.1.2.3.2.4.1-.2.2-.4.2-.6 0-.2-.1-.5.1-.7.1-.2.4-.2.6-.2v.5c.1.3.3.6.4.9.1-.1.2-.3.3-.4v-.2c.7-1.7.8-1.7 1.9-.2l.3.3c.1-.1.2-.3.2-.4 0-.2-.1-.4 0-.5.1-.2.3-.4.5-.6l.4.4c.1.1 0 .3 0 .5.1.2.2.5.4.5s.5-.1.6-.3c.1-.2.1-.4.2-.7.1.2.3.3.3.5.1.2 0 .6.1.7.2.2.6.4.9.5-.1-.3-.2-.6-.2-.8 0-.2 0-.3.1-.5.2.1.6.1.6.2.1.3.1.6.1 1h.5c-.1-.8.1-.7.7-.4.4.2 1.1-.2 1.6-.3 0 .7.6.7 1 1 .3.2.5.3.5-.2 0-.8 0-1.6-1.1-1.7v-.2c1.3-.5 1.6.6 2 1.3.1.2.2.3.3.5.1-.2.2-.5.1-.7-.1-.6.1-.9.8-.7.6.2 1.1.4 1.7.6.2.1.6.2.6.2.6-1 1.2-.2 1.8-.1.3.1.7 0 1 0 .5-.1.8 0 1.1.4.4.4.9.9.9-.2l.6-.2c.2.2.2.5.4.8l.3.6c.1-.2.1-.4.2-.6.2-.5.4-.4.5 0 .1.1.2.1.3-.3.1 0 .2-.1.4 0-.2.3-.3.6-.5.8.1 0 .1-.1.2-.1 1-.7 1.4-.7 2.2.1.2.1.2.4.3.6l.3.3c.1-.1.2-.3.2-.4.3-1.2.3-1.2 1.1-.7.5.3.4.3.9-.6.2-.4.9-.7 1.3-.6.7.2 1.3.2 2-.1.6-.3 3.4-.5 4.1-.5.5 0 1.3 1.5 1.6 1.2.6-.6.8.5 1.2.2 1-.8 2.1-.5 3.2-.7.7-.1 1.6-.3 2.1-.5v.1c.5.5 1.7.2 2.4.1 1.1-.2 2.1.6 3.2-.1.1-.1.5.1.6.2.7.8 1.2.3 1.9-.5.6-.7.5.1.5.3 0 .8.3 1.1 1 .5.1-.1.3-.2.3-.2.5.2 1.4.7 1.5.6.6-.6 1-1.5 1.4-1.4.6.2 1.3-.3 1.8.3.1.1.6-.2 1-.3.4-.2.8-.2.8.4.1.5.3.4.6.1.3-.4.7-.4.9.1l.3.6c.1-.1.2-.3.2-.4.2-.4.3-.9.4-1.3 0-.1.2-.2.3-.2.1.1.2.3.2.4 0 .7 0 1.5 1.1.7.1-.1.5.1.7.2.3.2.5.9.8-.2.2-.7 1.6-.5 2.4.2.2.2.6-.7.8-.8.8-.4.7-.4 1.2.1.2.3.5.6.8.9.2.2.4.3.5.4.1-.2.1-.4.2-.7 0-.3-.1-.7 0-1 0-.1.4-.3.6-.3.1 0 .4.1.4.2.1.3 0 .7.1 1 .1.4.1.8.2 1.2.6-.3.1-.8.3-1.2.1-.3.2-.5.4-.7.1-.1.4.1.6.3s.3.5.5.8c.1.2.5.4.5.3.2-.2.3-.4.4-.7.1-.1-.1-.4 0-.5.1-.2.3-.3.5-.3s.4.3.4.4c.1.7 0 1.4.9.4.3-.3.8-.3 1.3-.5 0 .2.1.3.1.5v.5c.2-.1.5-.1.6-.2.5-.6 1.7-.9 2.5-.6.6.2.9.3.9-.4.1-.5.3-.5.5-.1.1.3.3.6.5.8.3.3.5.3.5-.2.1-.3.3-.6.5-.8h.4c.1 1 .4.6.8.2.3.8 1-.2 1.5.3.2.2.9-.3 1.4-.4.4 0 .9.1 1.4.2.7.2 1.6.2 2.5.1.5-.1 1-.2 1 .6h.4c.3-.4.6-.3 1-.1.3.2.9 1.5 1-.1.8-.1 1.6-.3 2.4-.2.4 0 .7.5 1 .8.4.4.3.4.5.1.1-.3.3-.5.4-.8.3-.6.5-.6.9-.1.2.3.4.5.6.8.1.3-.2.9.4.9.2 0 .4-.3.6-.5.2-.4.3-.9.4-1.3.1-.2.1-.4.2-.7l.3.6c.1.2 0 .5 0 .7.1 1.2.5.2.8.1.4-.2.9-.3 1.3-.5.6-.3.9-.1.9.6 0 .3-.1.7.1 1 .1.3.4.5.7.7.1-.2.2-.5.3-.7v-.7c0-.5-.2-1 .6-1 .6 0 .9.2.9.8 0 .2.2.4.2.6.1-.2.2-.4.2-.6v-1c0-.1.1-.3.2-.4v1.7c.4 0 .9-.3 1.3-.4 0 .7.6.7 1 1 .3.2.5.3.5-.2 0-.8 0-1.6-1.1-1.7v-.2c1.3-.5 1.6.6 2 1.3.1.2.2.3.3.5.2-.3.3-.5.3-.8v-.1l-.4.1c0-.1.1-.2.1-.3.1 0 .2.1.3.1 0-.5.2-.7.8-.5.6.2 1.1.4 1.7.6.2.1.6.2.6.2.6-1 1.2-.2 1.8-.1.3.1.7 0 1 0 .5-.1.8 0 1.1.4.4.4.9.9.9-.2l.6-.2c0-.2.1.1.2 0 .2-.2.4.4.8.4v-.5c.2.5.4.9.5 1.5.1 0 .1-.1.3-.1 1-.7 1.4-.7 2.2.1.2.1.2.4.3.6l.3.3c.1-.1.2-.3.2-.4.3-1.2.3-1.2 1.1-.7.5.3.4.3.9-.6.2-.4.9-.7 1.3-.6.7.2 1.3.2 2-.1.6-.3 3.4-.5 4.1-.5.5 0 1.3 1.5 1.6 1.2.6-.6.8.5 1.2.2 1-.8 2.1-.5 3.2-.7.7-.1 1.6-.3 2.1-.5v.1c.5.5 1.7.2 2.4.1 1.1-.2 2.1.6 3.2-.1.1-.1.5.1.6.2.7.8 1.2.3 1.9-.5.6-.7.5.1.5.3 0 .8.3 1.1 1 .5.1-.1.3-.2.3-.2.5.2 1.4.7 1.5.6.6-.6 1-1.5 1.4-1.4.6.2 1.3-.3 1.8.3.1.1.6-.2 1-.3.4-.2.8-.2.8.4.1.5.3.4.6.1.3-.4.7-.4.9.1l.3.6c.1-.1.2-.3.2-.4.2-.4.3-.9.4-1.3 0-.1.2-.2.3-.2.1.1.2.3.2.4 0 .7 0 1.5 1.1.7.1-.1.5.1.7.2.3.2.5.9.8-.2.2-.7 1.6-.5 2.4.2.2.2.6-.7.8-.8.8-.4.7-.4 1.2.1.2.3.5.6.8.9.2.2.4.3.5.4.1-.2.1-.4.2-.7 0-.3-.1-.7 0-1 0-.1.4-.3.6-.3.1 0 .4.1.4.2.1.3 0 .7.1 1 .1.4.1.8.2 1.2.6-.3.1-.8.3-1.2.1-.3.2-.5.4-.7.1-.1.4.1.6.3.2.2.3.5.5.8.1.2.5.4.5.3.2-.2.3-.4.4-.7.1-.1-.1-.4 0-.5.1-.2.3-.3.5-.3s.4.3.4.4c.1.7 0 1.4.9.4.3-.3.8-.3 1.3-.5 0 .2.1.3.1.5v.5c.2-.1.5-.1.6-.2.5-.6 1.7-.9 2.5-.6.6.2.9.3.9-.4.1-.5.3-.5.5-.1.1.3.3.6.5.8.3.3.5.3.5-.2.1-.3.3-.6.5-.8h.4c.1 1 .4.6.8.2.3.8 1-.2 1.5.3.2.2.9-.3 1.4-.4.4 0 .9.1 1.4.2.7.2 1.6.2 2.5.1.5-.1 1-.2 1 .6h.4c.3-.4.6-.3 1-.1.3.2.9 1.5 1-.1.8-.1 1.6-.3 2.4-.2.4 0 .7.5 1 .8.4.4.3.4.5.1.1-.3.3-.5.4-.8.3-.6.5-.6.9-.1.2.3.4.5.6.8.1.3-.2.9.4.9.2 0 .4-.3.6-.5.2-.4.3-.9.4-1.3.1-.2.1-.4.2-.7l.3.6c.1.2 0 .5 0 .7.1 1.2.5.2.8.1.4-.2.9-.3 1.3-.5.6-.3.9-.1.9.6 0 .3-.1.7.1 1 .1.3.4.5.7.7.1-.2.2-.5.3-.7v-.7c0-.5-.2-1 .6-1 .6 0 .9.2.9.8 0 .2.2.4.2.6.1-.2.2-.4.2-.6v-1c0-.1.1-.3.2-.4.1.1.2.2.3.4.1.7.1 1.5.1 2.2 0 .1.2.2.3.3l.2-.2c-.4-.5.9-.8.2-1.4-.4-.4-.2-.7.1-1 .1-.1.2-.2.3-.4.1.1.3.2.3.3.1.4 0 .8.1 1.2 0 .1.2.3.2.4.1-.2.2-.4.2-.6.2-.5.5-.5.9-.2.6.5 1 .5 1-.4l.4-.1c.2.3.5.6.5 1 .1.6.1 1.3.1 2l.2.2c.1-.1.3-.2.3-.2-.4-1.2.6-1.9.9-2.9 0-.1.2-.2.2-.4.1.1.2.2.2.4s0 .5.1.7c.1.4.2.8.3 1.3l.6-1.2c.1-.2.2-.4.3-.7.6.9.9-.6 1.3-.1s.7 1.1-.1 1.5c0-.6-.5-.6-.8-.4-.4.4-.4.8.3.9v.5c0 .1.1.3.2.4.1-.1.2-.3.3-.4v-.5c.2-.5 1 1.4 1-.2 0-.5-.1-1-.1-1.5 0-.1.2-.2.2-.4.1.1.2.2.2.4.1.4.2.7.3 1.1.1.2.3.3.5.4.1-.2.1-.4.2-.7.1-.3.2-.5.3-.7.2.2.7.4.7.7 0 .6.6.1.6-.6h.3c.1.1.1.3.1.5 0 .4 0 .9.6.8.2 0 .3-.5.4-.7.1-.2.1-.5.1-.7.9.6 1.1-.3 1.5-.7.1.2.3.5.3.6-.3.5-.6 1-.4 1.6.1.3.4.5.7.7.1-.2.3-.5.3-.7 0-.4-.1-.8 0-1.2 0-.3-.3-1 .3-.8.3.2 1.3-.1 1.2.8v.7c-.1.2-.6.5-.1.7.5.2.7-.1.7-.7 0-.2-.1-.4 0-.5.3-.3.7-.6 1.1-.8.1 0 .4.5.5.8l.3.6c.1.1.2.3.2.4.1-.2.2-.4.2-.6 0-.2-.1-.5.1-.7.1-.2.4-.2.6-.2v.5c.1.3.3.6.4.9.1-.1.2-.3.3-.4v-.2c.7-1.7.8-1.7 1.9-.2l.3.3c.1-.1.2-.3.2-.4 0-.2-.1-.4 0-.5.1-.2.3-.4.5-.6l.4.4c.1.1 0 .3 0 .5.1.2.2.5.4.5s.5-.1.6-.3c.1-.2.1-.4.2-.7.1.2.3.3.3.5.1.2 0 .6.1.7.2.2.6.4.9.5-.1-.3-.2-.6-.2-.8 0-.2 0-.3.1-.5.2.1.6.1.6.2.1.3.1.6.1 1h.5c-.1-.8.1-.7.7-.4.4.2 1.1-.2 1.6-.3 0 .7.6.7 1 1 .3.2.5.3.5-.2 0-.8 0-1.6-1.1-1.7v-.2c1.3-.5 1.6.6 2 1.3.1.2.2.3.3.5.1-.2.2-.5.1-.7-.1-.6.1-.9.8-.7.6.2 1.1.4 1.7.6.2.1.6.2.6.2.6-1 1.2-.2 1.8-.1.3.1.7 0 1 0 .5-.1.8 0 1.1.4.4.4.9.9.9-.2l.6-.2c.2.2.2.5.4.8l.3.6c.1-.2.1-.4.2-.6.2-.5.4-.4.5 0 .1.1.2.1.3-.3.1 0 .2-.1.4 0-.2.3-.3.6-.5.8.1 0 .1-.1.2-.1 1-.7 1.4-.7 2.2.1.2.1.2.4.3.6l.3.3c.1-.1.2-.3.2-.4.3-1.2.3-1.2 1.1-.7.5.3.4.3.9-.6.2-.4.9-.7 1.3-.6.7.2 1.3.2 2-.1.6-.3 3.4-.5 4.1-.5.5 0 1.3 1.5 1.6 1.2.6-.6.8.5 1.2.2 1-.8 2.1-.5 3.2-.7.7-.1 1.6-.3 2.1-.5v.1c.5.5 1.7.2 2.4.1 1.1-.2 2.1.6 3.2-.1.1-.1.5.1.6.2.7.8 1.2.3 1.9-.5.6-.7.5.1.5.3 0 .8.3 1.1 1 .5.1-.1.3-.2.3-.2.5.2 1.4.7 1.5.6.6-.6 1-1.5 1.4-1.4.6.2 1.3-.3 1.8.3.1.1.6-.2 1-.3.4-.2.8-.2.8.4.1.5.3.4.6.1.3-.4.7-.4.9.1l.3.6c.1-.1.2-.3.2-.4.2-.4.3-.9.4-1.3 0-.1.2-.2.3-.2.1.1.2.3.2.4 0 .7 0 1.5 1.1.7.1-.1.5.1.7.2.3.2.5.9.8-.2.2-.7 1.6-.5 2.4.2.2.2.6-.7.8-.8.8-.4.7-.4 1.2.1.2.3.5.6.8.9.2.2.4.3.5.4.1-.2.1-.4.2-.7 0-.3-.1-.7 0-1 0-.1.4-.3.6-.3.1 0 .4.1.4.2.1.3 0 .7.1 1 .1.4.1.8.2 1.2.6-.3.1-.8.3-1.2.1-.3.2-.5.4-.7.1-.1.4.1.6.3s.3.5.5.8c.1.2.5.4.5.3.2-.2.3-.4.4-.7.1-.1-.1-.4 0-.5.1-.2.3-.3.5-.3s.4.3.4.4c.1.7 0 1.4.9.4.3-.3.8-.3 1.3-.5 0 .2.1.3.1.5v.5c.2-.1.5-.1.6-.2.5-.6 1.7-.9 2.5-.6.6.2.9.3.9-.4.1-.5.3-.5.5-.1.1.3.3.6.5.8.3.3.5.3.5-.2.1-.3.3-.6.5-.8h.4c.1 1 .4.6.8.2.3.8 1-.2 1.5.3.2.2.9-.3 1.4-.4.4 0 .9.1 1.4.2.7.2 1.6.2 2.5.1.5-.1 1-.2 1 .6h.4c.3-.4.6-.3 1-.1.3.2.9 1.5 1-.1.8-.1 1.6-.3 2.4-.2.4 0 .7.5 1 .8.4.4.3.4.5.1.1-.3.3-.5.4-.8.3-.6.5-.6.9-.1.2.3.4.5.6.8.1.3-.2.9.4.9.2 0 .4-.3.6-.5.2-.4.3-.9.4-1.3.1-.2.1-.4.2-.7l.3.6c.1.2 0 .5 0 .7.1 1.2.5.2.8.1.4-.2.9-.3 1.3-.5.6-.3.9-.1.9.6 0 .3-.1.7.1 1 .1.3.4.5.7.7.1-.2.2-.5.3-.7v-.7c0-.5-.2-1 .6-1 .6 0 .9.2.9.8 0 .2.2.4.2.6.1-.2.2-.4.2-.6v-1c0-.1.1-.3.2-.4v1.7c.4 0 .9-.3 1.3-.4 0 .7.6.7 1 1 .3.2.5.3.5-.2 0-.8 0-1.6-1.1-1.7v-.2c1.3-.5 1.6.6 2 1.3.1.2.2.3.3.5.2-.3.3-.5.3-.8v-.1l-.4.1c0-.1.1-.2.1-.3.1 0 .2.1.3.1 0-.5.2-.7.8-.5.6.2 1.1.4 1.7.6.2.1.6.2.6.2.6-1 1.2-.2 1.8-.1.3.1.7 0 1 0 .5-.1.8 0 1.1.4.4.4.9.9.9-.2l.6-.2c0-.2.1.1.2 0 .2-.2.4.4.8.4v-.5c.2.5.4.9.5 1.5.1 0 .1-.1.3-.1 1-.7 1.4-.7 2.2.1.2.1.2.4.3.6l.3.3c.1-.1.2-.3.2-.4.3-1.2.3-1.2 1.1-.7.5.3.4.3.9-.6.2-.4.9-.7 1.3-.6.7.2 1.3.2 2-.1.6-.3 3.4-.5 4.1-.5.5 0 1.3 1.5 1.6 1.2.6-.6.8.5 1.2.2 1-.8 2.1-.5 3.2-.7.7-.1 1.6-.3 2.1-.5v.1c.5.5 1.7.2 2.4.1 1.1-.2 2.1.6 3.2-.1.1-.1.5.1.6.2.7.8 1.2.3 1.9-.5.6-.7.5.1.5.3 0 .8.3 1.1 1 .5.1-.1.3-.2.3-.2.5.2 1.4.7 1.5.6.6-.6 1-1.5 1.4-1.4.6.2 1.3-.3 1.8.3.1.1.6-.2 1-.3.4-.2.8-.2.8.4.1.5.3.4.6.1.3-.4.7-.4.9.1l.3.6c.1-.1.2-.3.2-.4.2-.4.3-.9.4-1.3 0-.1.2-.2.3-.2.1.1.2.3.2.4 0 .7 0 1.5 1.1.7.1-.1.5.1.7.2.3.2.5.9.8-.2.2-.7 1.6-.5 2.4.2.2.2.6-.7.8-.8.8-.4.7-.4 1.2.1.2.3.5.6.8.9.2.2.4.3.5.4.1-.2.1-.4.2-.7 0-.3-.1-.7 0-1 0-.1.4-.3.6-.3.1 0 .4.1.4.2.1.3 0 .7.1 1 .1.4.1.8.2 1.2.6-.3.1-.8.3-1.2.1-.3.2-.5.4-.7.1-.1.4.1.6.3.2.2.3.5.5.8.1.2.5.4.5.3.2-.2.3-.4.4-.7.1-.1-.1-.4 0-.5.1-.2.3-.3.5-.3s.4.3.4.4c.1.7 0 1.4.9.4.3-.3.8-.3 1.3-.5 0 .2.1.3.1.5v.5c.2-.1.5-.1.6-.2.5-.6 1.7-.9 2.5-.6.6.2.9.3.9-.4.1-.5.3-.5.5-.1.1.3.3.6.5.8.3.3.5.3.5-.2.1-.3.3-.6.5-.8h.4c.1 1 .4.6.8.2.3.8 1-.2 1.5.3.2.2.9-.3 1.4-.4.4 0 .9.1 1.4.2.7.2 1.6.2 2.5.1.5-.1 1-.2 1 .6h.4c.3-.4.6-.3 1-.1.3.2.9 1.5 1-.1.8-.1 1.6-.3 2.4-.2.4 0 .7.5 1 .8.4.4.3.4.5.1.1-.3.3-.5.4-.8.3-.6.5-.6.9-.1.2.3.4.5.6.8.1.3-.2.9.4.9.2 0 .4-.3.6-.5.2-.4.3-.9.4-1.3.1-.2.1-.4.2-.7l.3.6c.1.2 0 .5 0 .7.1 1.2.5.2.8.1.4-.2.9-.3 1.3-.5.6-.3.9-.1.9.6 0 .3-.1.7.1 1 .1.3.4.5.7.7.1-.2.2-.5.3-.7v-.7c0-.5-.2-1 .6-1 .6 0 .9.2.9.8 0 .2.2.4.2.6.1-.2.2-.4.2-.6v-1c0-.1.1-.3.2-.4.1.1.2.2.3.4.1.7.1 1.5.1 2.2 0 .1.2.2.3.3l.2-.2c-.4-.5.9-.8.2-1.4-.4-.4-.2-.7.1-1 .1-.1.2-.2.3-.4.1.1.3.2.3.3.1.4 0 .8.1 1.2 0 .1.2.3.2.4.1-.2.2-.4.2-.6.2-.5.5-.5.9-.2.6.5 1 .5 1-.4l.4-.1c.2.3.5.6.5 1 .1.6.1 1.3.1 2l.2.2c.1-.1.3-.2.3-.2-.4-1.2.6-1.9.9-2.9 0-.1.2-.2.2-.4.1.1.2.2.2.4s0 .5.1.7c.1.4.2.8.3 1.3l.6-1.2c.1-.2.2-.4.3-.7.6.9.9-.6 1.3-.1s.7 1.1-.1 1.5c0-.6-.5-.6-.8-.4-.4.4-.4.8.3.9v.5c0 .1.1.3.2.4.1-.1.2-.3.3-.4v-.5c.2-.5 1 1.4 1-.2 0-.5-.1-1-.1-1.5 0-.1.2-.2.2-.4.1.1.2.2.2.4.1.4.2.7.3 1.1.1.2.3.3.5.4.1-.2.1-.4.2-.7s.2-.5.3-.7c.2.2.7.4.7.7 0 .6.6.1.6-.6h.3c.1.1.1.3.1.5 0 .4 0 .9.6.8.2 0 .3-.5.4-.7s.1-.5.1-.7c.9.6 1.1-.3 1.5-.7.1.2.3.5.3.6-.3.5-.6 1-.4 1.6.1.3.4.5.7.7.1-.2.3-.5.3-.7 0-.4-.1-.8 0-1.2 0-.3-.3-1 .3-.8.3.2 1.3-.1 1.2.8v.7c-.1.2-.6.5-.1.7s.7-.1.7-.7c0-.2-.1-.4 0-.5.3-.3.7-.6 1.1-.8.1 0 .4.5.5.8l.3.6c.1.1.2.3.2.4.1-.2.2-.4.2-.6 0-.2-.1-.5.1-.7.1-.2.4-.2.6-.2v.5c.1.3.3.6.4.9.1-.1.2-.3.3-.4v-.2c.7-1.7.8-1.7 1.9-.2l.3.3c.1-.1.2-.3.2-.4 0-.2-.1-.4 0-.5.1-.2.3-.4.5-.6l.4.4c.1.1 0 .3 0 .5.1.2.2.5.4.5s.5-.1.6-.3c.1-.2.1-.4.2-.7.1.2.3.3.3.5.1.2 0 .6.1.7.2.2.6.4.9.5-.1-.3-.2-.6-.2-.8s0-.3.1-.5c.2.1.6.1.6.2.1.3.1.6.1 1h.5c-.1-.8.1-.7.7-.4.4.2 1.1-.2 1.6-.3 0 .7.6.7 1 1 .3.2.5.3.5-.2 0-.8 0-1.6-1.1-1.7v-.2c1.3-.5 1.6.6 2 1.3.1.2.2.3.3.5.1-.2.2-.5.1-.7-.1-.6.1-.9.8-.7.6.2 1.1.4 1.7.6.2.1.6.2.6.2.6-1 1.2-.2 1.8-.1.3.1.7 0 1 0 .5-.1.8 0 1.1.4.4.4.9.9.9-.2l.6-.2c.2.2.2.5.4.8l.3.6c.1-.2.1-.4.2-.6.2-.5.4-.4.5 0 .1.1.2.1.3-.3.1 0 .2-.1.4 0-.2.3-.3.6-.5.8.1 0 .1-.1.2-.1 1-.7 1.4-.7 2.2.1.2.1.2.4.3.6l.3.3c.1-.1.2-.3.2-.4.3-1.2.3-1.2 1.1-.7.5.3.4.3.9-.6.2-.4.9-.7 1.3-.6.7.2 1.3.2 2-.1.6-.3 3.4-.5 4.1-.5.5 0 1.3 1.5 1.6 1.2.6-.6.8.5 1.2.2 1-.8 2.1-.5 3.2-.7.7-.1 1.6-.3 2.1-.5v.1c.5.5 1.7.2 2.4.1 1.1-.2 2.1.6 3.2-.1.1-.1.5.1.6.2.7.8 1.2.3 1.9-.5.6-.7.5.1.5.3 0 .8.3 1.1 1 .5.1-.1.3-.2.3-.2.5.2 1.4.7 1.5.6.6-.6 1-1.5 1.4-1.4.6.2 1.3-.3 1.8.3.1.1.6-.2 1-.3.4-.2.8-.2.8.4.1.5.3.4.6.1.3-.4.7-.4.9.1l.3.6c.1-.1.2-.3.2-.4.2-.4.3-.9.4-1.3 0-.1.2-.2.3-.2.1.1.2.3.2.4 0 .7 0 1.5 1.1.7.1-.1.5.1.7.2.3.2.5.9.8-.2.2-.7 1.6-.5 2.4.2.2.2.6-.7.8-.8.8-.4.7-.4 1.2.1.2.3.5.6.8.9.2.2.4.3.5.4.1-.2.1-.4.2-.7 0-.3-.1-.7 0-1 0-.1.4-.3.6-.3.1 0 .4.1.4.2.1.3 0 .7.1 1 .1.4.1.8.2 1.2.6-.3.1-.8.3-1.2.1-.3.2-.5.4-.7.1-.1.4.1.6.3s.3.5.5.8c.1.2.5.4.5.3.2-.2.3-.4.4-.7.1-.1-.1-.4 0-.5.1-.2.3-.3.5-.3s.4.3.4.4c.1.7 0 1.4.9.4.3-.3.8-.3 1.3-.5 0 .2.1.3.1.5v.5c.2-.1.5-.1.6-.2.5-.6 1.7-.9 2.5-.6.6.2.9.3.9-.4.1-.5.3-.5.5-.1.1.3.3.6.5.8.3.3.5.3.5-.2.1-.3.3-.6.5-.8h.4c.1 1 .4.6.8.2.3.8 1-.2 1.5.3.2.2.9-.3 1.4-.4.4 0 .9.1 1.4.2.7.2 1.6.2 2.5.1.5-.1 1-.2 1 .6h.4c.3-.4.6-.3 1-.1.3.2.9 1.5 1-.1.8-.1 1.6-.3 2.4-.2.4 0 .7.5 1 .8.4.4.3.4.5.1.1-.3.3-.5.4-.8.3-.6.5-.6.9-.1.2.3.4.5.6.8.1.3-.2.9.4.9.2 0 .4-.3.6-.5.2-.4.3-.9.4-1.3.1-.2.1-.4.2-.7l.3.6c.1.2 0 .5 0 .7.1 1.2.5.2.8.1.4-.2.9-.3 1.3-.5.6-.3.9-.1.9.6 0 .3-.1.7.1 1 .1.3.4.5.7.7.1-.2.2-.5.3-.7v-.7c0-.5-.2-1 .6-1 .6 0 .9.2.9.8 0 .2.2.4.2.6.1-.2.2-.4.2-.6v-1c0-.1.1-.3.2-.4.1.1.1.2.2.3V919s-.1 0 0 0c-.1 0 0 0 0 0zm-930.8-10.2c.1 0 .2.1.2.1s-.1 0-.2-.1zm.7 9.1c.1-.1.2 0 .2.1-.1 0-.1-.1-.2-.1zm.8-10.5c.1-.1.1-.1.2-.1 0 .1-.1.1-.2.1zm.8 8.8c.1.1.1.2.1.3 0-.1-.1-.2-.1-.3zm2.9-2.1c.1 0 .2 0 .3.1-.1 0-.2 0-.3-.1zm3.9-5.2c-.1 0-.1-.1-.1-.2 0 .1.1.1.1.2zm-1.5 9.9v.2c-.6-.2-1.1-.2-1.6-.3 0 0-.1-.2-.1-.3 0-.1 0-.2-.1-.3H-674.1c.4.1.8.3 1.2.5v.2zm.8-5.4c-.4-.4-.7-.8-1-1.2 0-.1.1-.2.2-.3l.1-.2c.5.2 1 .5 1.6.8-.3.4-.6.7-.9.9zm1.7 11.2v-.2c.1 0 .3-.7.5-.6l.1.1c-.1.1-.3.3-.6.7zm.4-17.9c0-.1.1-.1.2-.1 0 .1-.1.1-.2.1zm1.4 1.5c.1-.1.1-.1.2-.1 0 0-.1.1-.2.1zm3 8.6c-.3-.2-.7-.4-1-.5.5-.3 1-.7 1.5-.7h.1c.2.1.4.4.6.7-.3.1-.7.3-1.2.5zm5.8 2.3c-.1.1-.3.2-.4.3-.1-.3-.2-.7-.4-1 .1-.3.2-.5.4-.7.3.4.6.8.7 1.1 0 0-.1.2-.3.3zm.6-7.8c-.2-.1-.3-.3-.5-.4.2-.3.4-.6.6-.7.1 0 .4.2.8.5-.4.3-.7.6-.9.6zm1.9 10.4c0-.1-.1-.2-.1-.2.1.1.2.1.1.2zm1.4 2.1c.1 0 .1.1.1.2 0-.1-.1-.1-.1-.2zm.1-6.6c0-.2.1-.2.2-.2l-.2.2zm3.8-1c0 .1 0 .2-.1.3 0-.1 0-.2.1-.3zm0 5.5c-.1 0-.1-.1-.1-.2 0 .1.1.1.1.2zm-2.2-4.7c0 .1-.1.2-.2.3l-.9-.6c0-.1.1-.2.2-.3.1-.1.2-.3.2-.4.4.3.7.6.7.8.1 0 0 .1 0 .2zm.6-2.8c-.4-.1-.7-.2-.9-.4 0 0 .1-.2.1-.3 0-.1.1-.2.1-.3l.8.8c0 .1 0 .2-.1.2zm.7 10.5c0-.1-.1-.1-.1-.2s-.1-.2-.1-.2c.3-.5.6-.9.9-1.4l.9.9c-.5.3-1 .6-1.6.9zm6.7-12c0-.1.1-.1.2-.1-.1 0-.1.1-.2.1zm3.7-3.8c.1-.1.2 0 .2.1-.1 0-.1-.1-.2-.1zm1.5 0c.1-.1.3-.2.5-.3.2.3.4.5.6.8 0 0 0 .1-.1.2 0 0 0 .1-.1.1-.3-.3-.6-.6-.9-.8zm.8 14.9c-.1-.3-.2-.6-.2-.9 0-.2.1-.3.2-.6.1.2.2.5.4.8-.1.2-.2.5-.4.7zm.7-2c0-.2 0-.2.1-.3h.1c0 .1-.1.2-.2.3zm2.7-9.7c-.1 0-.2 0-.3-.1-.1 0-.1-.1-.2-.1.2-.2.3-.4.5-.6.2-.2.3-.3.4-.3.1 0 .2.1.4.3.1.1.2.3.4.4-.5.2-.8.3-1.2.4zm3.3-.4c0 .1-.1.1-.1.2-.2-.5-.3-.8-.5-1.1.1 0 .1-.1.2-.1s.2-.1.2-.1c.1 0 .2.1.2.1v.2c.1.2.1.3.1.5 0 .1 0 .1-.1.3zm.3 10.9c.1 0 .1-.1.2-.1 0 .1.1.2.1.3l-.3-.2zm6.1-4.3c-.3-.6-.6-1.1-.9-1.6 0 0 0-.1.1-.2l.1-.1c.3.5.6 1 .9 1.6-.1.1-.1.2-.2.3zm8.8 3.5c.1 0 .2 0 .3.1-.1 0-.2 0-.3-.1zm2.3 0c.1 0 .2 0 .1.2 0-.1-.1-.2-.1-.2zm.8-2.9c0-.1 0-.2.1-.3 0 .2-.1.3-.1.3zm1.7 1.6s-.1 0-.2-.1c0 0-.1 0-.1-.1l.6-.3c.1.1.3.2.4.2-.3.2-.5.3-.7.3zm10.9-1.8c.1.1.1.2.1.3 0-.1-.1-.2-.1-.3zm2.2-9.6c.1 0 .2-.1.2-.1 0 .1-.1.1-.2.1zm.8 11.6c-.3-.1-.5-.2-.6-.3.1-.1.3-.2.4-.3 0 0 .1 0 .2.1 0 0 .1.1.2.1-.1.1-.2.2-.2.4zm4.7-9.5s-.1.1-.1.2c-.1-.1-.3-.1-.4-.2.1-.3.2-.5.3-.6.1.2.2.3.3.4 0 .1-.1.1-.1.2zm4.5 11.5l-.3-.2c.3-.3.5-.5.8-.7.1.1.1.2.2.2l.1.1c-.3.3-.5.5-.8.6zm1-4.1c.3-.1.6-.2 1-.3 0 .1.1.2.2.3-.5.1-.8.1-1.2 0zm1.8-11.7l-.1.1c0-.3-.1-.5-.1-.7v-.1s.1 0 .1-.1h.1c.1.3.1.5.2.7 0 0-.1 0-.2.1zm4.4 8.2c-.1-.1-.1-.3-.2-.6.3-.1.6-.3.9-.3 0 0 .1 0 .2.1l.1.1-1 .7zm.8-3.7c0-.1 0-.2.1-.3l.1.1-.2.2zm.9-.8c-.2 0-.3-.2-.4-.3.1-.2.2-.3.4-.5.1.2.2.4.2.6-.1 0-.2.1-.2.2zm2.8 6.1c0-.1 0-.2.1-.3 0 .1 0 .2-.1.3zm2.9-2.3c0-.1.1-.1.2-.1 0 0-.1.1-.2.1zm1.5-3.7c0-.1.1-.1.2-.1 0 0-.1 0-.2.1zm3 9c0-.1.1-.1.2-.1 0 0-.1 0-.2.1zm.5-5.1c-.2-.2-.4-.5-.6-.8 0 0 0-.1.1-.2 0 0 0-.1.1-.1l1 .7c-.3.2-.4.3-.6.4zm1.4 4.4c-.1.1-.2.3-.2.5-.1-.2-.3-.4-.4-.6.1-.3.2-.5.3-.7.1.2.3.5.3.8zm2.1-8.1c-.2.1-.3.3-.5.5-.1-.5-.3-.9-.4-1.4.1-.3.2-.6.4-1 .4.5.8.9.9 1.4-.1.1-.2.3-.4.5zm7.7-2.7c0 .1-.1.1-.2.1.1 0 .1-.1.2-.1zm-1.5 1.5c-.1-.2-.3-.5-.3-.7v-.1c0-.2.1-.4.1-.6.1.2.3.4.4.6 0 .3-.1.6-.2.8zm1.6 4.5s0 .1 0 0l-1.1-.6c.1-.1.3-.2.5-.3.2.2.4.5.6.9.1-.2 0-.1 0 0zm2.7 3.1c0-.1.1-.1.2-.1 0 .1-.1.1-.2.1zm1.5-3.7c0-.1.1-.1.2-.1 0 0-.1.1-.2.1zm3-2.2c0-.1 0-.2.1-.3 0 .2 0 .2-.1.3zm3.1 6.6c-.1-.2-.2-.4-.2-.6 0 0 0-.1.1-.1l.1-.1c.1.1.2.3.3.4-.1.2-.2.3-.3.4zm.7-1.3c0-.2 0-.2.1-.3h.1c-.1.1-.2.2-.2.3zm.2-3s-.1 0-.2-.1l-.1-.1 1-.7c.1.1.1.3.2.6-.3.1-.6.3-.9.3zm5.1 8.1c-.2-.3-.2-.5-.3-.7 0 0 .1-.1.2-.1l.1-.1c.1.3.1.5.1.8 0 0-.1 0-.1.1zm.8-12.3c0-.1-.1-.2-.2-.3.4-.1.8 0 1.2 0-.3.1-.6.2-1 .3zm1.2-.3c.1-.1 0 0 0 0zm5.5 8.1c-.1-.1-.2-.3-.3-.4 0 0 0-.1.1-.2 0 0 .1-.1.1-.2.1.1.3.1.4.2-.2.2-.3.4-.3.6zm4.5-9.7s-.1-.1-.2-.1c.1-.1.1-.3.2-.4.3.1.5.2.6.3-.2.2-.3.3-.4.3 0 0-.1 0-.2-.1zm.5 11.2c0-.1.1-.1.2-.1-.1.1-.1.1-.2.1zm13.1-11c-.1-.1-.3-.2-.4-.2.2-.1.4-.2.6-.2 0 0 .1 0 .2.1l.1.1c-.2 0-.4.1-.5.2zm4.8-1.8s.1 0 .2.1c-.1 0-.1-.1-.2-.1zm6 18.2c0-.1 0-.2.1-.3 0 .1-.1.2-.1.3zm3.9-12.9l-.1.1c-.3-.5-.7-1-.9-1.5.1-.1.1-.2.2-.3.3.6.6 1.1.8 1.7.1-.1 0-.1 0 0zm6.2 13.1c0-.1 0-.2.1-.3 0 .1-.1.2-.1.3zm-.2-7.2c-.1 0-.2.1-.2.1-.1 0-.2-.1-.2-.1v-.2-.6s0-.1.1-.2c0-.1.1-.1.1-.2.2.5.3.8.5 1.1-.2 0-.3.1-.3.1zm2.9-.6c-.2.2-.3.3-.4.3-.1 0-.2-.1-.4-.3-.1-.1-.2-.3-.4-.4.4-.1.8-.3 1.1-.4.1 0 .1 0 .3.1.1 0 .1.1.2.1-.1.2-.3.4-.4.6zm1.7-6.6c0-.1.1-.1.2-.1-.1.1-.1.1-.2.1zm.8-3.7c0-.1 0-.2.1-.3l.1.1c-.1.1-.1.2-.2.2zm1.1 13c-.2-.3-.4-.5-.6-.8 0 0 0-.1.1-.2 0 0 0-.1.1-.1.3.3.6.5.9.8-.1.1-.2.2-.5.3zm1.8-.4c.1 0 .2.1.3.1-.1 0-.2 0-.3-.1zm3.8-3.6c0-.1.1-.1.2-.1-.1 0-.2.1-.2.1zm6-3.7c0-.1 0-.2.1-.3 0 .1-.1.2-.1.3zm0-5.5c0 .1.1.2.1.2-.1 0-.1-.1-.1-.2zm.7 15c.1.1.1.2.1.3 0-.1-.1-.2-.1-.3zm1.6-6.8c0 .1-.1.2-.1.3l-.8-.8c0-.1.1-.1.1-.2v-.1c.3.1.7.3.9.5 0 .1 0 .2-.1.3zm.7-2.8c-.1.1-.2.3-.2.4-.4-.3-.7-.6-.7-.8 0 0 0-.2.1-.3 0-.1.1-.2.2-.3l.9.6c-.1.1-.2.3-.3.4zm.7-.7s-.1.1-.2.1c.1-.1.1-.2.2-.1zm1.5-4.6s.1.1.1.2c0-.1-.1-.1-.1-.2zm1.8 11.5c-.1 0-.4-.2-.8-.5.4-.3.7-.6.9-.7h.1c.1.1.3.2.4.4-.2.3-.4.6-.6.8zm1.2-7.6c-.3-.4-.7-.7-.7-1 0 0 .1-.2.3-.3.1-.1.3-.2.4-.3.1.3.2.7.4 1-.2.2-.3.4-.4.6zm.9 13.3s-.1.1-.1.2c-.1-.1-.3-.1-.4-.2.1-.3.2-.5.3-.6.1.1.2.3.3.4 0 0-.1.1-.1.2zm3.9-11l-.1-.1c-.2-.1-.4-.4-.6-.7.4-.2.8-.3 1.2-.5.3.2.7.4 1 .5-.5.3-1 .7-1.5.8zm3.3 7.4c.1-.1.1-.1.2-.1 0 0-.1.1-.2.1zm1.5 1.5c0-.1.1-.1.2-.1-.1 0-.1.1-.2.1zm1.5-2.4c.1 0 .1.1.1.2 0-.1-.1-.1-.1-.2zm2.9-9.1h-.2c-.4-.1-.8-.3-1.2-.5v-.2-.2c.6 0 1.1 0 1.6.2 0 0 .1.2.1.3 0 .1 0 .2.1.3-.2.1-.3.1-.4.1zm.8 3.9c.1 0 .2 0 .2.1-.1 0-.1-.1-.2-.1zm3-2.4c.1.1.1.2.1.3 0-.1-.1-.2-.1-.3zm.7 9.2c.1-.1.1-.1.2-.1 0 .1-.1.1-.2.1zm.7-10.6c.2 0 .2.1.3.1-.1 0-.2 0-.3-.1zm.9 4.3c.1-.1.1 0 .1 0h-.1zm3.6-5.4c.1 0 .2.1.2.1s-.1 0-.2-.1zm.7 9.1c.1-.1.2 0 .2.1-.1 0-.1-.1-.2-.1zm.8-10.5c.1-.1.1-.1.2-.1 0 .1-.1.1-.2.1zm.8 8.8c.1.1.1.2.1.3 0-.1-.1-.2-.1-.3zm2.9-2.1c.1 0 .2 0 .3.1-.1 0-.2 0-.3-.1zm3.9-5.2c-.1 0-.1-.1-.1-.2 0 .1.1.1.1.2zm-1.5 9.9v.2c-.6-.2-1.1-.2-1.6-.3 0 0-.1-.2-.1-.3s0-.2-.1-.3H-440.5c.4.1.8.3 1.2.5v.2zm.8-5.4c-.4-.4-.7-.8-1-1.2 0-.1.1-.2.2-.3l.1-.2c.5.2 1 .5 1.6.8-.3.4-.6.7-.9.9zm1.7 11.2v-.2c.1 0 .3-.7.5-.6l.1.1c-.1.1-.3.3-.6.7zm.4-17.9c0-.1.1-.1.2-.1 0 .1-.1.1-.2.1zm1.4 1.5c.1-.1.1-.1.2-.1 0 0-.1.1-.2.1zm3 8.6c-.3-.2-.7-.4-1-.5.5-.3 1-.7 1.5-.7h.1c.2.1.4.4.6.7-.3.1-.7.3-1.2.5zm5.8 2.3c-.1.1-.3.2-.4.3-.1-.3-.2-.7-.4-1 .1-.3.2-.5.4-.7.3.4.6.8.7 1.1 0 0-.1.2-.3.3zm.6-7.8c-.2-.1-.3-.3-.5-.4.2-.3.4-.6.6-.7.1 0 .4.2.8.5-.4.3-.7.6-.9.6zm1.9 10.4c0-.1-.1-.2-.1-.2.1.1.2.1.1.2zm1.4 2.1c.1 0 .1.1.1.2 0-.1-.1-.1-.1-.2zm.1-6.6c0-.2.1-.2.2-.2l-.2.2zm3.8-1c0 .1 0 .2-.1.3 0-.1 0-.2.1-.3zm0 5.5c-.1 0-.1-.1-.1-.2 0 .1.1.1.1.2zm-2.2-4.7c0 .1-.1.2-.2.3l-.9-.6c0-.1.1-.2.2-.3.1-.1.2-.3.2-.4.4.3.7.6.7.8.1 0 0 .1 0 .2zm.6-2.8c-.4-.1-.7-.2-.9-.4 0 0 .1-.2.1-.3 0-.1.1-.2.1-.3l.8.8c0 .1 0 .2-.1.2zm.7 10.5c0-.1-.1-.1-.1-.2s-.1-.2-.1-.2c.3-.5.6-.9.9-1.4l.9.9c-.5.3-1 .6-1.6.9zm6.7-12c0-.1.1-.1.2-.1-.1 0-.1.1-.2.1zm3.7-3.8c.1-.1.2 0 .2.1-.1 0-.1-.1-.2-.1zm1.5 0c.1-.1.3-.2.5-.3.2.3.4.5.6.8 0 0 0 .1-.1.2 0 0 0 .1-.1.1-.3-.3-.6-.6-.9-.8zm.8 14.9c-.1-.3-.2-.6-.2-.9 0-.2.1-.3.2-.6.1.2.2.5.4.8-.1.2-.2.5-.4.7zm.7-2c0-.2 0-.2.1-.3h.1c0 .1-.1.2-.2.3zm2.7-9.7c-.1 0-.2 0-.3-.1-.1 0-.1-.1-.2-.1.2-.2.3-.4.5-.6.2-.2.3-.3.4-.3.1 0 .2.1.4.3.1.1.2.3.4.4-.5.2-.8.3-1.2.4zm3.3-.4c0 .1-.1.1-.1.2-.2-.5-.3-.8-.5-1.1.1 0 .1-.1.2-.1s.2-.1.2-.1c.1 0 .2.1.2.1v.2c.1.2.1.3.1.5 0 .1 0 .1-.1.3zm.3 10.9c.1 0 .1-.1.2-.1 0 .1.1.2.1.3l-.3-.2zm6.1-4.3c-.3-.6-.6-1.1-.9-1.6 0 0 0-.1.1-.2l.1-.1c.3.5.6 1 .9 1.6-.1.1-.1.2-.2.3zm8.8 3.5c.1 0 .2 0 .3.1-.1 0-.2 0-.3-.1zm2.3 0v-.1c.1.1.2.1.1.3 0-.1-.1-.2-.1-.2zm.8-2.9c0-.1 0-.2.1-.3 0 .2-.1.3-.1.3zm1.7 1.6s-.1 0-.2-.1c0 0-.1 0-.1-.1l.6-.3c.1.1.3.2.4.2-.3.2-.5.3-.7.3zm10.9-1.8c.1.1.1.2.1.3 0-.1-.1-.2-.1-.3zm2.2-9.6c.1 0 .2-.1.2-.1 0 .1-.1.1-.2.1zm.8 11.6c-.3-.1-.5-.2-.6-.3.1-.1.3-.2.4-.3 0 0 .1 0 .2.1 0 0 .1.1.2.1-.1.1-.2.2-.2.4zm4.7-9.5s-.1.1-.1.2c-.1-.1-.3-.1-.4-.2.1-.3.2-.5.3-.6.1.2.2.3.3.4 0 .1-.1.1-.1.2zm4.5 11.5l-.3-.2c.3-.3.5-.5.8-.7.1.1.1.2.2.2l.1.1c-.3.3-.5.5-.8.6zm1-4.1c.3-.1.6-.2 1-.3 0 .1.1.2.2.3-.5.1-.8.1-1.2 0zm1.8-11.7c-.1-.2-.2-.4-.2-.6v-.1s.1 0 .1-.1h.1c.1.3.1.5.2.7 0 0-.1 0-.2.1zm5.3 4.2c0 .2-.1.3-.1.3 0-.1 0-.2.1-.3zm-.9 4c-.1-.1-.1-.3-.2-.6.3-.1.6-.3.9-.3 0 0 .1 0 .2.1l.1.1-1 .7zm1.7-4.5c-.2 0-.3-.2-.4-.3.1-.2.2-.3.4-.5.1.2.2.4.2.6-.1 0-.2.1-.2.2zm2.8 6.1c0-.1 0-.2.1-.3 0 .1 0 .2-.1.3zm2.9-2.3c0-.1.1-.1.2-.1 0 0-.1.1-.2.1zm1.5-3.7c0-.1.1-.1.2-.1 0 0-.1 0-.2.1zm3 9c0-.1.1-.1.2-.1 0 0-.1 0-.2.1zm.5-5.1c-.2-.2-.4-.5-.6-.8 0 0 0-.1.1-.2 0 0 0-.1.1-.1l1 .7c-.3.2-.4.3-.6.4zm1.4 4.4c-.1.1-.2.3-.2.5-.1-.2-.3-.4-.4-.6.1-.3.2-.5.3-.7.1.2.3.5.3.8zm2.1-8.1c-.2.1-.3.3-.5.5-.1-.5-.3-.9-.4-1.4.1-.3.2-.6.4-1 .4.5.8.9.9 1.4-.1.1-.2.3-.4.5zm7.7-2.7c0 .1-.1.1-.2.1.1 0 .1-.1.2-.1zm-1.5 1.5c-.1-.2-.3-.5-.3-.7v-.1c0-.2.1-.4.1-.6.1.2.3.4.4.6 0 .3-.1.6-.2.8zm1.6 4.5s0 .1-.1.1l-1-.7c.1-.1.3-.2.5-.3.2.2.4.5.6.9.1-.2 0-.1 0 0zm2.7 3.1c0-.1.1-.1.2-.1 0 .1-.1.1-.2.1zm1.5-3.7c0-.1.1-.1.2-.1 0 0-.1.1-.2.1zm3-2.2c0-.1 0-.2.1-.3 0 .2 0 .2-.1.3zm3.1 6.6c-.1-.2-.2-.4-.2-.6 0 0 0-.1.1-.1l.1-.1c.1.1.2.3.3.4-.1.2-.2.3-.3.4zm.7-1.3c0-.2 0-.2.1-.3h.1c-.1.1-.2.2-.2.3zm.2-3s-.1 0-.2-.1l-.1-.1 1-.7c.1.1.1.3.2.6-.3.1-.6.3-.9.3zm5.1 8.1c-.2-.3-.2-.5-.3-.7 0 0 .1-.1.2-.1l.1-.1c.1.3.1.5.1.8 0 0-.1 0-.1.1zm.8-12.3c0-.1-.1-.2-.2-.3.4-.1.8 0 1.2 0-.3.1-.6.2-1 .3zm6.7 7.8c-.1-.1-.2-.3-.3-.4 0 0 0-.1.1-.2 0 0 .1-.1.1-.2.1.1.3.1.4.2-.2.2-.3.4-.3.6zm4.5-9.7s-.1-.1-.2-.1c.1-.1.1-.3.2-.4.3.1.5.2.6.3-.2.2-.3.3-.4.3 0 0-.1 0-.2-.1zm.5 11.2c0-.1.1-.1.2-.1-.1.1-.1.1-.2.1zm13.1-11c-.1-.1-.3-.2-.4-.2.2-.1.4-.2.6-.2 0 0 .1 0 .2.1l.1.1c-.2 0-.4.1-.5.2zm4.8-1.8s.1 0 .2.1c-.1 0-.1-.1-.2-.1zm6 18.2c0-.1 0-.2.1-.3 0 .1-.1.2-.1.3zm3.9-12.9l-.1.1c-.3-.5-.7-1-.9-1.5.1-.1.1-.2.2-.3.3.6.6 1.1.9 1.6 0 0-.1 0-.1.1zm6.2 13.1c0-.1 0-.2.1-.3 0 .1-.1.2-.1.3zm-.2-7.2c-.1 0-.2.1-.2.1-.1 0-.2-.1-.2-.1v-.2-.6s0-.1.1-.2c0-.1.1-.1.1-.2.2.5.3.8.5 1.1-.2 0-.3.1-.3.1zm2.9-.6c-.2.2-.3.3-.4.3-.1 0-.2-.1-.4-.3-.1-.1-.2-.3-.4-.4.4-.1.8-.3 1.1-.4.1 0 .1 0 .3.1.1 0 .1.1.2.1-.1.2-.3.4-.4.6zm1.7-6.6c0-.1.1-.1.2-.1-.1.1-.1.1-.2.1zm.8-3.7c0-.1 0-.2.1-.3l.1.1c-.1.1-.1.2-.2.2zm1.1 13c-.2-.3-.4-.5-.6-.8 0 0 0-.1.1-.2 0 0 0-.1.1-.1.3.3.6.5.9.8-.1.1-.2.2-.5.3zm1.8-.4c.1 0 .2.1.3.1-.1 0-.2 0-.3-.1zm3.8-3.6c0-.1.1-.1.2-.1-.1 0-.2.1-.2.1zm6-3.7c0-.1 0-.2.1-.3 0 .1-.1.2-.1.3zm0-5.5c0 .1.1.2.1.2-.1 0-.1-.1-.1-.2zm.7 15c.1.1.1.2.1.3 0-.1-.1-.2-.1-.3zm1.6-6.8c0 .1-.1.2-.1.3l-.8-.8c0-.1.1-.1.1-.2v-.1c.3.1.7.3.9.5 0 .1 0 .2-.1.3zm.7-2.8c-.1.1-.2.3-.2.4-.4-.3-.7-.6-.7-.8 0 0 0-.2.1-.3 0-.1.1-.2.2-.3l.9.6c-.1.1-.2.3-.3.4zm.7-.7s-.1.1-.2.1c.1-.1.1-.2.2-.2v.1zm1.5-4.6s.1.1.1.2c0-.1-.1-.1-.1-.2zm1.8 11.5c-.1 0-.4-.2-.8-.5.4-.3.7-.6.9-.7h.1c.1.1.3.2.4.4-.2.3-.4.6-.6.8zm1.2-7.6c-.3-.4-.7-.7-.7-1 0 0 .1-.2.3-.3.1-.1.3-.2.4-.3.1.3.2.7.4 1-.2.2-.3.4-.4.6zm.9 13.3s-.1.1-.1.2c-.1-.1-.3-.1-.4-.2.1-.3.2-.5.3-.6.1.1.2.3.3.4 0 0-.1.1-.1.2zm3.9-11c-.3-.2-.5-.5-.7-.8.4-.2.8-.3 1.2-.5.3.2.7.4 1 .5-.5.3-1 .7-1.5.8zm3.3 7.4c.1-.1.1-.1.2-.1 0 0-.1.1-.2.1zm1.5 1.5c0-.1.1-.1.2-.1-.1 0-.1.1-.2.1zm1.5-2.4c.1 0 .1.1.1.2 0-.1-.1-.1-.1-.2zm2.9-9.1h-.2c-.4-.1-.8-.3-1.2-.5v-.2-.2c.6 0 1.1 0 1.6.2 0 0 .1.2.1.3s0 .2.1.3c-.2.1-.3.1-.4.1zm.8 3.9c.1 0 .2 0 .2.1-.1 0-.1-.1-.2-.1zm3-2.4c.1.1.1.2.1.3 0-.1-.1-.2-.1-.3zm.7 9.2c.1-.1.1-.1.2-.1 0 .1-.1.1-.2.1zm.7-10.6c.2 0 .2.1.3.1-.1 0-.2 0-.3-.1zm1 4.3s-.1 0 0 0c0-.1 0-.1 0 0zm3.5-5.4c.1 0 .2.1.2.1s-.1 0-.2-.1zm.7 9.1c.1-.1.2 0 .2.1-.1 0-.1-.1-.2-.1zm.8-10.5c.1-.1.1-.1.2-.1 0 .1-.1.1-.2.1zm.8 8.8c.1.1.1.2.1.3 0-.1-.1-.2-.1-.3zm2.9-2.1c.1 0 .2 0 .3.1-.1 0-.2 0-.3-.1zm3.9-5.2c-.1 0-.1-.1-.1-.2 0 .1.1.1.1.2zm-1.5 9.9v.2c-.6-.2-1.1-.2-1.6-.3 0 0-.1-.2-.1-.3s0-.2-.1-.3H-206.9c.4.1.8.3 1.2.5v.2zm.8-5.4c-.4-.4-.7-.8-1-1.2 0-.1.1-.2.2-.3l.1-.2c.5.2 1 .5 1.6.8-.3.4-.6.7-.9.9zm1.7 11.2v-.2c.1 0 .3-.7.5-.6l.1.1c-.1.1-.3.3-.6.7zm.4-17.9c0-.1.1-.1.2-.1 0 .1-.1.1-.2.1zm1.4 1.5c.1-.1.1-.1.2-.1 0 0-.1.1-.2.1zm3 8.6c-.3-.2-.7-.4-1-.5.5-.3 1-.7 1.5-.7h.1c.2.1.4.4.6.7-.3.1-.7.3-1.2.5zm5.8 2.3c-.1.1-.3.2-.4.3-.1-.3-.2-.7-.4-1 .1-.3.2-.5.4-.7.3.4.6.8.7 1.1 0 0-.1.2-.3.3zm.6-7.8c-.2-.1-.3-.3-.5-.4.2-.3.4-.6.6-.7.1 0 .4.2.8.5-.4.3-.7.6-.9.6zm1.9 10.4c0-.1-.1-.2-.1-.2.1.1.2.1.1.2zm1.4 2.1c.1 0 .1.1.1.2 0-.1-.1-.1-.1-.2zm.1-6.6c0-.2.1-.2.2-.2l-.2.2zm3.8-1c0 .1 0 .2-.1.3 0-.1 0-.2.1-.3zm0 5.5c-.1 0-.1-.1-.1-.2 0 .1.1.1.1.2zm-2.2-4.7c0 .1-.1.2-.2.3l-.9-.6c0-.1.1-.2.2-.3.1-.1.2-.3.2-.4.4.3.7.6.7.8.1 0 0 .1 0 .2zm.6-2.8c-.4-.1-.7-.2-.9-.4 0 0 .1-.2.1-.3 0-.1.1-.2.1-.3l.8.8c0 .1 0 .2-.1.2zm.7 10.5c0-.1-.1-.1-.1-.2s-.1-.2-.1-.2c.3-.5.6-.9.9-1.4l.9.9c-.5.3-1 .6-1.6.9zm6.7-12c0-.1.1-.1.2-.1-.1 0-.1.1-.2.1zm3.7-3.8c.1-.1.2 0 .2.1-.1 0-.1-.1-.2-.1zm1.5 0c.1-.1.3-.2.5-.3.2.3.4.5.6.8 0 0 0 .1-.1.2 0 0 0 .1-.1.1-.3-.3-.6-.6-.9-.8zm.8 14.9c-.1-.3-.2-.6-.2-.9 0-.2.1-.3.2-.6.1.2.2.5.4.8-.1.2-.2.5-.4.7zm.7-2c0-.2 0-.2.1-.3h.1c0 .1-.1.2-.2.3zm2.7-9.7c-.1 0-.2 0-.3-.1-.1 0-.1-.1-.2-.1.2-.2.3-.4.5-.6.2-.2.3-.3.4-.3.1 0 .2.1.4.3.1.1.2.3.4.4-.5.2-.8.3-1.2.4zm3.3-.4c0 .1-.1.1-.1.2-.2-.5-.3-.8-.5-1.1.1 0 .1-.1.2-.1s.2-.1.2-.1c.1 0 .2.1.2.1v.2c.1.2.1.3.1.5 0 .1 0 .1-.1.3zm.3 10.9c.1 0 .1-.1.2-.1 0 .1.1.2.1.3l-.3-.2zm6.1-4.3c-.3-.6-.6-1.1-.9-1.6 0 0 0-.1.1-.2l.1-.1c.3.5.6 1 .9 1.6-.1.1-.1.2-.2.3zm8.8 3.5c.1 0 .2 0 .3.1-.1 0-.2 0-.3-.1zm2.3 0v-.1c.1.1.2.1.1.3 0-.1-.1-.2-.1-.2zm.8-2.9c0-.1 0-.2.1-.3 0 .2-.1.3-.1.3zm1.7 1.6s-.1 0-.2-.1c0 0-.1 0-.1-.1l.6-.3c.1.1.3.2.4.2-.3.2-.5.3-.7.3zm10.9-1.8c.1.1.1.2.1.3 0-.1-.1-.2-.1-.3zm2.2-9.6c.1 0 .2-.1.2-.1 0 .1-.1.1-.2.1zm.8 11.6c-.3-.1-.5-.2-.6-.3.1-.1.3-.2.4-.3 0 0 .1 0 .2.1 0 0 .1.1.2.1-.1.1-.2.2-.2.4zm4.7-9.5s-.1.1-.1.2c-.1-.1-.3-.1-.4-.2.1-.3.2-.5.3-.6.1.2.2.3.3.4 0 .1-.1.1-.1.2zm4.5 11.5l-.3-.2c.3-.3.5-.5.8-.7.1.1.1.2.2.2l.1.1c-.3.3-.5.5-.8.6zm1-4.1c.3-.1.6-.2 1-.3 0 .1.1.2.2.3-.5.1-.8.1-1.2 0zm1.8-11.7l-.1.1c0-.3-.1-.5-.1-.7v-.1s.1 0 .1-.1h.1c.1.3.1.5.2.7 0 0-.1 0-.2.1zm4.4 8.2c-.1-.1-.1-.3-.2-.6.3-.1.6-.3.9-.3 0 0 .1 0 .2.1l.1.1-1 .7zm.8-3.7c0-.1 0-.2.1-.3l.1.1-.2.2zm.9-.8c-.2 0-.3-.2-.4-.3.1-.2.2-.3.4-.5.1.2.2.4.2.6-.1 0-.2.1-.2.2zm2.8 6.1c0-.1 0-.2.1-.3 0 .1 0 .2-.1.3zm2.9-2.3c0-.1.1-.1.2-.1 0 0-.1.1-.2.1zm1.5-3.7c0-.1.1-.1.2-.1 0 0-.1 0-.2.1zm3 9c0-.1.1-.1.2-.1 0 0-.1 0-.2.1zm.5-5.1c-.2-.2-.4-.5-.6-.8 0 0 0-.1.1-.2 0 0 0-.1.1-.1l1 .7c-.3.2-.4.3-.6.4zm1.4 4.4c-.1.1-.2.3-.2.5-.1-.2-.3-.4-.4-.6.1-.3.2-.5.3-.7.1.2.3.5.3.8zm2.1-8.1c-.2.1-.3.3-.5.5-.1-.5-.3-.9-.4-1.4.1-.3.2-.6.4-1 .4.5.8.9.9 1.4-.1.1-.2.3-.4.5zm7.7-2.7c0 .1-.1.1-.2.1.1 0 .1-.1.2-.1zm-1.5 1.5c-.1-.2-.3-.5-.3-.7v-.1c0-.2.1-.4.1-.6.1.2.3.4.4.6 0 .3-.1.6-.2.8zm1.6 4.5s0 .1-.1.1l-1-.7c.1-.1.3-.2.5-.3.2.2.4.5.6.9.1-.2 0-.1 0 0zm2.7 3.1c0-.1.1-.1.2-.1 0 .1-.1.1-.2.1zm1.5-3.7c0-.1.1-.1.2-.1 0 0-.1.1-.2.1zm3-2.2c0-.1 0-.2.1-.3 0 .2 0 .2-.1.3zm3.1 6.6c-.1-.2-.2-.4-.2-.6 0 0 0-.1.1-.1l.1-.1c.1.1.2.3.3.4-.1.2-.2.3-.3.4zm.7-1.3c0-.2 0-.2.1-.3h.1c-.1.1-.2.2-.2.3zm.2-3s-.1 0-.2-.1l-.1-.1 1-.7c.1.1.1.3.2.6-.3.1-.6.3-.9.3zm5.1 8.1c-.2-.3-.2-.5-.3-.7 0 0 .1-.1.2-.1l.1-.1c.1.3.1.5.1.8 0 0-.1 0-.1.1zm.8-12.3c0-.1-.1-.2-.2-.3.4-.1.8 0 1.2 0-.3.1-.6.2-1 .3zm1.2-.3c0-.1 0 0 0 0zm5.5 8.1c-.1-.1-.2-.3-.3-.4 0 0 0-.1.1-.2 0 0 .1-.1.1-.2.1.1.3.1.4.2-.2.2-.3.4-.3.6zm4.5-9.7s-.1-.1-.2-.1c.1-.1.1-.3.2-.4.3.1.5.2.6.3-.2.2-.3.3-.4.3 0 0-.1 0-.2-.1zm.5 11.2c0-.1.1-.1.2-.1-.1.1-.1.1-.2.1zm13.1-11c-.1-.1-.3-.2-.4-.2.2-.1.4-.2.6-.2 0 0 .1 0 .2.1l.1.1c-.2 0-.4.1-.5.2zm4.8-1.8s.1 0 .2.1c-.1 0-.1-.1-.2-.1zm6 18.2c0-.1 0-.2.1-.3 0 .1-.1.2-.1.3zm3.9-12.9l-.1.1c-.3-.5-.7-1-.9-1.5.1-.1.1-.2.2-.3.3.6.6 1.1.9 1.6 0 0-.1 0-.1.1zm6.2 13.1c0-.1 0-.2.1-.3 0 .1-.1.2-.1.3zm-.2-7.2c-.1 0-.2.1-.2.1-.1 0-.2-.1-.2-.1v-.2-.6s0-.1.1-.2c0-.1.1-.1.1-.2.2.5.3.8.5 1.1-.2 0-.3.1-.3.1zm2.9-.6c-.2.2-.3.3-.4.3-.1 0-.2-.1-.4-.3-.1-.1-.2-.3-.4-.4.4-.1.8-.3 1.1-.4.1 0 .1 0 .3.1.1 0 .1.1.2.1-.1.2-.3.4-.4.6zm1.7-6.6c0-.1.1-.1.2-.1-.1.1-.1.1-.2.1zm.8-3.7c0-.1 0-.2.1-.3l.1.1c-.1.1-.1.2-.2.2zm1.1 13c-.2-.3-.4-.5-.6-.8 0 0 0-.1.1-.2 0 0 0-.1.1-.1.3.3.6.5.9.8-.1.1-.2.2-.5.3zm1.8-.4c.1 0 .2.1.3.1-.1 0-.2 0-.3-.1zm3.8-3.6c0-.1.1-.1.2-.1-.1 0-.2.1-.2.1zm6-3.7c0-.1 0-.2.1-.3 0 .1-.1.2-.1.3zm0-5.5c0 .1.1.2.1.2-.1 0-.1-.1-.1-.2zm.7 15c.1.1.1.2.1.3 0-.1-.1-.2-.1-.3zm1.6-6.8c0 .1-.1.2-.1.3l-.8-.8c0-.1.1-.1.1-.2v-.1c.3.1.7.3.9.5 0 .1 0 .2-.1.3zm.7-2.8c-.1.1-.2.3-.2.4-.4-.3-.7-.6-.7-.8 0 0 0-.2.1-.3 0-.1.1-.2.2-.3l.9.6c-.1.1-.2.3-.3.4zm.7-.7s-.1.1-.2.1c.1-.1.1-.2.2-.2v.1zm1.5-4.6s.1.1.1.2c0-.1-.1-.1-.1-.2zm1.8 11.5c-.1 0-.4-.2-.8-.5.4-.3.7-.6.9-.7h.1c.1.1.3.2.4.4-.2.3-.4.6-.6.8zm1.2-7.6c-.3-.4-.7-.7-.7-1 0 0 .1-.2.3-.3.1-.1.3-.2.4-.3.1.3.2.7.4 1-.2.2-.3.4-.4.6zm.9 13.3s-.1.1-.1.2c-.1-.1-.3-.1-.4-.2.1-.3.2-.5.3-.6.1.1.2.3.3.4 0 0-.1.1-.1.2zm3.9-11l-.1-.1c-.2-.1-.4-.4-.6-.7.4-.2.8-.3 1.2-.5.3.2.7.4 1 .5-.5.3-1 .7-1.5.8zm3.3 7.4c.1-.1.1-.1.2-.1 0 0-.1.1-.2.1zm1.5 1.5c0-.1.1-.1.2-.1-.1 0-.1.1-.2.1zm1.5-2.4c.1 0 .1.1.1.2 0-.1-.1-.1-.1-.2zm2.9-9.1h-.2c-.4-.1-.8-.3-1.2-.5v-.2-.2c.6 0 1.1 0 1.6.2 0 0 .1.2.1.3s0 .2.1.3c-.2.1-.3.1-.4.1zm.8 3.9c.1 0 .2 0 .2.1-.1 0-.1-.1-.2-.1zm3-2.4c.1.1.1.2.1.3 0-.1-.1-.2-.1-.3zm.7 9.2c.1-.1.1-.1.2-.1 0 .1-.1.1-.2.1zm.7-10.6c.2 0 .2.1.3.1-.1 0-.2 0-.3-.1zm.9 4.3c.1-.1.1 0 .1 0h-.1zm3.6-5.4c.1 0 .2.1.2.1s-.1 0-.2-.1zm.7 9.1c.1-.1.2 0 .2.1-.1 0-.1-.1-.2-.1zm.8-10.5c.1-.1.1-.1.2-.1 0 .1-.1.1-.2.1zm.8 8.8c.1.1.1.2.1.3 0-.1-.1-.2-.1-.3zm2.9-2.1c.1 0 .2 0 .3.1-.1 0-.2 0-.3-.1zm3.9-5.2c-.1 0-.1-.1-.1-.2 0 .1.1.1.1.2zm-1.5 9.9v.2c-.6-.2-1.1-.2-1.6-.3 0 0-.1-.2-.1-.3 0-.1 0-.2-.1-.3H26.7c.4.1.8.3 1.2.5v.2zm.8-5.4c-.4-.4-.7-.8-1-1.2 0-.1.1-.2.2-.3l.1-.2c.5.2 1 .5 1.6.8-.3.4-.6.7-.9.9zm1.7 11.2v-.2c.1 0 .3-.7.5-.6l.1.1c-.1.1-.3.3-.6.7zm.4-17.9c0-.1.1-.1.2-.1 0 .1-.1.1-.2.1zm1.4 1.5c.1-.1.1-.1.2-.1 0 0-.1.1-.2.1zm3 8.6c-.3-.2-.7-.4-1-.5.5-.3 1-.7 1.5-.7h.1c.2.1.4.4.6.7-.3.1-.7.3-1.2.5zm5.8 2.3c-.1.1-.3.2-.4.3-.1-.3-.2-.7-.4-1 .1-.3.2-.5.4-.7.3.4.6.8.7 1.1 0 0-.1.2-.3.3zm.6-7.8c-.2-.1-.3-.3-.5-.4.2-.3.4-.6.6-.7.1 0 .4.2.8.5-.4.3-.7.6-.9.6zm1.9 10.4c0-.1-.1-.2-.1-.2.1.1.2.1.1.2zm1.4 2.1c.1 0 .1.1.1.2 0-.1-.1-.1-.1-.2zm.1-6.6c0-.2.1-.2.2-.2l-.2.2zm3.8-1c0 .1 0 .2-.1.3 0-.1 0-.2.1-.3zm0 5.5c-.1 0-.1-.1-.1-.2 0 .1.1.1.1.2zm-2.2-4.7c0 .1-.1.2-.2.3l-.9-.6c0-.1.1-.2.2-.3.1-.1.2-.3.2-.4.4.3.7.6.7.8.1 0 0 .1 0 .2zm.6-2.8c-.4-.1-.7-.2-.9-.4 0 0 .1-.2.1-.3 0-.1.1-.2.1-.3l.8.8c0 .1 0 .2-.1.2zm.7 10.5c0-.1-.1-.1-.1-.2s-.1-.2-.1-.2c.3-.5.6-.9.9-1.4l.9.9c-.5.3-1 .6-1.6.9zm6.7-12c0-.1.1-.1.2-.1-.1 0-.1.1-.2.1zm3.7-3.8c.1-.1.2 0 .2.1-.1 0-.1-.1-.2-.1zm1.5 0c.1-.1.3-.2.5-.3.2.3.4.5.6.8 0 0 0 .1-.1.2 0 0 0 .1-.1.1-.3-.3-.6-.6-.9-.8zm.8 14.9c-.1-.3-.2-.6-.2-.9 0-.2.1-.3.2-.6.1.2.2.5.4.8-.1.2-.2.5-.4.7zm.7-2c0-.2 0-.2.1-.3h.1c0 .1-.1.2-.2.3zm2.7-9.7c-.1 0-.2 0-.3-.1-.1 0-.1-.1-.2-.1.2-.2.3-.4.5-.6s.3-.3.4-.3c.1 0 .2.1.4.3.1.1.2.3.4.4-.5.2-.8.3-1.2.4zm3.3-.4c0 .1-.1.1-.1.2-.2-.5-.3-.8-.5-1.1.1 0 .1-.1.2-.1s.2-.1.2-.1c.1 0 .2.1.2.1v.2c.1.2.1.3.1.5 0 .1 0 .1-.1.3zm.3 10.9c.1 0 .1-.1.2-.1 0 .1.1.2.1.3l-.3-.2zm6.1-4.3c-.3-.6-.6-1.1-.9-1.6 0 0 0-.1.1-.2l.1-.1c.3.5.6 1 .9 1.6-.1.1-.1.2-.2.3zm8.8 3.5c.1 0 .2 0 .3.1-.1 0-.2 0-.3-.1zm2.3 0v-.1c.1.1.2.1.1.3 0-.1-.1-.2-.1-.2zm.8-2.9c0-.1 0-.2.1-.3 0 .2-.1.3-.1.3zm1.7 1.6s-.1 0-.2-.1c0 0-.1 0-.1-.1l.6-.3c.1.1.3.2.4.2-.3.2-.5.3-.7.3zm10.9-1.8c.1.1.1.2.1.3 0-.1-.1-.2-.1-.3zm2.2-9.6c.1 0 .2-.1.2-.1 0 .1-.1.1-.2.1zm.8 11.6c-.3-.1-.5-.2-.6-.3.1-.1.3-.2.4-.3 0 0 .1 0 .2.1 0 0 .1.1.2.1-.1.1-.2.2-.2.4zm4.7-9.5s-.1.1-.1.2c-.1-.1-.3-.1-.4-.2.1-.3.2-.5.3-.6.1.2.2.3.3.4 0 .1-.1.1-.1.2zm4.5 11.5l-.3-.2c.3-.3.5-.5.8-.7.1.1.1.2.2.2l.1.1c-.3.3-.5.5-.8.6zm1-4.1c.3-.1.6-.2 1-.3 0 .1.1.2.2.3-.5.1-.8.1-1.2 0zm1.8-11.7l-.1.1c0-.3-.1-.5-.1-.7v-.1s.1 0 .1-.1h.1c.1.3.1.5.2.7 0 0-.1 0-.2.1zm5.3 4.2c0 .2-.1.3-.1.3 0-.1 0-.2.1-.3zm-.9 4c-.1-.1-.1-.3-.2-.6.3-.1.6-.3.9-.3 0 0 .1 0 .2.1l.1.1-1 .7zm1.7-4.5c-.2 0-.3-.2-.4-.3.1-.2.2-.3.4-.5.1.2.2.4.2.6-.1 0-.2.1-.2.2zm2.8 6.1c0-.1 0-.2.1-.3 0 .1 0 .2-.1.3zm2.9-2.3c0-.1.1-.1.2-.1 0 0-.1.1-.2.1zm1.5-3.7c0-.1.1-.1.2-.1 0 0-.1 0-.2.1zm3 9c0-.1.1-.1.2-.1 0 0-.1 0-.2.1zm.5-5.1c-.2-.2-.4-.5-.6-.8 0 0 0-.1.1-.2 0 0 0-.1.1-.1l1 .7c-.3.2-.4.3-.6.4zm1.4 4.4c-.1.1-.2.3-.2.5-.1-.2-.3-.4-.4-.6.1-.3.2-.5.3-.7.1.2.3.5.3.7v.1zm2.1-8.1c-.2.1-.3.3-.5.5-.1-.5-.3-.9-.4-1.4.1-.3.2-.6.4-1 .4.5.8.9.9 1.4-.1.1-.2.3-.4.5zm7.7-2.7c0 .1-.1.1-.2.1.1 0 .1-.1.2-.1zm-1.5 1.5c-.1-.2-.3-.5-.3-.7v-.1c0-.2.1-.4.1-.6.1.2.3.4.4.6 0 .3-.1.6-.2.8zm1.6 4.5s0 .1-.1.1l-1-.7c.1-.1.3-.2.5-.3.2.2.4.5.6.9.1-.2 0-.1 0 0zm2.7 3.1c0-.1.1-.1.2-.1 0 .1-.1.1-.2.1zm1.5-3.7c0-.1.1-.1.2-.1 0 0-.1.1-.2.1zm3-2.2c0-.1 0-.2.1-.3 0 .2 0 .2-.1.3zm3.1 6.6c-.1-.2-.2-.4-.2-.6 0 0 0-.1.1-.1l.1-.1c.1.1.2.3.3.4-.1.2-.2.3-.3.4zm.7-1.3c0-.2 0-.2.1-.3h.1c-.1.1-.2.2-.2.3zm.2-3s-.1 0-.2-.1l-.1-.1 1-.7c.1.1.1.3.2.6-.3.1-.6.3-.9.3zm5.1 8.1c-.2-.3-.2-.5-.3-.7 0 0 .1-.1.2-.1l.1-.1c.1.3.1.5.1.8 0 0-.1 0-.1.1zm.8-12.3c0-.1-.1-.2-.2-.3.4-.1.8 0 1.2 0-.3.1-.6.2-1 .3zm6.7 7.8c-.1-.1-.2-.3-.3-.4 0 0 0-.1.1-.2 0 0 .1-.1.1-.2.1.1.3.1.4.2-.2.2-.3.4-.3.6zm4.5-9.7s-.1-.1-.2-.1c.1-.1.1-.3.2-.4.3.1.5.2.6.3-.2.2-.3.3-.4.3 0 0-.1 0-.2-.1zm.5 11.2c0-.1.1-.1.2-.1-.1.1-.1.1-.2.1zm13.1-11c-.1-.1-.3-.2-.4-.2.2-.1.4-.2.6-.2 0 0 .1 0 .2.1l.1.1c-.2 0-.4.1-.5.2zm4.8-1.8s.1 0 .2.1c-.1 0-.1-.1-.2-.1zm6 18.2c0-.1 0-.2.1-.3 0 .1-.1.2-.1.3zm3.9-12.9l-.1.1c-.3-.5-.7-1-.9-1.5.1-.1.1-.2.2-.3.3.6.6 1.1.9 1.6 0 0-.1 0-.1.1zm6.2 13.1c0-.1 0-.2.1-.3 0 .1-.1.2-.1.3zm-.2-7.2c-.1 0-.2.1-.2.1-.1 0-.2-.1-.2-.1v-.2-.6s0-.1.1-.2c0-.1.1-.1.1-.2.2.5.3.8.5 1.1-.2 0-.3.1-.3.1zm2.9-.6c-.2.2-.3.3-.4.3-.1 0-.2-.1-.4-.3-.1-.1-.2-.3-.4-.4.4-.1.8-.3 1.1-.4.1 0 .1 0 .3.1.1 0 .1.1.2.1-.1.2-.3.4-.4.6zm1.7-6.6c0-.1.1-.1.2-.1-.1.1-.1.1-.2.1zm.8-3.7c0-.1 0-.2.1-.3l.1.1c-.1.1-.1.2-.2.2zm1.1 13c-.2-.3-.4-.5-.6-.8 0 0 0-.1.1-.2 0 0 0-.1.1-.1.3.3.6.5.9.8-.1.1-.2.2-.5.3zm1.8-.4c.1 0 .2.1.3.1-.1 0-.2 0-.3-.1zm3.8-3.6c0-.1.1-.1.2-.1-.1 0-.2.1-.2.1zm6-3.7c0-.1 0-.2.1-.3 0 .1-.1.2-.1.3zm0-5.5c0 .1.1.2.1.2-.1 0-.1-.1-.1-.2zm.7 15c.1.1.1.2.1.3 0-.1-.1-.2-.1-.3zm1.6-6.8c0 .1-.1.2-.1.3l-.8-.8c0-.1.1-.1.1-.2v-.1c.3.1.7.3.9.5 0 .1 0 .2-.1.3zm.7-2.8c-.1.1-.2.3-.2.4-.4-.3-.7-.6-.7-.8 0 0 0-.2.1-.3 0-.1.1-.2.2-.3l.9.6c-.1.1-.2.3-.3.4zm.7-.7s-.1.1-.2.1c.1-.1.1-.2.2-.2v.1zm1.5-4.6s.1.1.1.2c0-.1-.1-.1-.1-.2zm1.8 11.5c-.1 0-.4-.2-.8-.5.4-.3.7-.6.9-.7h.1c.1.1.3.2.4.4-.2.3-.4.6-.6.8zm1.2-7.6c-.3-.4-.7-.7-.7-1 0 0 .1-.2.3-.3.1-.1.3-.2.4-.3.1.3.2.7.4 1-.2.2-.3.4-.4.6zm.9 13.3s-.1.1-.1.2c-.1-.1-.3-.1-.4-.2.1-.3.2-.5.3-.6.1.1.2.3.3.4 0 0-.1.1-.1.2zm3.9-11c-.3-.2-.5-.5-.7-.8.4-.2.8-.3 1.2-.5.3.2.7.4 1 .5-.5.3-1 .7-1.5.8zm3.3 7.4c.1-.1.1-.1.2-.1 0 0-.1.1-.2.1zm1.5 1.5c0-.1.1-.1.2-.1-.1 0-.1.1-.2.1zm1.5-2.4c.1 0 .1.1.1.2 0-.1-.1-.1-.1-.2zm2.9-9.1h-.2c-.4-.1-.8-.3-1.2-.5v-.2-.2c.6 0 1.1 0 1.6.2 0 0 .1.2.1.3 0 .1 0 .2.1.3-.2.1-.3.1-.4.1zm.8 3.9c.1 0 .2 0 .2.1-.1 0-.1-.1-.2-.1zm3-2.4c.1.1.1.2.1.3 0-.1-.1-.2-.1-.3zm.7 9.2c.1-.1.1-.1.2-.1 0 .1-.1.1-.2.1zm.7-10.6c.2 0 .2.1.3.1-.1 0-.2 0-.3-.1z"/><path class="st0" d="M222.9 925.5l.2.2c.1-.1.1-.2.2-.3l-.2-.2c-.1.1-.2.2-.2.3zM226.8 925.2c.1.1.1.2.2.3l.1-.2c0-.1-.1-.2-.2-.3l-.1.2zM233 928.6c.1.1.3.2.4.2.2 0 .4-.2.6-.3-.1-.1-.3-.2-.4-.3-.2.2-.4.3-.6.4zM228.2 929.9h.4c-.1-.1-.1-.2-.2-.3 0 .1-.1.2-.2.3zM228.9 929.4l.2-.2c0-.1 0-.3-.2.2zM228.7 929.9h.2c0-.2.1-.4.1-.5l-.2.1c-.1.2-.1.3-.1.4zM228.9 928.4c-.1.4-.2.5-.3.7v.5h.1c.1-.3.1-.7.2-1.2zM114.5 926.3c-.2.4-.3.6-.3.7v.5h.1c0 .1-.1.2-.1.3h.2c0-.2.1-.4.1-.5l-.2.1c.1-.3.1-.7.2-1.1zM113.7 927.8h.4c-.1-.1-.1-.2-.2-.3 0 .1-.1.2-.2.3zM93.9 925.2c.1.1.1.2.2.3l.1-.2c0-.1-.1-.2-.2-.3l-.1.2zM118.8 927.9l.2.2c0-.1.1-.2.1-.3l-.2-.2c0 .1-.1.2-.1.3zM115.6 928.7c.1.1.2.1.3.2l.2-.2c-.1 0-.2-.1-.3-.1l-.2.1zM90 925.5l.2.2c.1-.1.1-.2.2-.3l-.2-.2c-.1.1-.2.2-.2.3zM134.8 931.4c0 .2.2.3.3.4 0-.1.1-.3.2-.7-.1 0-.3-.1-.4-.2 0 .3-.1.4-.1.5zM29.9 926.6c0-.1.1-.2.1-.4l-.3-.2c.1.3.2.5.2.6zM35.2 928.1c.1 0 .2.1.3.1l.2-.2c-.1-.1-.2-.1-.3-.2l-.2.3zM76.3 927.1l.2.2c0-.1.1-.2.1-.3l-.2-.2c0 .1-.1.2-.1.3zM36.1 927.6c.1.1.2.1.3.2l.2-.2c-.1 0-.2-.1-.3-.1l-.2.1zM43.4 935.7l.2.2c.1-.1.2-.1.3-.2l-.2-.1c-.1-.1-.2 0-.3.1z"/><path class="st0" d="M114.4 927.3l.2-.2c.1-.1 0-.3-.2.2zM131.5 931.3s.1.2.1.3c.1-.1.1-.1.3-.4v-.1c-.2.1-.3.1-.4.2zM128 930.6l.2.2c0-.1.1-.2.1-.3l-.2-.2c0 .1-.1.2-.1.3zM129.3 926.9c0 .1.1.2.2.3l.2-.2c-.1-.1-.1-.2-.2-.3l-.2.2zM132.3 930.7z"/><path class="st0" d="M132 930.9c0-.1.1-.2.2-.3l-.3.3h.1l-.1.3v.1c.1-.1.1-.2.1-.4.1 0 .1-.1.2-.2 0 .1-.1.1-.2.2zM131.3 929.4c.1.1.3.2.5.3.2-.2.4-.4.5-.6 0-.1-.1-.3-.2-.4-.3.2-.5.5-.8.7zM122.6 925.6l-.3.3.1.1-.1.2v.1c.1-.1.1-.2.2-.3l-.1-.1c.1-.1.1-.2.2-.3zM121.9 926.3s.1.2.1.3c.1-.1.1-.1.3-.4v-.1c-.1 0-.3.1-.4.2zM127.4 929.6l.2.1c.1 0 .2-.1.3-.2l-.2-.1c-.1 0-.2.1-.3.2zM119.2 926.7c0 .1.1.2.2.3l.2-.2c-.1-.1-.1-.2-.2-.3l-.2.2z"/><path class="st0" d="M122.5 926c.1-.1.2-.1.3-.3-.1.1-.1 0-.3.3zM123.6 927.6c.1.1.2.1.3.2l.2-.2c-.1 0-.2-.1-.3-.1l-.2.1z"/></svg>